SplineFontDB: 3.0
FontName: Untitled1
FullName: Untitled1
FamilyName: Untitled1
Weight: Regular
Copyright: Copyright (c) 2018, Yuansheng Zhao,,,
UComments: "2018-7-28: Created with FontForge (http://fontforge.org)"
Version: 001.000
ItalicAngle: 0
UnderlinePosition: -100
UnderlineWidth: 50
Ascent: 800
Descent: 200
InvalidEm: 0
LayerCount: 2
Layer: 0 0 "Back" 1
Layer: 1 0 "Fore" 0
XUID: [1021 64 1373207084 13806451]
StyleMap: 0x0000
FSType: 0
OS2Version: 0
OS2_WeightWidthSlopeOnly: 0
OS2_UseTypoMetrics: 1
CreationTime: 1532764129
ModificationTime: 1540140952
OS2TypoAscent: 0
OS2TypoAOffset: 1
OS2TypoDescent: 0
OS2TypoDOffset: 1
OS2TypoLinegap: 90
OS2WinAscent: 0
OS2WinAOffset: 1
OS2WinDescent: 0
OS2WinDOffset: 1
HheadAscent: 0
HheadAOffset: 1
HheadDescent: 0
HheadDOffset: 1
OS2Vendor: 'PfEd'
DEI: 91125
Encoding: UnicodeFull
UnicodeInterp: none
NameList: AGL For New Fonts
DisplaySize: -48
AntiAlias: 1
FitToEm: 0
WinInfo: 26 26 9
BeginChars: 1114112 107

StartChar: A
Encoding: 65 65 0
Width: 771
Flags: W
HStem: -5 29<-7.52539 64.4935 182.739 251.367> 620 31<614.433 695.029 800.486 889.437> 625 33<158.414 251.548>
LayerCount: 2
Fore
SplineSet
16 -5 m 0xc0
 0 -5 -8 -2 -8 6 c 0
 -8 15 -2 19 21 24 c 0
 84 38 103 63 113 95 c 2
 252 526 l 2
 271 586 273 620 197 625 c 0
 174 627 158 633 158 644 c 0
 158 657 176 658 183 658 c 0xa0
 237 658 278 653 312 653 c 0
 323 653 333 646 338 636 c 2
 567 154 l 2
 570 148 580 135 587 135 c 0
 592 135 594 140 600 155 c 0
 617 198 712 513 719 544 c 0
 730 591 705 610 641 620 c 0
 621 623 614 630 614 639 c 0
 614 647 631 651 647 651 c 0
 683 651 715 647 754 647 c 0
 793 647 812 653 869 653 c 0
 885 653 892 650 892 642 c 0
 892 633 878 624 855 622 c 0
 804 618 794 607 772 555 c 0
 762 531 635 158 622 113 c 0
 616 92 619 82 626 66 c 0
 634 47 648 41 659 33 c 0
 670 25 678 19 678 6 c 0
 678 0 674 0 670 0 c 0
 633 0 610 -5 593 -5 c 0
 572 -5 561 0 551 21 c 0
 479 172 402 369 324 515 c 0
 316 530 307 539 300 539 c 0
 293 539 282 527 276 505 c 0
 249 406 196 241 161 96 c 0
 152 58 172 33 223 23 c 0
 243 19 252 15 252 6 c 0
 252 -2 238 -5 222 -5 c 0
 172 -5 157 0 123 0 c 0
 82 0 66 -5 16 -5 c 0xc0
EndSplineSet
EndChar

StartChar: B
Encoding: 66 66 1
Width: 694
Flags: W
HStem: -14 31<243.188 379.837> 636 28<397.737 522.924>
VStem: 78 85<120.993 344.408> 608 85<296.566 527.326>
LayerCount: 2
Fore
SplineSet
303 -14 m 0
 147 -14 78 105 78 243 c 0
 78 435 218 664 468 664 c 0
 624 664 693 545 693 407 c 0
 693 215 553 -14 303 -14 c 0
306 17 m 0
 487 17 608 251 608 445 c 0
 608 539 567 636 465 636 c 0
 292 636 163 399 163 205 c 0
 163 111 204 17 306 17 c 0
EndSplineSet
EndChar

StartChar: C
Encoding: 67 67 2
Width: 566
Flags: W
HStem: -5 29<1.84375 82.063 216.401 278.641> 254 26<305.021 390.915> 630 22<177.044 239.955 363.604 442.345>
VStem: 535 85<387.882 561.288>
LayerCount: 2
Fore
SplineSet
25 -5 m 0
 9 -5 1 -2 1 6 c 0
 1 15 14 20 37 24 c 0
 86 33 114 51 129 100 c 2
 263 537 l 2
 281 596 268 621 202 627 c 0
 182 629 177 633 177 642 c 0
 177 650 192 653 208 653 c 0
 218 653 268 652 297 652 c 0
 318 652 382 656 408 656 c 0
 534 656 620 587 620 472 c 0
 620 343 488 254 347 254 c 0
 334 254 305 256 305 267 c 0
 305 275 316 279 328 280 c 0
 347 282 365 286 383 290 c 0
 468 313 535 376 535 480 c 0
 535 563 482 630 382 630 c 0
 365 630 361 618 352 588 c 2
 206 111 l 2
 189 58 202 35 254 24 c 0
 274 20 279 15 279 6 c 0
 279 -2 265 -5 249 -5 c 0
 199 -5 183 2 148 2 c 0
 100 2 75 -5 25 -5 c 0
EndSplineSet
EndChar

StartChar: D
Encoding: 68 68 3
Width: 694
Flags: W
HStem: -270 53<507.019 624.357> -14 21<299.161 340.624> 635 29<388.65 518.545>
VStem: 79 85<126.792 353.59> 614 85<290.28 527.22>
LayerCount: 2
Fore
SplineSet
684 -165 m 0
 699 -145 711 -157 704 -171 c 0
 683 -217 616 -270 544 -270 c 0
 473 -270 410 -232 350 -198 c 0
 293 -165 233 -135 167 -135 c 0
 144 -135 122 -138 106 -144 c 0
 86 -152 71 -161 59 -161 c 0
 48 -161 47 -162 47 -152 c 0
 47 -115 241 -59 313 -26 c 0
 323 -22 332 -17 341 -12 c 1
 333 -13 324 -14 314 -14 c 0
 153 -14 79 105 79 243 c 0
 79 435 214 664 469 664 c 0
 625 664 699 545 699 407 c 0
 699 272 626 122 478 29 c 0
 402 -19 352 -51 253 -86 c 1
 307 -89 365 -114 412 -142 c 0
 475 -180 535 -217 584 -217 c 0
 627 -217 661 -196 684 -165 c 0
374 7 m 2
 375 7 l 1
 521 96 614 247 614 445 c 0
 614 539 567 635 456 635 c 0
 287 635 164 399 164 205 c 0
 164 111 216 7 374 7 c 2
EndSplineSet
EndChar

StartChar: E
Encoding: 69 69 4
Width: 687
Flags: W
HStem: -5 29<3.84375 84.063 213.132 268.641 565.334 633.361> 298 20<293.408 339> 622 31<176.117 268.126> 630 22<372.264 452.371>
VStem: 524 83<421.626 578.4>
LayerCount: 2
Fore
SplineSet
27 -5 m 0xd8
 11 -5 3 -2 3 6 c 0
 3 15 16 20 39 24 c 0
 88 33 116 51 131 100 c 2
 265 538 l 2
 287 608 279 615 204 622 c 0
 184 624 176 629 176 639 c 0
 176 649 194 653 210 653 c 2xe8
 299 652 l 2
 336 652 384 655 410 655 c 0
 512 655 607 612 607 507 c 0
 607 398 520 339 434 312 c 0
 425 309 421 304 425 295 c 0
 439 259 497 134 515 98 c 0
 541 46 561 34 600 27 c 0
 617 24 634 22 634 13 c 0
 634 -2 609 -4 583 -4 c 0
 528 -4 483 1 465 32 c 0
 432 89 387 189 362 249 c 0
 346 288 337 298 301 298 c 0
 272 298 265 294 261 280 c 2
 208 111 l 2
 193 63 200 33 244 24 c 0
 264 20 269 15 269 6 c 0
 269 -2 255 -5 239 -5 c 0
 189 -5 185 2 150 2 c 0
 102 2 77 -5 27 -5 c 0xd8
338 318 m 0
 394 318 524 360 524 508 c 0
 524 576 472 630 402 630 c 0xd8
 373 630 362 618 345 555 c 2
 292 356 l 2
 284 325 294 318 338 318 c 0
EndSplineSet
EndChar

StartChar: F
Encoding: 70 70 5
Width: 467
Flags: W
HStem: -15 30<117.392 251.972> 466 21G<466 473> 625 20G<509.5 518> 635 29<286.172 400.04>
VStem: 145 69<429.938 563.787> 332 77<92.8641 231.92> 459 66<492 629> 459 28<466.864 566.376>
LayerCount: 2
Fore
SplineSet
182 -15 m 0xde
 148 -15 113 -9 79 4 c 0
 62 11 50 16 46 16 c 0
 39 16 32 13 25 10 c 0
 17 5 10 0 5 0 c 0
 -1 0 -14 11 -14 19 c 0
 -14 31 21 92 32 171 c 0
 34 185 38 191 48 191 c 0
 59 191 60 179 60 152 c 0
 60 75 96 15 179 15 c 0
 264 15 332 66 332 155 c 0
 332 207 313 242 249 302 c 0
 192 354 145 406 145 482 c 0
 145 588 236 664 354 664 c 0
 375 664 400 658 423 652 c 0
 449 644 467 635 477 635 c 0xde
 486 635 491 637 496 640 c 0
 501 643 506 645 513 645 c 0
 523 645 525 634 525 629 c 0xee
 525 626 502 601 487 498 c 0xed
 484 478 475 466 471 466 c 0
 461 466 459 477 459 492 c 0
 459 585 412 635 342 635 c 0
 271 635 214 570 214 506 c 0
 214 453 239 411 307 348 c 0
 375 286 409 240 409 184 c 0
 409 74 329 -15 182 -15 c 0xde
EndSplineSet
EndChar

StartChar: G
Encoding: 71 71 6
Width: 622
Flags: W
HStem: -5 27<123.496 201.158 346.086 404.807> 504 21G<125 134.5 683.5 690.5> 614 28<227.805 389.601 477.889 648.863> 646 20G<184.5 189.5 731.5 738> 646 20G<184.5 189.5 731.5 738>
VStem: 674 25<497.114 562.589>
LayerCount: 2
Fore
SplineSet
147 -5 m 0xf4
 131 -5 123 -2 123 6 c 0
 123 15 137 18 160 22 c 0
 209 31 242 54 256 102 c 2
 378 530 l 2
 397 598 392 614 375 614 c 2
 292 614 l 2
 227 614 196 582 172 553 c 0
 154 532 140 504 129 504 c 0
 121 504 118 506 118 517 c 0
 118 519 120 531 128 548 c 0
 141 575 160 611 170 646 c 0xec
 173 655 182 666 187 666 c 0
 192 666 199 660 205 654 c 0
 211 648 219 642 281 642 c 2
 638 642 l 2
 699 642 710 649 717 655 c 0
 724 661 729 666 734 666 c 0
 742 666 744 661 744 655 c 0
 744 646 738 634 734 627 c 0
 727 614 709 565 699 511 c 0
 697 500 693 497 688 497 c 0
 679 497 674 506 674 520 c 0
 674 581 657 614 607 614 c 2
 507 614 l 2
 481 614 472 603 451 527 c 2
 330 102 l 2
 316 54 336 31 380 22 c 0
 400 18 405 15 405 6 c 0
 405 -2 391 -5 375 -5 c 0
 325 -5 310 0 268 0 c 0
 221 0 197 -5 147 -5 c 0xf4
EndSplineSet
EndChar

StartChar: H
Encoding: 72 72 7
Width: 700
Flags: W
HStem: -14 40<246.715 412.423> 620 33<163.558 213.343 321.853 385.113 594.851 656.354 752.997 824.206>
LayerCount: 2
Fore
SplineSet
301 -14 m 0
 172 -14 66 65 123 251 c 2
 213 547 l 2
 228 595 212 614 193 620 c 0
 173 626 162 633 162 642 c 0
 162 650 184 653 200 653 c 0
 228 653 254 650 289 650 c 0
 318 650 344 652 364 652 c 0
 380 652 388 649 387 641 c 0
 386 632 373 628 350 621 c 0
 329 615 300 590 284 535 c 2
 196 238 l 2
 152 90 230 26 328 26 c 0
 474 26 545 143 582 269 c 0
 604 344 633 434 646 474 c 0
 685 593 668 609 620 622 c 0
 608 625 594 631 594 640 c 0
 594 648 609 651 625 651 c 2
 727 650 l 2
 757 650 782 653 803 653 c 0
 819 653 828 650 827 642 c 0
 826 633 812 627 789 622 c 0
 756 614 742 608 704 506 c 0
 676 432 648 346 615 254 c 0
 559 99 480 -14 301 -14 c 0
EndSplineSet
EndChar

StartChar: I
Encoding: 73 73 8
Width: 683
Flags: W
HStem: -14 21G<183 199.5> 623 33<168.271 233.167 347.607 424.951 575.041 618.719 736.387 809.183>
LayerCount: 2
Fore
SplineSet
192 -14 m 0
 174 -14 158 2 169 63 c 0
 208 287 234 439 243 550 c 0
 246 593 245 615 192 623 c 0
 172 626 168 634 168 643 c 0
 168 652 182 656 198 656 c 0
 224 656 262 650 304 650 c 0
 340 650 379 651 401 651 c 0
 417 651 425 648 425 640 c 0
 425 631 408 623 390 621 c 0
 351 616 330 603 322 553 c 2
 255 143 l 2
 251 120 253 112 259 112 c 0
 264 112 271 125 288 146 c 2
 568 492 l 2
 640 580 627 617 599 621 c 0
 578 624 575 632 575 641 c 0
 575 649 589 652 605 652 c 0
 622 652 662 650 696 650 c 0
 737 650 756 656 787 656 c 0
 803 656 810 651 810 643 c 0
 810 634 796 627 773 620 c 0
 738 610 695 591 656 543 c 2
 285 95 l 2
 243 45 207 -14 192 -14 c 0
EndSplineSet
EndChar

StartChar: J
Encoding: 74 74 9
Width: 1067
Flags: W
HStem: -14 21G<195.5 215 553 579> 623 33<168.512 253.042 357.489 438.968 534.732 615.724 733.437 823.183 935.044 989.704 1115.68 1193.18>
VStem: 632 192<560.5 647>
LayerCount: 2
Fore
SplineSet
208 -14 m 0
 183 -14 180 37 188 78 c 0
 217 226 250 422 262 523 c 0
 272 606 265 612 199 623 c 0
 179 626 168 632 168 643 c 0
 168 654 185 656 205 656 c 0
 231 656 267 650 318 650 c 0
 354 650 390 651 412 651 c 0
 428 651 439 647 439 639 c 0
 439 630 417 622 399 620 c 0
 351 615 343 602 333 539 c 0
 314 415 294 293 274 167 c 0
 267 121 276 122 313 165 c 2
 584 485 l 2
 621 528 632 551 632 570 c 0
 632 602 614 616 564 623 c 0
 544 626 534 633 534 644 c 0
 534 653 554 656 570 656 c 0
 600 656 662 650 701 650 c 0
 739 650 769 656 801 656 c 0
 817 656 824 651 824 643 c 0
 824 634 810 627 787 623 c 0
 724 613 711 597 704 551 c 2
 648 167 l 2
 641 122 651 122 686 166 c 2
 945 490 l 2
 1016 579 1007 612 960 621 c 0
 939 625 935 629 935 639 c 0
 935 648 950 652 966 652 c 0
 983 652 1046 650 1080 650 c 0
 1121 650 1140 656 1171 656 c 0
 1187 656 1194 651 1194 643 c 0
 1194 634 1180 624 1157 620 c 0
 1115 612 1080 592 1040 543 c 2
 670 94 l 2
 635 51 586 -14 572 -14 c 0
 534 -14 556 64 564 112 c 2
 628 492 l 1
 298 97 l 2
 262 54 222 -14 208 -14 c 0
EndSplineSet
EndChar

StartChar: K
Encoding: 75 75 10
Width: 633
Flags: W
HStem: -5 33<-59.3006 34.1781 150.977 197.959 296.069 365.017 496.876 577.02> 622 33<133.227 211.251 323.821 401.625 495.161 543.346 653.556 730.789>
LayerCount: 2
Fore
SplineSet
-37 -5 m 0
 -53 -5 -61 -2 -61 6 c 0
 -61 15 -47 25 -23 28 c 0
 24 34 67 53 134 124 c 2
 286 284 l 2
 305 304 318 319 308 351 c 2
 256 529 l 2
 233 609 202 616 164 622 c 0
 145 625 132 634 132 643 c 0
 132 651 154 655 170 655 c 0
 201 655 250 650 296 650 c 0
 333 650 361 652 378 652 c 0
 394 652 402 649 402 641 c 0
 402 632 389 623 365 621 c 0
 314 617 310 601 330 528 c 2
 365 397 l 2
 370 378 378 378 392 394 c 2
 499 520 l 2
 562 595 552 612 519 620 c 0
 507 623 495 631 495 640 c 0
 495 648 509 651 525 651 c 0
 547 651 574 650 602 650 c 0
 638 650 685 656 710 656 c 0
 726 656 734 653 734 645 c 0
 734 636 720 631 697 625 c 0
 659 615 589 568 538 513 c 2
 406 370 l 2
 388 350 385 343 388 331 c 2
 448 111 l 2
 463 55 479 45 553 26 c 0
 573 21 578 15 578 6 c 0
 578 -2 564 -5 548 -5 c 0
 522 -5 451 1 407 1 c 0
 369 1 342 0 320 0 c 0
 304 0 296 3 296 11 c 0
 296 20 320 27 334 31 c 0
 381 43 390 67 378 111 c 2
 334 270 l 2
 330 284 323 285 315 275 c 2
 169 100 l 2
 137 62 142 39 174 30 c 0
 194 24 198 21 198 12 c 0
 198 4 184 -1 168 -1 c 0
 151 -1 115 1 82 1 c 0
 40 1 -6 -5 -37 -5 c 0
EndSplineSet
EndChar

StartChar: L
Encoding: 76 76 11
Width: 575
Flags: W
HStem: -5 29<99.8438 176.653 322.55 380.641> 620 33<140.308 200.809 306.885 378.642 500.633 551.984 658.286 728.67>
LayerCount: 2
Fore
SplineSet
123 -5 m 0
 107 -5 99 -2 99 6 c 0
 99 15 112 20 135 24 c 0
 184 33 219 60 234 108 c 2
 285 268 l 2
 294 295 292 314 284 342 c 2
 228 548 l 2
 216 593 198 617 167 620 c 0
 148 622 139 633 139 642 c 0
 139 650 158 653 174 653 c 0
 202 653 238 650 282 650 c 0
 311 650 337 652 357 652 c 0
 373 652 380 649 380 641 c 0
 380 632 367 625 343 621 c 0
 305 615 298 607 310 560 c 2
 352 401 l 2
 359 375 364 363 371 363 c 0
 378 363 390 376 407 395 c 0
 451 444 478 481 523 537 c 0
 567 592 562 610 524 620 c 0
 511 623 500 631 500 640 c 0
 500 648 514 651 530 651 c 0
 558 651 578 650 608 650 c 0
 646 650 685 653 706 653 c 0
 722 653 731 650 731 642 c 0
 731 633 716 629 697 623 c 0
 658 611 599 565 570 534 c 0
 520 482 441 392 404 352 c 0
 374 320 365 294 353 256 c 2
 308 108 l 2
 294 63 312 33 356 24 c 0
 376 20 381 15 381 6 c 0
 381 -2 367 -5 351 -5 c 0
 301 -5 285 0 243 0 c 0
 196 0 173 -5 123 -5 c 0
EndSplineSet
EndChar

StartChar: M
Encoding: 77 77 12
Width: 635
Flags: W
HStem: -5 37<121.562 437.185> 493 21G<141 149.5> 617 29<340.776 542.002>
LayerCount: 2
Fore
SplineSet
502 -5 m 0
 405 -5 250 -1 167 -1 c 0
 134 -1 37 -3 -16 -3 c 0
 -22 -3 -18 11 -18 11 c 1
 -15 21 33 73 64 104 c 0
 247 290 357 416 542 601 c 0
 547 606 555 616 533 617 c 0
 489 619 360 614 294 608 c 0
 264 605 208 578 172 518 c 0
 163 503 154 493 145 493 c 0
 137 493 133 502 133 512 c 0
 133 516 136 526 141 537 c 0
 153 564 174 605 183 627 c 0
 190 644 198 653 213 653 c 0
 229 653 264 648 297 647 c 0
 345 646 413 646 455 646 c 0
 532 646 589 647 658 649 c 0
 666 649 675 631 671 627 c 2
 594 550 l 2
 408 364 301 263 130 67 c 0
 116 51 118 40 136 38 c 0
 162 35 194 32 235 32 c 0
 277 32 365 35 409 41 c 0
 477 50 537 82 579 150 c 0
 584 158 590 169 600 169 c 0
 610 169 609 159 609 150 c 0
 609 129 548 36 533 12 c 0
 528 4 520 -5 502 -5 c 0
EndSplineSet
EndChar

StartChar: N
Encoding: 78 78 13
Width: 774
VWidth: 950
Flags: HW
HStem: -5 34<-59.7961 20.3042 503.216 566.431> 0 32<146.714 194.31 293.119 377.057> 258 33<315.997 450.422> 656 20G<596.5 603>
LayerCount: 2
Fore
SplineSet
818.099609375 27.4501953125 m 4x4c
 887.370117188 29.89453125 923 126 942 173 c 4
 950.62890625 194.34375 979.577148438 181.385742188 970.400390625 160.150390625 c 4
 947 106 894.91015625 -22.75 793.5 -22.75 c 7
 700.814453125 -22.75 687.052734375 93.203125 682.5 171.75 c 1
 480.450195312 171.75 l 1x6c
 410.150390625 71.0498046875 318.949868169 -48.3787100288 191 -49 c 0
 83.0009765625 -49.5244140625 29 35 29 102 c 0
 29 191 105 277 226 277 c 0
 277 277 302 249 302 221 c 0
 302 196 287 166 255 166 c 0
 230 166 221 179 213 189 c 0
 205 198 198 208 180 208 c 0
 123 208 72 168 72 111 c 0
 72 21 131 -17 204 -17 c 3x9c
 308.147460938 -17 407.709960938 122.635742188 501.432617188 272 c 0
 597.43359375 424.99609375 689.487026838 592.130078083 712.900390625 633.650390625 c 0
 728.645507812 661.571289062 740.221679688 685.849609375 763.799804688 685.849609375 c 0
 773.299804688 685.849609375 792.890625 673.955078125 791.299804688 646.049804688 c 0
 784.510742188 526.982421875 702.211947819 23.360888264 818.099609375 27.4501953125 c 4x4c
717.650390625 570.950195312 m 1
 716.700195312 570.950195312 l 1
 676.309570312 498.245117188 578.435546875 328.168945312 505.099609375 215.799804688 c 1
 537.395507812 217.134765625 622.767578125 217.950195312 682.799804688 217.950195312 c 1
 684.301757812 252.919921875 685.361328125 323.022460938 694.69921875 404 c 0
 701.549804688 463.400390625 713.086914062 524.34765625 717.650390625 570.950195312 c 1
EndSplineSet
EndChar

StartChar: O
Encoding: 79 79 14
Width: 673
Flags: HW
HStem: -4 25<-19.625 50.1531 213.369 309.978> 346 25<274.938 353.325> 625 30<182.34 241.239 335.586 439.98>
VStem: 439 81<124.728 280.543> 496 81<456.588 584.062>
LayerCount: 2
Fore
SplineSet
336.299804688 12.2998046875 m 0xf8
 401.849609375 12.2998046875 522.25 87.150390625 522.25 219.200195312 c 0xf8
 522.25 310.400390625 446.5 334.400390625 348.650390625 334.400390625 c 0
 319.168553777 334.400390625 316 346.978515625 316 358 c 0
 316 366.650390625 324.327568777 380.484406468 361 384.75 c 0
 470.520365552 397.488979864 561.400390625 475.950195312 561.400390625 546.950195312 c 0
 561.400390625 602.049804688 519.900390625 629.5 481.650390625 629.5 c 0
 410.400390625 629.5 352.450195312 574.75 314.450195312 524.400390625 c 0
 240.349609375 424.650390625 202.804331339 266.954945142 185.25 211.849609375 c 0
 156.5 121.599609375 124 36.5 105 -1.5 c 0
 85.9287109375 -37.63671875 18.5817908586 -45.9738270608 41.7998046875 12.349609375 c 0
 77.349609375 101.650390625 107.349609375 181.450195312 134.900390625 308.75 c 0
 152 388.549804688 172 490 186.200195312 607.200195312 c 0
 188.583984375 626.872070312 179.090820312 628.471679688 141 629 c 0
 49.2138671875 630.274414062 -67 571 -67 498 c 0
 -67 452 -39 437 -2 430 c 0
 16 427 26 414 26 399 c 0
 26 381 12 360 -24 360 c 0
 -78 360 -112 412 -112 464 c 0
 -112 594 7 669 247 669 c 3
 260.920898438 669 273.75 651.56597224 267.75 630.200195312 c 0
 248.900390625 514.900390625 l 1
 249.849609375 514.900390625 l 1
 343.900390625 634.599609375 451.700195312 670.700195312 518.200195312 670.700195312 c 0
 586.599609375 670.700195312 645.049804688 612.700195312 645.049804688 554.75 c 0xf4
 645.049804688 445.950195312 491.099609375 375.349609375 403.049804688 367.75 c 1
 484.75 356.349609375 607.900390625 307.200195312 607.900390625 216 c 0
 607.900390625 63.0498046875 410.400390625 -20.900390625 270.75 -20.900390625 c 0
 192.75 -20.900390625 123.867001636 9.18267357918 137.748046875 60.9892578125 c 0
 142.924804688 80.3076171875 156.158203125 105.84765625 187.158203125 105.84765625 c 3
 220.954101562 105.84765625 224.08203125 71.6953125 240.729492188 51.6328125 c 0
 254.732396076 34.7573706337 303.862304688 12.2998046875 336.299804688 12.2998046875 c 0xf8
EndSplineSet
EndChar

StartChar: P
Encoding: 80 80 15
Width: 542
Flags: HW
HStem: 11 6<445 459> 467 21G<613 622.5> 625 20G<693.5 703> 634 31<405.747 547.464>
VStem: 78 88<140.567 365.222> 604 33<467.178 536.318>
LayerCount: 2
Fore
SplineSet
569.650390625 512 m 0
 569.650390625 393.099609375 454.964703836 303.969351874 339.758926401 303.969351874 c 0
 279.187010205 303.969351874 218 349.674804688 218 408 c 0
 218 453 244 489 279 489 c 0
 314 489 330 457 330 438 c 0
 330 412.654296875 292 400.259765625 292 375 c 0
 292 357.201085661 318.036132812 333.620117188 355.826171875 333.620117188 c 0
 452.875 333.620117188 507 423.544921875 507 510.200195312 c 0
 507 563.450195312 473.849609375 638.549804688 365.25 638.549804688 c 0
 177.666015625 638.549804688 71.9501953125 401.76946117 71.9501953125 238.450195312 c 0
 71.9501953125 95 179.75 26.4501953125 268.099609375 26.4501953125 c 0
 381.0703125 26.4501953125 426.032226562 102.982421875 448 159 c 0
 451.879432599 168.892510014 459.713331991 172.944949581 466.19443191 172.944949581 c 0
 473.678365554 172.944949581 480.144579769 167.205418328 480.144579769 157.314905 c 0
 480.144579769 124.333213155 396.259837878 -20.75 219.5 -20.75 c 0
 101.150390625 -20.75 -13.7001953125 82.25 -13.7001953125 226.650390625 c 0
 -13.7001953125 426.762695312 165.412109375 669.75 380.799804688 669.75 c 0
 476.049804688 669.75 569.650390625 600.700195312 569.650390625 512 c 0
EndSplineSet
EndChar

StartChar: Q
Encoding: 81 81 16
Width: 753
VWidth: 950
Flags: HW
HStem: -7 30<183.254 409.275> -5 29<-3.2371 87.2179> 622 27<163.18 244.504 367.125 527.814>
VStem: 659 86<265.985 493.048>
LayerCount: 2
Fore
SplineSet
80.75 17.650390625 m 0
 80.75 23.349609375 89 29.2001953125 132.700195312 29.349609375 c 1
 204.900390625 203.200195312 260.5 427.549804688 272.849609375 615.650390625 c 1
 198.849609375 613.650390625 49 575.03515625 49 478 c 0
 49 432 73.7299822315 421.993216189 111 418 c 0
 139 415 143 394 143 379 c 0
 143 361 125 334 89 334 c 0
 35 334 -4 392 -4 444 c 0
 -4 574 127 653 367 653 c 0
 524.466796875 652.73828125 714.599609375 583.53515625 714.599609375 407.5 c 0
 714.599609375 149.099609375 462.25 -2 203.299804688 -2 c 0
 101.21875 -2 80.75 -1.48828125 80.75 17.650390625 c 0
207.099609375 31.2001953125 m 1
 414.376953125 31.2001953125 632.413085938 162.501953125 632.413085938 383.9609375 c 0
 632.413085938 548.165039062 502.08203125 618.650390625 348.650390625 618.650390625 c 1
 329.650390625 444.799804688 295.450195312 245.900390625 207.099609375 31.2001953125 c 1
EndSplineSet
EndChar

StartChar: R
Encoding: 82 82 17
Width: 490
Flags: HW
HStem: -5 31<-30.6487 61.9023 183.675 439.05> 322 27<265.297 429.349> 420 220G<504 515 609.5 614.5> 516 21G<572.5 579> 622 28<163.258 242.124 342.525 551.119> 640 20G<609.5 614.5>
VStem: 441 26<237.015 309.096> 565 28<516.463 594.81>
LayerCount: 2
Fore
SplineSet
391 634 m 0
 267 634 234 534 234 483 c 0
 234 433 268 363 389 363 c 0
 401 363 402 353 402 347 c 0
 402 328 383 324 321 320 c 0
 184 310 130 220 130 139 c 0
 130 58 193 19 262 19 c 0
 355 19 445.037109375 82.1865234375 462 162 c 0
 464.120117188 171.975585938 471 176 476 176 c 0
 485 176 492 166 492 155 c 0
 492 99 398 -21 228 -21 c 0
 116 -21 45 54 45 135 c 0
 45 205 128 298 265 344 c 1
 219 359 151 423 151 481 c 0
 151 584 247 661 418 661 c 0
 480 661 508 628 508 593 c 0
 508 555.246733218 479.777457722 523 449 523 c 0
 441 523 437 527 437 532 c 0
 437 546.279296875 445.169512141 558.296272784 445.169512141 575.13075258 c 0
 445.169512141 609.76267969 427.552459316 634 391 634 c 0
EndSplineSet
EndChar

StartChar: S
Encoding: 83 83 18
Width: 736
Flags: HW
HStem: -5 29<-9.2371 68.706 200.97 269.641> 322 27<268.265 432.173> 523 21G<575 586.5> 618 32<179.007 245.459 345.112 559.285> 642 20G<614.5 620.5> 642 20G<614.5 620.5>
VStem: 443 28<246.052 311.503> 569 56<546 652>
LayerCount: 2
Fore
SplineSet
415 613 m 1xfe80
 379 621 344 630 312 630 c 0
 190 630 148 564 148 506 c 0
 148 464 172 422 201 422 c 0
 217 422 214.088475092 433.404831411 219 442 c 0
 223 449 234 457 246 457 c 0
 265 457 274 442 274 427 c 0
 274 409 248 390 212 390 c 0
 138 390 92 445 92 506 c 0xfd80
 92 580 160 662 327 662 c 0
 463.870808358 662 632.442609775 599.003475268 725.300960952 599.003475268 c 0
 742.119728408 599.003475268 755.757864873 601.706723311 769 606 c 1
 761 620 756.894461777 635.232253422 756.894461777 647.158179348 c 0
 756.894461777 653.121142311 757.920846333 658.2575234 760 662 c 0
 770 680 784 689 802 689 c 0
 818 689 830 674 830 655 c 0
 830 626 779 555 690 555 c 0
 640.860882198 555 516.647460938 600.650390625 480.700195312 604.650390625 c 1
 471.200195312 559.049804688 423.549804688 390.450195312 406.599609375 341.049804688 c 1
 643.150390625 341.049804688 l 2
 655.823568761 341.049804688 662.689453125 334.92578125 662.689453125 325.723632812 c 0
 662.689453125 313.706054688 651.684462057 297.849609375 633.75 297.849609375 c 1
 394.700195312 297.849609375 l 1
 377.599609375 244.650390625 356.110339871 178.776308056 309 89 c 0
 256 -12 185.299804688 -30.400390625 127.299804688 -30.400390625 c 4
 74.6663930094 -30.400390625 16.150390625 -10.9794921875 16.150390625 53.599609375 c 4
 16.150390625 80.7001953125 39.349609375 112.150390625 71.2001953125 112.150390625 c 4
 94.8928355064 112.150390625 120 98.3984375 120 76 c 4
 120 50 97 47.4912109375 97 28 c 4
 97 10.44921875 112.09375 -0.494140625 135.892578125 -0.494140625 c 7
 204.333007812 -0.494140625 257 112 287.849609375 211.849609375 c 0
 330.766127643 350.755665938 368.703125 492.767578125 415 613 c 1xfe80
EndSplineSet
EndChar

StartChar: T
Encoding: 84 84 19
Width: 610
Flags: HW
HStem: -14 28<317.817 444.6> 260 30<432.012 519.25 623.233 686.871> 464 21G<621.5 631.5> 625 20G<702.5 712> 634 29<412.974 555.552>
VStem: 81 88<142.781 368.126> 526 36<92 209> 613 33<464.2 536.318>
LayerCount: 2
Fore
SplineSet
518.336914062 437.327148438 m 0xf8
 486.625976562 433.357421875 461.782226562 451.102539062 465.749023438 487.643554688 c 0xf8
 470.25390625 529.139648438 516.068782026 518.442103062 529.184570312 546.916992188 c 0
 551.965820312 596.375976562 508.739257812 635.549804688 414.25 635.549804688 c 4
 345.900390625 635.549804688 273.849609375 611.200195312 209 545.799804688 c 4
 138.168837118 474.367057976 125.400390625 362.900390625 125.400390625 303.049804688 c 0
 125.400390625 199.5 180.5 109.799804688 279.299804688 109.799804688 c 0
 341.049804688 109.799804688 375.25 151.049804688 396.150390625 171 c 0
 442.700195312 218.5 460.75 274.549804688 470.25 306.849609375 c 0
 475.950195312 323.950195312 502.5 351.5 522.450195312 351.5 c 0
 537.200195312 351.5 551.950195312 341.650390625 551.950195312 303.900390625 c 0xf4
 551.950195312 286.299804688 524.400390625 236.549804688 516.799804688 208.049804688 c 0
 503.5 167.200195312 492.099609375 130.150390625 471.200195312 82.650390625 c 0
 403.75 -67.4501953125 298.799804688 -113.049804688 220.900390625 -113.049804688 c 0
 128.75 -113.049804688 63.2001953125 -104.099609375 43.2001953125 -66.5 c 0
 21.52734375 -25.7548828125 52.4482421875 17.666015625 76.349609375 19 c 0
 147.998046875 22.998046875 121.61726422 -36.9755479875 157.75 -64.7001953125 c 0
 187.202148438 -87.298828125 219.168945312 -86.140625 250 -80.0830078125 c 0
 295.336914062 -71.1748046875 335.319004493 -48.9770768123 368.599609375 7.599609375 c 0
 385.700195312 36.099609375 410.400390625 91.2001953125 428.450195312 152.950195312 c 1
 389.5 120.650390625 344 74.599609375 254.700195312 74.599609375 c 0
 137.849609375 74.599609375 32.75 184.849609375 32.75 291.25 c 0
 32.75 400.996517362 81.3218157738 511.655806499 170 579.290039062 c 0
 251.70703125 641.607421875 339.798828125 669.75 429.799804688 669.75 c 0
 573.450195312 669.75 590.583525814 552.047072595 574.340820312 499.829101562 c 4
 562.769154702 462.627854543 546.234375 440.819335938 518.336914062 437.327148438 c 0xf8
EndSplineSet
EndChar

StartChar: U
Encoding: 85 85 20
Width: 542
Flags: HW
HStem: -5 29<-19.1905 53.465 181.926 244.641 401.844 477.446 594.888 650.641> 307 38<245.912 585> 622 31<181.501 237.532 348.255 427.556 598.501 655.031 767.674 842.556>
LayerCount: 2
Fore
SplineSet
656.099609375 -5.5498046875 m 0x7b80
 698.950195312 -5.5498046875 737.938476562 32.373046875 757.650390625 69.0498046875 c 0
 774.5 100.400390625 795.349609375 113.75 804.849609375 113.75 c 0
 825.549804688 113.75 828.400390625 104.900390625 828.400390625 95.150390625 c 0
 828.400390625 74.25 748.25 -47.75 591.5 -47.75 c 0x7b80
 552.497070312 -47 491.349609375 -19.9501953125 491.349609375 46.650390625 c 0
 491.349609375 54.25 491.049804688 76.9501953125 502.450195312 137.75 c 0
 504.349609375 149.150390625 513.849609375 196.650390625 534.75 275.5 c 1
 517.650390625 265.049804688 501 265 489.150390625 265.049804688 c 2
 308.75 266.049804688 l 1
 279.658778594 151.460171242 248.786345726 70.1394298327 223 30 c 0
 181.956054688 -33.8896484375 132 -53 77 -53 c 0
 7 -53 -39 -10 -39 19 c 0
 -39 42 -32 57 -15 57 c 0
 14 57 15 17 33 -2 c 0
 46.7548929582 -16.5190536781 56 -26 78 -26 c 0
 122.106445312 -26 151.069804482 24.1767265881 169.950195312 61 c 0
 201.240234375 122.026367188 221.294110645 200.944957208 237.5 266.049804688 c 1
 168.150390625 265.049804688 l 2
 146 265 145.349609375 279 145.349609375 284.700195312 c 0
 145.349609375 298.950195312 163 318 186.799804688 318.25 c 2
 252.700195312 318.25 l 1
 299.941775145 510.514082012 329.094726562 614 245 614 c 0
 153 614 28 576 28 493 c 0
 28 447 58 432 95 426 c 0
 113 423 123 410 123 395 c 0
 123 377 109 356 73 356 c 0
 19 356 -15 408 -15 460 c 0
 -15 590 109 650 309 650 c 0xbd80
 365.761658702 650 376.200195312 615.599609375 376.200195312 593.75 c 0
 376.200195312 589 372.400390625 537.700195312 359.099609375 462.650390625 c 0
 349.599609375 414.200195312 338.200195312 365.75 324.900390625 318.25 c 1
 547.099609375 318.25 l 1
 555.139648438 346.563476562 561.21875 372.916992188 574 407 c 0
 646 599 725 646 815 646 c 0
 874 646 920 617 920 575 c 0
 920 539 896 521 877 521 c 0
 862 521 853 542 853 565 c 0
 853 595.463092423 836 616 807 616 c 0
 732 616 697 526 667 451 c 0
 630.786132812 360.46484375 613.422851562 287.618164062 595.3671875 211 c 0
 584.41796875 164.534179688 562.580078125 91.8369140625 580.004882812 48 c 0
 592.249023438 17.193359375 625.005859375 -5.5498046875 656.099609375 -5.5498046875 c 0x7b80
EndSplineSet
EndChar

StartChar: V
Encoding: 86 86 21
Width: 562
Flags: HW
HStem: -5 29<-19.1562 62.4897 199.031 261.641> 622 31<185.501 245.933 364.79 447.556>
LayerCount: 2
Fore
SplineSet
90 503 m 3xec
 90 457 125.516601562 445 163 445 c 3
 181.248046875 445 191 432 191 417 c 3
 191 399 177 375 141 375 c 3
 87 375 53 427 53 479 c 3
 53 609 200.105006335 649 351 649 c 0xec
 577.549804688 648.849609375 l 2
 598.345937441 648.995329019 607.05859375 640.23828125 607.05859375 633.342773438 c 0
 607.05859375 618.521484375 593.235351562 604.650390625 559.849609375 604.650390625 c 2
 431.299804688 604.650390625 l 1
 378.5 556.400390625 358.879882812 379.342773438 342.099609375 294.849609375 c 0
 312.026367188 143.42578125 278.349609375 96.900390625 198.049804688 44.2001953125 c 1
 356.150390625 44.2001953125 l 2
 450.599609375 44.2001953125 459.677071772 90.5816423222 468.150390625 116.950195312 c 0
 479.139197746 151.146824506 471.25 193.5 505.349609375 193.5 c 0
 549.150390625 193.5 545.799804688 163.5 545.799804688 156.849609375 c 0
 545.799804688 121.700195312 471.25 0 297.25 0 c 2
 22.849609375 0 l 2
 -17.4609375 0 8 44.2001953125 36.5 44.2001953125 c 2
 130.150390625 44.2001953125 l 2
 155.799804688 44.2001953125 156.75 45.150390625 165.299804688 53.7001953125 c 0
 209.950195312 107.849609375 260.09765625 258.396484375 271.650390625 333.549804688 c 0
 291.7734375 464.458984375 324.450195312 545.75 388.099609375 604.650390625 c 1
 278.959960938 604.650390625 90 604.37109375 90 503 c 3xec
EndSplineSet
EndChar

StartChar: W
Encoding: 87 87 22
Width: 612
Flags: HW
HStem: -200 38<-100.74 -21.2121> 622 31<159.593 220.256 330.47 407.649>
LayerCount: 2
Fore
SplineSet
92 -16 m 3
 197.118164062 -16 302.465929689 98.2617337635 372.305664062 278 c 0
 412.087890625 380.3828125 436.086914062 498.234375 482 586 c 1
 372 591 345 662 262 662 c 0
 211 662 187 638 187 603 c 0
 187 590 194 577 197 569 c 0
 201 557 205 549 205 543 c 0
 205 522 187 511 165 511 c 0
 146 511 136 534 136 554 c 0
 136 629 208 714 307 714 c 0
 406 714 465 650 499 623 c 1
 536 670 579 704 614 705 c 0
 639 706 657 692 657 665 c 0
 657 625 608 593 528 583 c 1
 492.108398438 465.12109375 486.411132812 354.229492188 450.971679688 258 c 0
 376.685546875 56.291015625 215.467773438 -47 69 -47 c 0
 -45 -47 -99 27 -99 105 c 3
 -99 190.005882149 -28 279 100 279 c 0
 151 279 176 251 176 223 c 0
 176 198 161 169 129 169 c 0
 110 169 96 179 87 189 c 0
 79 198 72 210 54 210 c 0
 -10 210 -62 155.035702904 -62 99 c 3
 -62 40.9913799509 -15 -16 92 -16 c 3
EndSplineSet
EndChar

StartChar: X
Encoding: 88 88 23
Width: 742
VWidth: 950
Flags: HW
HStem: -5 29<-16.1562 62.2952 193.533 252.641 373.032 433.421 584.519 652.641> 323 24<263.625 279.514> 622 31<177.593 238.933 344.534 424.556 538.355 580.84 690.464 790.13>
LayerCount: 2
Fore
SplineSet
-6 0 m 3xaf
 24.404671482 0 49.5419921875 60.142578125 63.900390625 92.25 c 0
 112.870702163 201.752289127 187.540039062 464.177734375 194.540039062 581.094726562 c 0
 196.677087443 616.788622105 190.527082743 639 171 639 c 3
 79 639 -49 618 -49 485 c 0
 -49 439 -20 423 17 417 c 0
 35 414 45 403 45 388 c 0
 45 370 31 347 -5 347 c 0
 -59 347 -93 399 -93 451 c 0
 -93 581 -29 670 211 670 c 0
 233.75 669.75 270.75 659.950195312 270.75 607.5 c 0
 270.75 586.799804688 265.576629121 543.720936088 239.400390625 428.450195312 c 0
 196.049804688 237.549804688 194.541600013 221.59144842 142.400390625 100.200195312 c 0
 104.900390625 12.8955078125 50.84375 -28 -29 -28 c 3
 -89 -28 -128 21 -128 55 c 0
 -128 83 -111 100 -94 100 c 0
 -73 100 -61 74 -58 53 c 0
 -55.1716072943 33.2012510599 -38.9967481716 0 -6 0 c 3xaf
586.650390625 612 m 0x37
 550.794921875 612 279.599609375 496.659312033 279.599609375 402.599609375 c 0
 279.599609375 377.73702519 310.26953125 285.381835938 358.036132812 198 c 0
 407.553710938 107.416015625 460.594726562 6 534 6 c 3
 577 6 622 51 622 77 c 0
 622 97 606 108 593 117 c 0
 582 125 570 134 570 155 c 0
 570 182 594 197 621 197 c 0
 671 197 691 162 691 122 c 0
 691 63 620.400390625 -20.900390625 502.400390625 -20.900390625 c 3
 415.168843749 -20.900390625 347.873046875 59.2666015625 296.834960938 150 c 0
 247.09765625 238.420898438 232.75 336.876472092 232.75 380.950195312 c 0
 232.75 522.258229993 597.618285456 669.816580019 658 670 c 0x77
 708 670 728 642 728 613 c 0x2f
 728 580 710 545 667 545 c 0
 644 545 626 557 618 574 c 0
 608.70037024 593.761713239 606 612 586.650390625 612 c 0x37
EndSplineSet
EndChar

StartChar: Y
Encoding: 89 89 24
Width: 490
Flags: HW
HStem: -36 68<333.117 520.955> 55 38<109.698 155.398> 531 21G<537.576 556.576> 640 29<442.517 521.322>
VStem: 564.097 80.4756<100.991 174.844>
LayerCount: 2
Fore
SplineSet
402.65234375 -32 m 0
 330.65234375 -32 216.883789062 -8 168.584960938 26 c 0
 148.160823939 40.3775881304 119.698242188 59 109.698242188 59 c 0
 103.698242188 59 75.642578125 32 57.0576171875 6 c 0
 42.53125 -14 23.591796875 -25 8.7685546875 -24 c 0
 -4.2314453125 -24 -12.46875 -14 -8.9423828125 6 c 0
 -1.712890625 47 49.2822265625 81 102.045898438 91 c 0
 108.221679688 92 111.103515625 97 115.162109375 103 c 0
 141.685546875 140 167.735351562 268.740234375 192.127929688 361 c 0
 232.579101562 514 329.91015625 669 480.91015625 669 c 0
 548.91015625 669 573.327148438 626 566.803710938 589 c 0
 561.336914062 558 540.576171875 531 512.576171875 531 c 0
 502.576171875 531 501.458007812 536 503.044921875 545 c 0
 504.103515625 551 506.513671875 559 507.924804688 567 c 0
 513.625 605 494.795898438 641 457.795898438 641 c 0
 385.795898438 641 329.467682863 536.982925666 284.834960938 358 c 0
 255.908203125 242 185.216796875 126 152.985351562 102 c 0
 149.6328125 100 148.3984375 93 155.3984375 93 c 0
 209.3984375 93 264.28515625 71.1328125 311.580078125 55 c 0
 362.120117188 37.7607421875 443.642578125 23 490.642578125 23 c 0
 538.642578125 23 578.345703125 49 589.577148438 73 c 0
 600.336914062 95.9921875 562.916992188 113.930664062 564.096679688 148 c 0
 564.758789062 167.115234375 585.446289062 182 605.446289062 182 c 0
 631.446289062 182 649.509765625 139 644.572265625 111 c 0
 632.052734375 40 538.65234375 -32 402.65234375 -32 c 0
EndSplineSet
EndChar

StartChar: Z
Encoding: 90 90 25
Width: 1167
VWidth: 950
Flags: HW
HStem: -14 21G<384.5 389> -3 29<-46.3379 35.9566 150.124 201.641 612.52 679.016 836.771 893.749> 625 33<213.03 308.648 956.801 1048.89>
VStem: 374 72<215.75 521.972> 378 76<151.022 504.172>
LayerCount: 2
Fore
SplineSet
944 35 m 3x76
 1007 35 1075 123 1085 133 c 0
 1089.50673577 137.506735767 1096.01855469 130.90625 1097 126 c 0
 1098 121 1096.14926911 115.894933902 1094 113 c 0
 1045 47 980 -29 897 -29 c 0x76
 836.696281978 -29 820.307617188 30.05078125 820.307617188 85.3779296875 c 3
 820.307617188 217.045898438 869.654296875 383.236328125 888.950195312 501.150390625 c 1
 768.799804688 338.349609375 659.122070312 183.034179688 512 38 c 0
 486.092678297 12.4603434201 467.422168051 14.044369212 457 50 c 0
 427.029296875 153.396484375 414.849609375 232.75 372.400390625 532.950195312 c 1
 344.849609375 392.349609375 294.075433108 263.7657574 257.450195312 169.549804688 c 0
 214.650390625 59.4501953125 132.849609375 -48.4501953125 8 -47 c 0
 -112.99155291 -45.5946180868 -149 27 -149 105 c 0
 -148 190 -78 279 50 279 c 0
 101 279 126 251 126 223 c 0
 126 198 111 171 79 171 c 0
 54 171 46 181 37 191 c 0
 29 200 22 219 4 219 c 0
 -60 219 -114 155.036132812 -114 99 c 3
 -114 40.9912109375 -84 -16 20 -16 c 3xa6
 98.9892578125 -16 175.604492188 51.53125 225 178.099609375 c 0
 303.150390625 378.349609375 341.489753797 534.523614533 354.349609375 625.099609375 c 0
 358.837585928 656.70983537 389.849609375 672.75 405.049804688 672.75 c 0
 418.549804688 672.75 431.581054688 662.448242188 435 635 c 0
 453.533203125 486.209960938 499.418945312 193.348632812 527.700195312 106.299804688 c 1
 669.106445312 251.767578125 820.7421875 462.377929688 941 644 c 0
 944.708613247 649.601016698 960.439453125 656.025390625 975 655 c 0
 987.045898438 654.151367188 1001.09863281 635.721679688 995 610 c 0
 982.399414062 556.859375 907 258.400390625 907 133.950195312 c 0
 907 100.94921875 912.142578125 35 944 35 c 3x76
EndSplineSet
EndChar

StartChar: bracketleft
Encoding: 91 91 26
Width: 799
VWidth: 950
Flags: HW
HStem: -14 21G<384.5 389> -3 29<-46.3379 35.9566 150.124 201.641 612.52 679.016 836.771 893.749> 625 33<213.03 308.648 956.801 1048.89>
VStem: 374 72<215.75 521.972> 378 76<151.022 504.172>
LayerCount: 2
Fore
SplineSet
907 704 m 3
 846.584960938 704 785.344726562 685.555664062 733.299804688 483.799804688 c 0
 683.665405536 291.388508933 671.821805948 238.961043079 622.549804688 17.099609375 c 0
 614.653177727 -18.45723699 586 -29.75 569.849609375 -29.75 c 0
 561.099609375 -29.75 546.351369114 -24.709081209 535.450195312 -11.900390625 c 0
 525.07917438 0.285379512407 499.118431698 36.7616282237 460.75 114.950195312 c 0
 406.599609375 225.299804688 318.299804688 495 296.450195312 566.25 c 1
 273.650390625 439.900390625 247 308.75 194.75 155.799804688 c 0
 174.256495915 95.8096524879 135.400390625 -48.900390625 17.9501953125 -48.4501953125 c 0
 -41.0493712648 -48.2240455965 -88 -19 -88 23 c 0
 -88 59 -66 77 -47 77 c 0
 -33 77 -27 58 -19 35 c 0
 -9.15533802974 6.69659683551 14 -7 46 -7 c 3
 90.3140352955 -7 113.757327666 40.3633486737 135.849609375 84.5498046875 c 0
 152.950195312 119.700195312 234.299804688 359.650390625 269.799804688 617.5 c 0
 271.489104875 629.770011082 273.353515625 649.19921875 286.849609375 660.75 c 0
 309.780273438 680.375 342.205432814 664.211309428 352.450195312 635.549804688 c 24
 397 508 419.93359375 435.2578125 466.400390625 307.799804688 c 0
 509 190.950195312 538.599609375 117.099609375 590.849609375 39.2001953125 c 1
 646.349609375 296.200195312 662.297582187 362.95491703 697.150390625 492.299804688 c 0
 744.696289062 668.750976562 796.349609375 743.150390625 935 745 c 0
 993.995117188 745.787109375 1054 706 1054 664 c 0
 1054 628 1030 610 1011 610 c 0
 1002 610 996 629 985 652 c 0
 972 679 938 704 907 704 c 3
EndSplineSet
EndChar

StartChar: backslash
Encoding: 92 92 27
Width: 816
Flags: HW
HStem: -14 31<243.188 379.837> 636 28<397.737 522.924>
VStem: 78 85<120.993 344.408> 608 85<296.566 527.326>
LayerCount: 2
Fore
SplineSet
755.25 434.099609375 m 0
 755.25 147.200195312 498.799804688 -20.900390625 308.799804688 -20.900390625 c 0
 155.849609375 -20.900390625 55.099609375 125.950195312 55.099609375 266.549804688 c 0
 55.099609375 551.549804688 294 659.75 348.299804688 682.75 c 0
 366.485351562 690.453125 380.799804688 685.799804688 380.799804688 676.099609375 c 0
 380.799804688 666.75 374.099609375 660.599609375 358.150390625 652.150390625 c 0
 256.375976562 598.234375 140.75 420.799804688 140.75 258.349609375 c 0
 140.75 117.75 199.450195312 9.2998046875 333.400390625 9.2998046875 c 0
 514.849609375 9.2998046875 668.599609375 241.349609375 668.599609375 432.299804688 c 0
 668.599609375 558.650390625 622.75 642.549804688 536.799804688 642.549804688 c 0
 487.799804688 642.549804688 449.163085938 624.817382812 410.099609375 582.650390625 c 0
 378 548 369 516 365.75 479.299804688 c 0
 361.58781907 432.298926824 365.299804688 404.599609375 336.799804688 387.5 c 0
 328.40234375 382.461914062 280.25 374.48770893 280.25 420.849609375 c 0
 280.25 449.5 317.085838358 529.8772614 385.400390625 600.150390625 c 0
 429 645 482.549804688 669.75 551.400390625 669.75 c 0
 655.400390625 669.75 755.25 563.299804688 755.25 434.099609375 c 0
EndSplineSet
EndChar

StartChar: bracketright
Encoding: 93 93 28
Width: 742
VWidth: 950
Flags: HW
HStem: -5 29<1.84375 82.063 216.401 278.641> 254 26<305.021 390.915> 630 22<177.044 239.955 363.604 442.345>
VStem: 535 85<387.882 561.288>
LayerCount: 2
Fore
SplineSet
40 -55 m 3xf7
 -26 -55 -79 0 -79 32 c 0
 -79 60 -56 77 -39 77 c 4
 -18 77 3.990234375 61.724609375 7 40 c 0xfb
 11.828125 5.154296875 35.3251953125 -24.205078125 59.3544921875 -24.205078125 c 0
 114.20703125 -24.205078125 175.184570312 127.741210938 204 247 c 0
 244.021484375 412.638671875 266.657226562 597.534179688 268.849609375 621.650390625 c 1
 177.743164062 621.650390625 44 570.852539062 44 479 c 0
 44 433 70 410 107 404 c 0
 125 401 135 391 135 376 c 0
 135 358 121 334 85 334 c 0
 31 334 0 393 0 445 c 0
 0 575 118 652 338 652 c 0
 500.492211097 648.156807899 682.299804688 631.943359375 682.299804688 467.799804688 c 0
 682.299804688 311.049804688 495.349609375 194.75 317.700195312 194.75 c 0
 295.299804688 194.75 288.650390625 210.75 287.650390625 220.400390625 c 0
 286.769154943 228.904659192 291.123171411 243.857774985 303 252 c 0
 311.767637272 258.010701845 327.048828125 262.3984375 340 256 c 0
 354.248046875 248.9609375 352.493164062 235.90625 374.249023438 235.90625 c 0
 563.456054688 235.90625 591.650390625 389.86328125 591.650390625 459 c 0
 591.650390625 584.3671875 476.794921875 621.650390625 346.700195312 621.650390625 c 1
 340.049804688 564.650390625 325 475 300 355 c 0
 277.373494858 246.392775316 262 166 215.049804688 72.2998046875 c 0
 160.741465887 -36.0853025264 98.365234375 -55 40 -55 c 3xf7
EndSplineSet
EndChar

StartChar: asciicircum
Encoding: 94 94 29
Width: 766
Flags: HW
HStem: -288 30<689 746.5 689 766> -229 34<-40 45.5> 3 35<-54.5 32> 150 39<264 322.5 264 337> 633 33<377 498>
VStem: -216 77<-119.5 -75.5 -119.5 -62> 92 82<306 443> 405 78<262 377.5> 628 87<335.5 490.5 322 497> 800 69<-217 -139>
LayerCount: 2
Fore
SplineSet
280 123 m 0
 181 123 92 231 92 353 c 0
 92 553 276 666 450 666 c 0
 620 666 717 554 717 393 c 0
 717 204.534179688 527.690429688 17.0654296875 318.29296875 -39.9296875 c 5
 458.751953125 -97.3818359375 584.814453125 -198 670 -198 c 0
 723 -198 750 -170 750 -144 c 0
 750 -124 734 -113 721 -104 c 0xffc0
 710 -96 698 -87 698 -66 c 0
 698 -39 722 -24 749 -24 c 0
 799 -24 819 -59 819 -99 c 0
 819 -158 767 -228 665 -228 c 0xffc0
 494.908203125 -228 388.119140625 -116.241210938 246.3984375 -64.9609375 c 1
 208.244140625 -75.275390625 167.040039062 -85 125 -85 c 0x7fc0
 83 -85 50 -62.1103515625 50 -44 c 0
 50 -7 100 6 136 7 c 0
 181.204101562 8.255859375 228.826171875 -9.9462890625 270.6171875 -22.6396484375 c 1
 482.124023438 18.439453125 630 203.866210938 630 412 c 0
 630 548 551 637 445 637 c 0
 309 637 174 526 174 377 c 0
 174 243 231 154 307 154 c 0
 366 154 405 210 405 274 c 0
 405 296 391 309 381 323 c 0
 373 334 365 349 365 362 c 0
 365 395 384 424 417 424 c 0
 460 424 483 383 483 332 c 0
 483 239 418 123 280 123 c 0
EndSplineSet
EndChar

StartChar: underscore
Encoding: 95 95 30
Width: 742
VWidth: 950
Flags: HW
HStem: -5 29<3.84375 84.063 213.132 268.641 565.334 633.361> 298 20<293.408 339> 622 31<176.117 268.126> 630 22<372.264 452.371>
VStem: 524 83<421.626 578.4>
LayerCount: 2
Fore
SplineSet
239.849609375 75.2001953125 m 0x77
 207 -12 135.84375 -43 76 -43 c 3
 6 -43 -41 18 -41 40 c 0
 -41 68 -24 85 -7 85 c 0
 10 85 28 68 37 48 c 0
 45.20703125 29.76171875 59.0009765625 -13 91 -13 c 3xbb
 122.401367188 -13 150 10 172 78 c 0
 218.840921256 222.781029336 266 379 266 615 c 1
 209 610 63 593 63 520 c 3
 63 474 85.516670372 452 123 452 c 3
 141.248287591 452 151 436 151 421 c 3
 151 403 137 382 101 382 c 3
 47 382 13 434 13 486 c 3
 13 616 195.557617188 648 364 648 c 27
 493.124023438 648 641.349609375 615.849609375 641.349609375 497.099609375 c 0
 641.349609375 389.75 553.099609375 323.950195312 427.700195312 282.150390625 c 1
 454.400390625 251.75 481.1328125 201.732421875 506.049804688 156.75 c 0
 549.200195312 78.849609375 597.642578125 11 640 11 c 3
 693 11 717 59 717 85 c 0
 717 105 701 116 688 125 c 0
 677 133 665 142 665 163 c 0
 665 190 689 205 716 205 c 0
 766 205 786 170 786 130 c 0
 786 71 719 -19 606 -19 c 0
 545 -19 498.992116567 13.7648719809 450.400390625 110.200195312 c 0
 404.080152804 202.127514717 387 229 349.599609375 260.299804688 c 0
 340.885412026 267.592580792 338.876971442 283.670506618 347 296 c 0
 352.47265625 304.306640625 373.33984375 308.2109375 390.5 308.549804688 c 0
 552.0390625 311.736328125 565.700195312 437.349609375 565.700195312 485.299804688 c 0
 565.700195312 550.892578125 494.049804688 618.650390625 347.700195312 618.650390625 c 1
 324.900390625 339.349609375 287.162109375 200.79296875 239.849609375 75.2001953125 c 0x77
EndSplineSet
EndChar

StartChar: grave
Encoding: 96 96 31
Width: 573
Flags: HW
HStem: -21 44<148.373 365.666> 213 76<132.712 215.469> 486 21G<525.576 544.576> 629.55 40.2002<362.045 501.964>
VStem: 31 39<74.4036 183.946> 176.35 89.6504<418.346 549.77> 467.95 101.649<117.45 253.448>
LayerCount: 2
Fore
SplineSet
259 13 m 0
 380 13 480 68 480 169 c 0
 480 253 403.1171875 285.94140625 335 320 c 0
 277 349 176 409 176 490 c 3
 176 599 299 670 426 670 c 0
 471 670 521.762845157 657.177046335 561 629 c 0
 596.3515625 603.61328125 619 574 611 533 c 0
 602.097342723 487.373881456 572 474 544 474 c 0
 534 474 532 479 534 488 c 0
 535 494 540 504 541 512 c 0
 550 569 511 640 415 640 c 0
 330 640 257 577 257 497 c 3
 257 426.026537683 301 379 360 351 c 0
 432.645507812 316.524414062 570 262 570 171 c 0
 570 47 419 -21 254 -21 c 3
 137 -21 31 33 31 128 c 0
 31 206 106.994117851 289 202 289 c 3
 249.010637094 289 310 270 310 225 c 0
 310 205 291 167 263 167 c 0
 250 167 229 186 200 199 c 0
 184 207 166 213 145 213 c 0
 100 213 70 173 70 125 c 0
 70 52 157 13 259 13 c 0
EndSplineSet
EndChar

StartChar: a
Encoding: 97 97 32
Width: 736
Flags: HW
HStem: -5 27<123.496 201.158 346.086 404.807> 504 21G<125 134.5 683.5 690.5> 614 28<227.805 389.601 477.889 648.863> 646 20G<184.5 189.5 731.5 738> 646 20G<184.5 189.5 731.5 738>
VStem: 674 25<497.114 562.589>
LayerCount: 2
Fore
SplineSet
189.892578125 -0.494140625 m 3
 228.00390625 -0.494140625 260 35 283 93 c 0
 316.240404805 176.823629508 319.651367188 233.416992188 338 317 c 0
 362.65234375 429.297851562 384.552258453 536.036938405 407 608 c 1
 365 616 323 628 282 628 c 0
 160 628 101 568 101 510 c 0
 101 468 141 432 170 432 c 0
 176 432 182 439 189 446 c 0
 196 453 204 460 216 460 c 0
 235 460 244 446 244 431 c 0
 244 413 218 394 182 394 c 0
 108 394 63 446 63 507 c 0xfa
 63 581 130 664 297 664 c 0
 442 664 624 614 718 614 c 1
 711 635 702 649 702 662 c 0
 702 682 723 693 743 693 c 0
 757 693 772 678 772 659 c 0
 772 630 721 556 632 556 c 0
 584 556 524 578 467 594 c 1
 449.649414062 525.009765625 449 414 420.494140625 290 c 0
 395.807761379 182.614673139 354.260742188 104.497070312 325 62 c 0
 283 1 237.299804688 -30.400390625 191.299804688 -30.400390625 c 0
 138.666015625 -30.400390625 89.150390625 -3.9794921875 89.150390625 50.599609375 c 4
 89.150390625 79.7001953125 106.349609375 108.150390625 135.200195312 108.150390625 c 0
 160.892578125 108.150390625 178 91.3984375 178 71 c 0
 178 43 152 47.4912109375 152 28 c 0
 152 10.44921875 170.993164062 -0.494140625 189.892578125 -0.494140625 c 3
EndSplineSet
EndChar

StartChar: b
Encoding: 98 98 33
Width: 774
VWidth: 950
Flags: HW
HStem: -14 40<246.715 412.423> 620 33<163.558 213.343 321.853 385.113 594.851 656.354 752.997 824.206>
LayerCount: 2
Fore
SplineSet
446.400390625 97.150390625 m 0x7c
 439.059570312 63.3642578125 454.448242188 25 483 25 c 3
 535 25 622 134 632 144 c 0
 636.506735767 148.506735767 643 141.003798673 643 136 c 0
 643 131 641 125 639 122 c 0
 587 59 532 -38 429 -38 c 0xbc
 387.497070312 -38 364.400390625 -7.0048828125 364.400390625 29.900390625 c 3
 364.400390625 121.026367188 400.75 206.150390625 422.599609375 285.950195312 c 1
 421.650390625 285.950195312 l 1
 369.271513687 185.896875756 230.230503057 -20.900390625 99.7998046875 -20.900390625 c 0
 28.5498046875 -20.900390625 -31.2001953125 35.150390625 -31.2001953125 125.950195312 c 0
 -31.2001953125 171.42578125 14.9755859375 265.995117188 61.001953125 366 c 0
 98.482421875 447.435546875 144.223346254 525.84336767 139.650390625 561.450195312 c 0
 136.867443634 583.11931303 120.053710938 607 61 607 c 3
 -31 607 -142 552 -142 479 c 0
 -142 433 -119 417 -82 411 c 0
 -64 408 -54 395 -54 380 c 0
 -54 362 -68 341 -104 341 c 0
 -158 341 -192 393 -192 445 c 0
 -192 575 -64 650 176 650 c 0
 191.900390625 648.849609375 222.299804688 646.950195312 222.299804688 603.25 c 0
 222.299804688 489.234023139 66.1865234375 220.478515625 48.4501953125 137.75 c 0
 34.4501953125 72.4501953125 71.4501953125 22.2998046875 130.349609375 22.2998046875 c 0
 242.450195312 22.2998046875 430 311 504.299804688 539.599609375 c 0
 509.222323201 554.744814855 536.521484375 628.12890625 539 634 c 0
 548.578125 656.686523438 604.799804688 671.3515625 608.799804688 642.200195312 c 0
 609.57421875 636.552734375 597.400390625 598.5 584.099609375 566.200195312 c 0
 559.400390625 507.299804688 487 284 446.400390625 97.150390625 c 0x7c
EndSplineSet
EndChar

StartChar: c
Encoding: 99 99 34
Width: 827
VWidth: 950
Flags: HW
HStem: -14 21G<183 199.5> 623 33<168.271 233.167 347.607 424.951 575.041 618.719 736.387 809.183>
LayerCount: 2
Fore
SplineSet
119.049804688 619.650390625 m 3x70
 -9.0009765625 619.650390625 -38.0922537926 526.742449557 -39 477.094726562 c 0
 -39.4140625 454.448242188 -61.00390625 439.528320312 -74 439.528320312 c 3
 -92.1865234375 439.528320312 -110.099609375 453.549804688 -110.099609375 474.25 c 0
 -110.099609375 518.049804688 -32.5498046875 652.849609375 153.650390625 652.849609375 c 0x70
 403.421875 652.849609375 293.594726562 183.140625 270 46.7001953125 c 1
 482 241 600.400390625 417.049804688 600.400390625 477.849609375 c 0
 600.400390625 499.700195312 589 551 521.549804688 559.549804688 c 0
 511.099609375 560.5 495.299804688 572.5 495.299804688 596.75 c 0
 495.299804688 629.049804688 520.599609375 648.849609375 549.099609375 648.849609375 c 0xb0
 592.799804688 648.849609375 643.150390625 611.799804688 643.150390625 537.700195312 c 0
 643.150390625 479.75 621 417 580.349609375 355.349609375 c 0
 447.75222075 154.252383028 225.2893643 -39.5509557376 218 -41.7001953125 c 0
 197.650390625 -47.7001953125 180.413085938 -31.451171875 183.299804688 -16.150390625 c 0
 219.649414062 176.537109375 317.5859375 619.650390625 119.049804688 619.650390625 c 3x70
EndSplineSet
EndChar

StartChar: d
Encoding: 100 100 35
Width: 827
VWidth: 950
Flags: HW
HStem: -14 21G<195.5 215 553 579> 623 33<168.512 253.042 357.489 438.968 534.732 615.724 733.437 823.183 935.044 989.704 1115.68 1193.18>
VStem: 632 192<560.5 647>
LayerCount: 2
Fore
SplineSet
9 474.094726562 m 0
 3.91804194509 445.280441222 -15.99609375 437.434570312 -26.853515625 437.434570312 c 0
 -43.982421875 437.434570312 -60.099609375 451.635742188 -60.099609375 471.25 c 7
 -60.099609375 515.095443214 -12.5498046875 649.849609375 173.650390625 649.849609375 c 0xbc
 267.178688537 649.849609375 294.828491718 574.983773765 294.828491718 479.60570733 c 0
 294.828491718 354.797450026 254.482421875 177.865234375 235.450195312 104.599609375 c 1
 380.799804688 274.650390625 515.400390625 531.650390625 543.400390625 582.950195312 c 1
 537 617 548 655 581.400390625 659.849609375 c 0
 608.658203125 663.807617188 625 649 629.599609375 609.650390625 c 0
 648.873046875 444.767578125 620 222 573.849609375 35.2998046875 c 0
 570.952148438 23.578125 572.934570312 16.2373046875 576.700195312 17.25 c 0
 636.736328125 33.38671875 763.805664062 159.72265625 830.733398438 262 c 0
 895.03084133 360.25779597 929 456.111328125 929 487.349609375 c 0
 929 508.25 922.663994013 548.47805079 872 559.549804688 c 0
 858.5 562.5 844.88335933 574.670031743 847.75 598.75 c 0
 850.75 623.950195312 872.950195312 648.849609375 898.599609375 648.849609375 c 0xdc
 937.549804688 648.849609375 985.75 613.700195312 985.75 547.200195312 c 0
 985.75 356.8046875 682.72261904 -34.5652022231 514.049804688 -43.7001953125 c 0
 491.233241771 -44.9358961892 478.241040863 -29.8206328448 486.299804688 -1.900390625 c 0
 539.84926424 183.626064043 569.466796875 334.049804688 558.599609375 542.200195312 c 1
 480.700195312 399.700195312 402.799804688 259.349609375 224.200195312 38 c 0
 201.400390625 8.5498046875 159.650390625 -41.7001953125 142.049804688 -41.7001953125 c 0
 119.670898438 -41.7001953125 112.596679688 -15.97265625 121.099609375 1.0498046875 c 0
 151.123046875 61.154296875 217.803710938 285.889648438 217.803710938 442.12890625 c 0
 217.803710938 500.741210938 212.705078125 616.677734375 117.424804688 616.677734375 c 0
 5.552734375 616.677734375 17.810546875 524.049804688 9 474.094726562 c 0
EndSplineSet
EndChar

StartChar: e
Encoding: 101 101 36
Width: 874
Flags: HW
HStem: -5 33<-59.3006 34.1781 150.977 197.959 296.069 365.017 496.876 577.02> 622 33<133.227 211.251 323.821 401.625 495.161 543.346 653.556 730.789>
LayerCount: 2
Fore
SplineSet
603 1 m 3xd2
 530.893554688 1 468.80527319 33.165955657 443.950195312 134.900390625 c 0
 430 192 418 250 406.900390625 303.349609375 c 1
 344.200195312 269.150390625 249.849609375 208.049804688 223.25 191.900390625 c 0
 132.049804688 132.049804688 132.049804688 118.75 132.049804688 95.9501953125 c 0
 132.049804688 77.8305099856 153.049804688 73.009765625 153.049804688 33.5498046875 c 0
 153.049804688 9.2998046875 123.5 -8 95.9501953125 -8 c 0
 72.2001953125 -8 49.400390625 15.2001953125 49.400390625 54.150390625 c 0xd6
 49.400390625 78.849609375 51.2998046875 110.200195312 161.5 186.200195312 c 0
 228 231.799804688 298.400390625 276.75 400.049804688 335.650390625 c 1
 366.950195312 486.400390625 l 2
 348.311523438 573.934570312 319.091796875 598.849609375 265.150390625 598.849609375 c 27
 164.8828125 598.849609375 89.150390625 511.849609375 89.150390625 441.849609375 c 0
 89.150390625 395.849609375 112.150390625 379.849609375 149.150390625 373.849609375 c 0
 167.150390625 370.849609375 177.150390625 357.849609375 177.150390625 342.849609375 c 0
 177.150390625 324.849609375 163.150390625 303.849609375 127.150390625 303.849609375 c 0
 73.150390625 303.849609375 39.150390625 355.849609375 39.150390625 407.849609375 c 0
 39.150390625 537.849609375 180.774414062 640 308 640 c 0xe8
 385 640 416.89902182 583.71328809 434.599609375 518 c 0
 449.6875 461.986328125 458 414 467.75 370.099609375 c 1
 537.099609375 408.099609375 611.940397541 457.684428764 622.25 464.549804688 c 0
 689 509 703 531.049804688 703 552.900390625 c 0
 703 576.019737449 684 570.841796875 684 612.299804688 c 0
 684 636.549804688 710.599609375 654.849609375 739.099609375 654.849609375 c 0
 762.849609375 654.849609375 785.650390625 633.650390625 785.650390625 594.700195312 c 0xd9
 785.650390625 566.200195312 779 538.650390625 684 470.25 c 0
 623.200195312 426.549804688 523 366.299804688 474.549804688 337.799804688 c 1
 509.599609375 181.450195312 l 2
 525.966540349 108.440850831 547.705628317 26 609 26 c 3
 662 26 702 68 702 105 c 0
 702 127 685 129 672 137 c 0
 663 143 656 151 656 168 c 0
 656 193 679 212 702 212 c 0
 754 212 778 174 778 138 c 0
 778 79 706 1 603 1 c 3xd2
EndSplineSet
EndChar

StartChar: f
Encoding: 102 102 37
Width: 766
Flags: HW
HStem: -5 29<99.8438 176.653 322.55 380.641> 620 33<140.308 200.809 306.885 378.642 500.633 551.984 658.286 728.67>
LayerCount: 2
Fore
SplineSet
103 -131 m 3xf380
 -8.9990234375 -131 -51 -59 -51 0 c 0
 -51 40 -31 85 19 85 c 0
 46 85 80 60 80 33 c 0
 80 2 66 -12 52 -20 c 0
 38.2718705403 -27.8446454055 18 -25 18 -45 c 0xf580
 18 -71 45 -94 98 -94 c 0
 177.349609375 -94 260 -34 315 14.400390625 c 1
 320.0078125 63.447265625 323.799804688 133.200195312 323.799804688 150.099609375 c 3
 323.799804688 353.447265625 323.780273438 612.650390625 135.049804688 612.650390625 c 3
 72.287109375 612.650390625 75 521 79 472.094726562 c 0
 80.2759243477 456.494869285 62.03515625 432.528320312 39 432.528320312 c 3
 25.0078125 432.528320312 -5.099609375 441.134765625 -5.099609375 470.25 c 0
 -5.099609375 514.049804688 20.4501953125 647.849609375 176.650390625 647.849609375 c 0xeb80
 424.25 647.849609375 403.950195312 289.75 403.950195312 185.25 c 0
 403.950195312 155.799804688 399.950195312 112.5 398.049804688 83.0498046875 c 1
 432.962890625 116.98828125 500.430664062 189.234375 551.920898438 270 c 0
 611.138671875 362.887695312 651.450195312 460.108398438 651.450195312 493.049804688 c 3
 651.450195312 520.549804688 639 559 576.650390625 572.849609375 c 0
 564.871084063 575.466126082 554.25 583.700195312 554.25 606.049804688 c 0
 554.25 626.5 574.75 648.849609375 602.299804688 648.849609375 c 0
 643.150390625 648.849609375 703.400390625 611.599609375 703.400390625 533.700195312 c 0
 703.400390625 486.200195312 651 293 447 77 c 0
 343.766601562 -32.306640625 196.557617188 -131 103 -131 c 3xf380
EndSplineSet
EndChar

StartChar: g
Encoding: 103 103 38
Width: 704
VWidth: 950
Flags: HW
HStem: -5 37<121.562 437.185> 493 21G<141 149.5> 617 29<340.776 542.002>
LayerCount: 2
Fore
SplineSet
817 645 m 0
 817 597 754 567 673 564 c 1
 520.750536206 394.969314437 370.584520261 223.466366169 195 82 c 1
 291 112 367 94 436 67 c 0
 523.009765625 32.9521484375 554 9 607 9 c 0
 649 9 689 54 689 93 c 0
 689 110 675 127 675 141 c 0
 675 158 700 176 715 176 c 0
 739 176 754 156 754 134 c 0
 754 65 665 -39 570 -39 c 0
 502 -39 437 -27 368 0 c 0
 269.706054688 38.462890625 218 56 160 35 c 1
 128 15 119.464931602 -10.424848033 99 -30 c 0
 76 -52 35 -38 35 -13 c 0
 35 15 78 48 139 70 c 1
 319.198630731 229.233526682 477.61870531 395.471231427 626 565 c 1
 520 568 456 639 365 640 c 0
 314.003079059 640.560405725 291 616 291 564 c 0
 291 547.799030538 302 541.939348069 302 527 c 0
 302 506 283 494 264 494 c 0
 245 494 236 514 236 534 c 0
 236 609 308.080709277 690.003260981 407 694 c 0
 506 698 623 647 665 609 c 1
 700 654 743 686 778 685 c 0
 801 684 817 671 817 645 c 0
398.049804688 332.5 m 1
 307.799804688 332.5 l 2
 290.700195312 332.5 283.099609375 339.5 283.099609375 348.049804688 c 0
 283.099609375 353.849609375 295.549804688 375.25 318.75 375.25 c 2
 443.650390625 375.25 l 2
 470.255693056 375.70103161 539.625976562 374.299804688 569.650390625 374.299804688 c 3
 598.473632812 374.299804688 578.825195312 332.5 552.200195312 332.5 c 0
 398.049804688 332.5 l 1
EndSplineSet
EndChar

StartChar: h
Encoding: 104 104 39
Width: 491
Flags: W
HStem: -14 63<65.4902 136.918 304.984 368.084> 353 56<255.559 330.373> 406 20G<371.877 382.877>
VStem: 349.081 65.0029<380.004 416.228>
LayerCount: 2
Fore
SplineSet
68.123046875 -14 m 0xb0
 43.123046875 -14 14.810546875 8 12.498046875 30 c 0
 5.0361328125 101 69.94921875 216 172.543945312 315 c 0
 237.921875 378 279.6640625 409 300.6640625 409 c 0xd0
 310.6640625 409 322.294921875 403 330.135742188 395 c 0
 350.658203125 371 342.711914062 380 343.711914062 380 c 0
 345.711914062 380 347.501953125 382 349.081054688 386 c 0
 364.717773438 418 366.40234375 421 362.927734375 416 c 1
 366.192382812 423 369.876953125 426 373.876953125 426 c 0
 391.876953125 426 413.033203125 415 414.083984375 405 c 0
 414.504882812 401 413.240234375 394 409.711914062 380 c 2
 328.927734375 83 l 2
 323.134765625 62 329.500976562 49 345.500976562 49 c 0
 369.500976562 49 405.768554688 75 427.1953125 109 c 0
 428.879882812 112 432.669921875 114 435.669921875 114 c 0
 440.669921875 114 442.985351562 111 443.826171875 103 c 0
 444.771484375 94 425.345703125 60 407.447265625 40 c 0
 373.125976562 5 336.123046875 -14 304.123046875 -14 c 0
 283.123046875 -14 259.020507812 6 257.0234375 25 c 0
 256.393554688 31 257.447265625 40 260.606445312 48 c 1
 251.12890625 24 280.985351562 111 296.5703125 153 c 0
 302.098632812 167 300.047851562 177 292.994140625 168 c 0
 185.288085938 32 128.123046875 -14 68.123046875 -14 c 0xb0
117.500976562 49 m 0
 146.500976562 49 203.140625 100 266.997070312 187 c 0
 310.795898438 246 337.225585938 299 334.703125 323 c 0
 334.177734375 328 327.336914062 336 319.706054688 342 c 0
 311.075195312 348 300.549804688 353 293.549804688 353 c 0
 269.549804688 353 223.4921875 325 192.9609375 292 c 0
 132.79296875 227 80.0927734375 129 84.927734375 83 c 0
 87.0302734375 63 100.500976562 49 117.500976562 49 c 0
EndSplineSet
EndChar

StartChar: j
Encoding: 106 106 40
Width: 313
Flags: W
HStem: -15 56<108.459 195.147> 387 27<187.092 271.455>
VStem: 26.5088 285.31
LayerCount: 2
Fore
SplineSet
121.544921875 -15 m 0
 85.544921875 -15 32.025390625 28 26.5087890625 90 c 0
 15.896484375 210 83.455078125 414 253.455078125 414 c 0
 289.455078125 414 310.03125 399 311.818359375 382 c 0
 314.130859375 360 300.96875 333 286.96875 333 c 0
 275.96875 333 268.8125 344 260.446289062 357 c 0
 250.869140625 372 238.29296875 387 216.29296875 387 c 0
 152.29296875 387 86.1064453125 208 97.66796875 98 c 0
 102.29296875 54 122.659179688 41 151.659179688 41 c 0
 194.659179688 41 212.662109375 60 236.139648438 84 c 0
 244.193359375 93 246.7734375 97 254.7734375 97 c 0
 260.7734375 97 263.404296875 91 264.139648438 84 c 0
 266.346679688 63 202.544921875 -15 121.544921875 -15 c 0
EndSplineSet
EndChar

StartChar: k
Encoding: 107 107 41
Width: 516
Flags: W
HStem: -14 68<351.785 411.208> -14 47<105.39 184.383> 388 32<252.134 317.871> 685 20G<466.715 474.215>
VStem: 314.056 63.2695<54.0051 147.273> 408.993 74.6934<631 691>
LayerCount: 2
Fore
SplineSet
482.103515625 668 m 2x7c
 379.067382812 107 l 2
 377.223632812 96 376.274414062 86 377.325195312 76 c 0
 378.90234375 61 383.637695312 54 393.637695312 54 c 0
 419.637695312 54 461.274414062 86 484.385742188 123 c 0
 486.96484375 127 488.860351562 128 491.860351562 128 c 0
 496.860351562 128 499.17578125 125 498.701171875 120 c 0
 502.6953125 82 405.78515625 -14 362.78515625 -14 c 0xbc
 340.78515625 -14 316.3671875 9 314.055664062 31 c 0
 313.529296875 36 314.00390625 41 315.322265625 57 c 0
 318.010742188 79 323.860351562 128 324.704101562 139 c 0
 324.7578125 148 321.232421875 153 317.86328125 147 c 0
 238.055664062 31 179.78515625 -14 107.78515625 -14 c 0
 68.78515625 -14 39.7373046875 15 35.2177734375 58 c 0
 27.3349609375 133 68.5625 245 132.944335938 327 c 0
 178.743164062 386 231.169921875 420 274.169921875 420 c 0
 291.169921875 420 294.274414062 419 333.796875 395 c 0
 352.953125 384 359.268554688 381 360.479492188 379 c 2
 363.743164062 386 l 1
 407.094726562 611 l 2
 409.413085938 627 409.413085938 627 408.993164062 631 c 0
 407.521484375 645 399.680664062 653 377.83984375 661 c 0
 346.788085938 671 346.788085938 671 346.368164062 675 c 0
 345.421875 684 354.896484375 689 378.4765625 693 c 0
 418.845703125 699 463.21484375 705 470.21484375 705 c 0
 478.21484375 705 482.740234375 700 483.686523438 691 c 0
 484.421875 684 484.158203125 677 482.103515625 668 c 2x7c
139.844726562 33 m 0x7c
 228.844726562 33 359.505859375 217 348.049804688 326 c 0
 343.950195312 365 323.533203125 388 291.533203125 388 c 0
 215.533203125 388 90.5 179 101.8515625 71 c 0
 104.899414062 42 113.844726562 33 139.844726562 33 c 0x7c
EndSplineSet
EndChar

StartChar: l
Encoding: 108 108 42
Width: 341
Flags: W
HStem: -15 54<111.688 207.854> 389 25<211.241 267.037>
VStem: 25.6143 306.622
LayerCount: 2
Fore
SplineSet
128.544921875 -15 m 0
 85.544921875 -15 30.5537109375 42 25.6142578125 89 c 0
 11.5302734375 223 110.455078125 414 252.455078125 414 c 0
 299.455078125 414 328.662109375 393 332.236328125 359 c 0
 341.064453125 275 227.743164062 240 118.950195312 219 c 0
 111.161132812 217 107.161132812 217 105.001953125 209 c 0
 98.0498046875 180 90.9384765625 143 94.1962890625 112 c 0
 99.13671875 65 119.869140625 39 154.869140625 39 c 0
 202.869140625 39 231.715820312 69 251.193359375 93 c 0
 257.352539062 101 263.037109375 104 268.037109375 104 c 0
 274.037109375 104 278.458007812 100 279.088867188 94 c 0
 279.298828125 92 279.614257812 89 277.9296875 86 c 0
 244.760742188 21 193.544921875 -15 128.544921875 -15 c 0
123.533203125 242 m 0
 153.533203125 242 282.854492188 277 274.446289062 357 c 0
 272.659179688 374 261.083007812 389 244.083007812 389 c 0
 189.083007812 389 112.749023438 278 115.90234375 248 c 0
 116.533203125 242 118.533203125 242 123.533203125 242 c 0
EndSplineSet
EndChar

StartChar: m
Encoding: 109 109 43
Width: 321
Flags: W
HStem: -290 40<-72.5826 1.00714> 362 38<49.4275 133.03 210.086 312.709> 585 21G<417.376 431.376> 665 41<287.155 375.979>
VStem: 391.276 66.7393<589.98 650.779>
LayerCount: 2
Fore
SplineSet
-58.658203125 -290 m 0
 -108.658203125 -290 -143.4453125 -273 -146.913085938 -240 c 0
 -149.015625 -220 -125.328125 -198 -112.328125 -198 c 0
 -102.328125 -198 -91.8564453125 -212 -77.384765625 -226 c 0
 -64.0185546875 -239 -46.8623046875 -250 -22.8623046875 -250 c 0
 15.1376953125 -250 31.509765625 -225 52.9482421875 -115 c 2
 139.231445312 339 l 6
 141.865234375 352 137.33984375 357 123.33984375 357 c 6
 61.4443359375 356 l 6
 52.4443359375 356 47.9189453125 361 47.18359375 368 c 4
 46.02734375 379 53.5556640625 393 63.4501953125 394 c 6
 133.030273438 398 l 6
 141.924804688 399 148.189453125 406 149.927734375 418 c 6
 154.564453125 450 l 2
 182.594726562 640 286.658203125 706 356.658203125 706 c 0
 415.658203125 706 453.706054688 677 458.015625 636 c 0
 461.588867188 602 440.375976562 585 422.375976562 585 c 0
 412.375976562 585 403.588867188 602 391.276367188 624 c 0
 376.438476562 651 356.967773438 665 327.967773438 665 c 0
 270.967773438 665 252.225585938 634 225.994140625 503 c 0
 220.7265625 477 218.0390625 455 212.771484375 429 c 4
 210.823242188 419 209.138671875 416 209.874023438 409 c 4
 210.609375 402 214.8203125 400 220.8203125 400 c 4
 260.8203125 400 296.504882812 403 330.504882812 403 c 4
 334.504882812 403 337.8203125 400 338.661132812 392 c 4
 339.606445312 383 330.708984375 363 312.708984375 363 c 6
 221.813476562 362 l 6
 207.813476562 362 200.234375 358 198.49609375 346 c 4
 167.366210938 195 139.552734375 41 116.422851562 -110 c 0
 99.6689453125 -217 -2.658203125 -290 -58.658203125 -290 c 0
EndSplineSet
EndChar

StartChar: n
Encoding: 110 110 44
Width: 415
Flags: W
HStem: -290 30<81.9723 236.438> 77 24<133.776 175.054> 346 58<314.614 407.22> 358 33<305.983 381.774> 386 28<185.204 240.758>
LayerCount: 2
Fore
SplineSet
149.997070312 -290 m 0xd0
 32.9970703125 -290 -63.41796875 -248 -70.564453125 -180 c 0
 -75.294921875 -135 28.5009765625 -95 116.348632812 -65 c 0
 121.137695312 -63 121.822265625 -60 117.40234375 -56 c 0
 84.7744140625 -31 65.0927734375 -15 62.8857421875 6 c 0
 60.888671875 25 80.681640625 46 106.474609375 67 c 0
 112.84375 73 113.423828125 77 113.212890625 79 c 0
 113.002929688 81 109.79296875 83 104.583007812 85 c 0
 61.48046875 105 47.5380859375 133 42.8076171875 178 c 0
 33.3486328125 268 103.002929688 414 210.002929688 414 c 0xc8
 238.002929688 414 248.84375 406 257.264648438 402 c 0
 266.790039062 397 276.420898438 391 286.420898438 391 c 0xd0
 308.420898438 391 356.0546875 404 383.0546875 404 c 0
 391.0546875 404 405.790039062 397 407.471679688 381 c 0
 410.099609375 356 401.150390625 346 393.150390625 346 c 0xe0
 374.150390625 346 328.888671875 358 313.888671875 358 c 0
 306.888671875 358 299.204101562 355 303.360351562 344 c 0
 307.516601562 333 309.778320312 321 311.14453125 308 c 0
 321.969726562 205 243.423828125 77 154.423828125 77 c 0
 144.423828125 77 138.053710938 71 133.684570312 65 c 0
 126.735351562 55 124.681640625 46 125.732421875 36 c 0
 128.254882812 12 139.516601562 0 175.93359375 -23 c 0
 212.3515625 -46 277.345703125 -84 308.552734375 -105 c 0
 339.759765625 -126 351.545898438 -143 353.6484375 -163 c 0
 361.005859375 -233 241.997070312 -290 149.997070312 -290 c 0xd0
148.901367188 101 m 0
 208.901367188 101 262.717773438 274 255.885742188 339 c 0
 253.784179688 359 235.946289062 386 215.946289062 386 c 0
 153.946289062 386 97.8173828125 235 102.85546875 149 c 0
 105.588867188 123 126.901367188 101 148.901367188 101 c 0
176.84375 -260 m 0
 256.84375 -260 287.375 -227 283.591796875 -191 c 0
 281.489257812 -171 268.072265625 -148 236.1796875 -130 c 0
 224.338867188 -122 189.02734375 -100 174.291015625 -93 c 0
 162.66015625 -87 151.240234375 -83 145.240234375 -83 c 0
 137.240234375 -83 128.450195312 -85 120.66015625 -87 c 0
 43.2880859375 -112 -5.6640625 -141 -1.3544921875 -182 c 0
 3.2705078125 -226 94.84375 -260 176.84375 -260 c 0
EndSplineSet
EndChar

StartChar: o
Encoding: 111 111 45
Width: 488
Flags: W
HStem: -14 41<268.358 327.693> 374 47<341.224 402.294> 687 20G<226.899 236.899>
VStem: 74.3672 71.6436<25.3359 120.281> 178.413 73.5381<626 697>
LayerCount: 2
Fore
SplineSet
94.1005859375 -18 m 0
 84.1005859375 -18 75.62890625 -4 74.3671875 8 c 0
 72.265625 28 75.478515625 45 80.3251953125 75 c 2
 170.560546875 558 l 2
 175.142578125 581 179.884765625 612 178.413085938 626 c 0
 177.046875 639 155.416015625 645 138.890625 650 c 0
 128.575195312 653 120.259765625 656 119.734375 661 c 0
 119.208984375 666 120.788085938 670 135.158203125 676 c 0
 154.317382812 684 219.899414062 707 233.899414062 707 c 0
 239.899414062 707 250.899414062 707 251.951171875 697 c 0
 253.106445312 686 251.842773438 679 249.788085938 670 c 2
 163.1875 200 l 2
 161.23828125 190 166.133789062 191 169.502929688 197 c 0
 243.838867188 327 337.959960938 421 397.959960938 421 c 0
 441.959960938 421 469.637695312 386 473.631835938 348 c 0
 484.458007812 245 435.12109375 115 373.793945312 42 c 0
 360.475585938 26 307.6796875 -14 270.6796875 -14 c 0
 255.6796875 -14 229.3671875 8 227.791015625 23 c 0
 226.740234375 33 238.743164062 52 250.743164062 52 c 0
 262.743164062 52 271.374023438 46 279.00390625 40 c 0
 287.740234375 33 295.370117188 27 306.370117188 27 c 0
 364.370117188 27 421.715820312 214 409.944335938 326 c 0
 406.686523438 357 391.899414062 374 366.899414062 374 c 0
 294.899414062 374 183.55078125 168 146.010742188 78 c 0
 119.737304688 14 110.100585938 -18 94.1005859375 -18 c 0
EndSplineSet
EndChar

StartChar: p
Encoding: 112 112 46
Width: 294
Flags: W
HStem: -14 66<79.7271 157.774> 513 100<215.632 285.635>
VStem: 206.461 88.1084<521.793 603.776>
LayerCount: 2
Fore
SplineSet
245.560546875 513 m 0
 225.560546875 513 208.563476562 532 206.4609375 552 c 0
 203.09765625 584 224.049804688 613 256.049804688 613 c 0
 277.049804688 613 292.362304688 591 294.569335938 570 c 0
 297.72265625 540 275.560546875 513 245.560546875 513 c 0
98.9501953125 -14 m 0
 75.9501953125 -14 58.05859375 4 56.376953125 20 c 0
 55.8515625 25 55.3251953125 30 57.6953125 36 c 0
 101.133789062 146 125.413085938 248 146.740234375 321 c 0
 148.109375 327 147.479492188 333 140.479492188 333 c 0
 129.479492188 333 88.5810546875 313 66.47265625 295 c 0
 59.998046875 290 51.68359375 293 50.947265625 300 c 0
 49.1611328125 317 109.064453125 375 189.0703125 413 c 0
 206.229492188 421 231.278320312 392 228.329101562 382 c 2
 136.704101562 93 l 2
 132.860351562 82 131.911132812 72 132.751953125 64 c 0
 133.802734375 54 143.013671875 52 150.013671875 52 c 0
 177.013671875 52 217.073242188 99 251.079101562 137 c 0
 251.974609375 138 252.869140625 139 254.869140625 139 c 0
 257.869140625 139 261.079101562 137 261.39453125 134 c 0
 265.809570312 92 159.950195312 -14 98.9501953125 -14 c 0
EndSplineSet
EndChar

StartChar: q
Encoding: 113 113 47
Width: 259
Flags: W
HStem: -290 41<-87.4829 -14.8916> 513 100<181.128 251.13>
VStem: 171.957 88.1074<521.793 603.776>
LayerCount: 2
Fore
SplineSet
211.055664062 513 m 0
 191.055664062 513 174.05859375 532 171.95703125 552 c 0
 168.59375 584 189.545898438 613 221.545898438 613 c 0
 242.545898438 613 257.857421875 591 260.064453125 570 c 0
 263.217773438 540 241.055664062 513 211.055664062 513 c 0
-74.5458984375 -290 m 0
 -121.545898438 -290 -155.068359375 -266 -157.064453125 -247 c 0
 -158.8515625 -230 -141.26953125 -207 -122.26953125 -207 c 0
 -110.26953125 -207 -100.323242188 -216 -89.1669921875 -227 c 0
 -78.0107421875 -238 -62.8544921875 -249 -39.8544921875 -249 c 0
 -3.8544921875 -249 12.94140625 -209 25.8447265625 -151 c 2
 122.704101562 288 l 2
 127.391601562 310 123.236328125 321 111.236328125 321 c 0
 100.236328125 321 77.3916015625 310 48.96875 295 c 0
 45.1787109375 293 34.96875 295 34.337890625 301 c 0
 33.8125 306 35.4970703125 309 41.76171875 316 c 0
 95.1904296875 369 125.719726562 383 181.4609375 414 c 0
 196.935546875 419 219.038085938 399 215.404296875 386 c 0
 205.1875 350 196.971679688 314 188.0703125 275 c 2
 97.427734375 -128 l 2
 80.310546875 -203 -14.5458984375 -290 -74.5458984375 -290 c 0
EndSplineSet
EndChar

StartChar: r
Encoding: 114 114 48
Width: 455
Flags: W
HStem: -21 60<310.371 367.687> -15 21G<74.5752 87.5752> 178 25<159.29 198.662> 372 43<301.708 386.88> 686 20G<225.795 236.795>
VStem: 51.2627 51.0537<-13.8293 89.4688>
LayerCount: 2
Fore
SplineSet
327.205078125 -21 m 0xbc
 295.205078125 -21 276.418945312 -4 259.055664062 28 c 2
 209.9140625 134 l 2
 199.6015625 156 181.290039062 178 159.290039062 178 c 0
 150.290039062 178 141.232421875 150 136.704101562 136 c 0
 130.701171875 117 107.319335938 35 102.31640625 16 c 0
 96.62890625 -6 95.5751953125 -15 79.5751953125 -15 c 0x7c
 69.5751953125 -15 52.5234375 -5 51.2626953125 7 c 0
 50.6318359375 13 50.9501953125 29 54.84765625 49 c 2
 167.404296875 567 l 2
 172.776367188 592 173.094726562 608 171.413085938 624 c 0
 170.572265625 632 161.836914062 639 147.311523438 644 c 0
 133.78515625 649 120.259765625 654 119.83984375 658 c 0
 119.314453125 663 120.893554688 667 124.68359375 669 c 0
 153.106445312 684 217.794921875 706 233.794921875 706 c 0
 239.794921875 706 249.794921875 706 250.845703125 696 c 0
 252.001953125 685 252.317382812 682 250.262695312 673 c 2
 158.4609375 262 l 2
 155.037109375 247 163.6171875 251 167.880859375 258 c 0
 225.896484375 353 306.379882812 415 373.379882812 415 c 0
 400.379882812 415 433.956054688 400 437.109375 370 c 0
 444.466796875 300 318.241210938 207 252.23828125 188 c 0
 245.44921875 186 244.659179688 184 248.39453125 177 c 2
 305.8515625 68 l 2
 313.322265625 54 326.899414062 39 341.899414062 39 c 0
 366.899414062 39 390.8515625 68 405.802734375 97 c 0
 411.541992188 109 415.436523438 110 420.436523438 110 c 0
 422.436523438 110 427.172851562 103 427.698242188 98 c 0
 432.112304688 56 358.205078125 -21 327.205078125 -21 c 0xbc
198.662109375 203 m 0
 281.662109375 203 374.887695312 296 370.262695312 340 c 0
 368.161132812 360 354.899414062 372 330.899414062 372 c 0
 274.899414062 372 181.932617188 248 184.875 220 c 0
 185.715820312 212 190.662109375 203 198.662109375 203 c 0
EndSplineSet
EndChar

StartChar: s
Encoding: 115 115 49
Width: 286
Flags: W
HStem: -14 59<85.4951 153.707>
VStem: 44.3701 76.7422<30 61> 182.678 84.9033<636 694>
LayerCount: 2
Fore
SplineSet
93.9951171875 -14 m 0
 76.9951171875 -14 46.6826171875 8 44.3701171875 30 c 0
 44.0556640625 33 44.4248046875 39 45.109375 42 c 2
 178.248046875 583 l 2
 183.250976562 602 184.463867188 619 182.677734375 636 c 0
 181.416015625 648 165.155273438 660 146.734375 664 c 0
 132.418945312 667 123.893554688 672 123.368164062 677 c 0
 122.842773438 682 124.317382812 687 128.211914062 688 c 0
 165.265625 697 238.004882812 709 254.004882812 709 c 0
 260.004882812 709 266.530273438 704 267.581054688 694 c 0
 268.421875 686 266.578125 675 264.524414062 666 c 2
 123.064453125 90 l 2
 120.220703125 79 120.271484375 69 121.112304688 61 c 0
 122.163085938 51 125.793945312 45 132.793945312 45 c 0
 160.793945312 45 208.802734375 102 230.124023438 137 c 0
 236.96875 148 247.70703125 160 253.70703125 160 c 0
 258.70703125 160 259.232421875 155 260.073242188 147 c 0
 267.115234375 80 146.995117188 -14 93.9951171875 -14 c 0
EndSplineSet
EndChar

StartChar: t
Encoding: 116 116 50
Width: 789
Flags: W
HStem: -14 64<594.547 660.488> 356 58<95.3008 174.06> 372 42<577.011 640.698>
VStem: 76.4971 77.168<29.673 106.594> 310.812 89.8525<33.9476 106.811>
LayerCount: 2
Fore
SplineSet
97.650390625 -17 m 0xb8
 87.650390625 -17 77.7578125 1 76.4970703125 13 c 0
 75.8662109375 19 82.0283203125 46 92.0341796875 84 c 2
 158.704101562 325 l 2
 162.91796875 342 154.446289062 356 138.446289062 356 c 0
 118.446289062 356 98.8662109375 352 71.28125 310 c 0
 66.9111328125 304 58.9111328125 304 55.8603515625 314 c 0
 53.599609375 326 59.76171875 353 67.60546875 364 c 0
 87.662109375 392 116.455078125 413 161.349609375 414 c 0xd8
 188.349609375 414 224.611328125 402 213.025390625 360 c 2
 171.581054688 212 l 2
 168.631835938 202 177.737304688 201 181.001953125 208 c 0
 252.232421875 339 321.349609375 414 386.349609375 414 c 0
 424.349609375 414 461.818359375 381 446.544921875 317 c 2
 421.581054688 212 l 2
 418.631835938 202 427.737304688 201 431.001953125 208 c 0
 500.602539062 345 575.349609375 414 640.349609375 414 c 0
 677.349609375 414 715.133789062 378 695.491210938 308 c 2
 632.82421875 86 l 2
 624.556640625 60 629.608398438 50 641.608398438 50 c 0
 673.608398438 50 735.145507812 121 744.094726562 131 c 0
 744.989257812 132 745.989257812 132 746.989257812 132 c 0
 750.989257812 132 755.41015625 128 755.935546875 123 c 0
 757.091796875 112 754.142578125 102 741.71875 87 c 0
 702.974609375 37 653.334960938 -14 590.334960938 -14 c 0
 574.334960938 -14 549.916992188 9 555.5 32 c 2
 640.073242188 331 l 2
 647.340820312 357 630.869140625 371 615.764648438 372 c 0
 593.659179688 373 558.971679688 351 520.647460938 297 c 0
 493.641601562 259 432.9921875 151 400.665039062 78 c 0
 372.391601562 14 347.650390625 -17 331.650390625 -17 c 0
 321.650390625 -17 312.073242188 -2 310.8125 10 c 0
 310.181640625 16 316.028320312 46 326.034179688 84 c 2
 392.758789062 334 l 2
 401.5 365 377.5546875 374 368.44921875 375 c 0
 346.239257812 377 311.76171875 353 273.4375 299 c 0
 246.430664062 261 185.9921875 151 153.665039062 78 c 0
 125.391601562 14 113.650390625 -17 97.650390625 -17 c 0xb8
EndSplineSet
EndChar

StartChar: u
Encoding: 117 117 51
Width: 527
Flags: W
HStem: -14 64<304.888 396.26> 372 42<316.264 377.367>
VStem: 54.9131 15.4199<306.053 320.544> 55.9727 57.3662<-13.795 51.0759>
LayerCount: 2
Fore
SplineSet
85.59765625 -16 m 0xd0
 69.59765625 -16 50.759765625 11 55.97265625 28 c 2xd0
 142.123046875 312 l 2
 151.075195312 341 152.499023438 356 139.499023438 356 c 0
 119.499023438 356 97.9189453125 352 70.3330078125 310 c 0
 65.9638671875 304 57.9638671875 304 54.9130859375 314 c 0xe0
 52.6513671875 326 63.9189453125 352 70.658203125 364 c 0
 87.5048828125 394 120.5078125 413 165.40234375 414 c 0
 186.40234375 414 209.399414062 395 202.921875 371 c 2
 154.790039062 201 l 2
 151.840820312 191 160.946289062 190 164.209960938 197 c 0
 231.49609375 337 314.40234375 414 375.40234375 414 c 0
 417.40234375 414 454.342773438 367 433.963867188 304 c 2
 364.876953125 86 l 6
 356.609375 60 361.66015625 50 373.66015625 50 c 4
 405.66015625 50 471.564453125 108 480.513671875 118 c 4
 481.408203125 119 482.408203125 119 483.408203125 119 c 4
 487.408203125 119 491.829101562 115 492.354492188 110 c 4
 492.879882812 105 491.510742188 99 489.826171875 96 c 4
 444.447265625 33 384.38671875 -14 321.38671875 -14 c 4
 303.38671875 -14 278.075195312 8 285.762695312 30 c 4
 315.408203125 119 346.053710938 208 371.700195312 297 c 0
 386.918945312 352 374.921875 371 355.817382812 372 c 0
 333.711914062 373 301.33984375 348 263.014648438 294 c 0
 236.008789062 256 166.461914062 128 113.338867188 15 c 0
 103.651367188 -7 96.59765625 -16 85.59765625 -16 c 0xd0
EndSplineSet
EndChar

StartChar: v
Encoding: 118 118 52
Width: 380
Flags: W
HStem: -14 30<110.098 179.203> 384 30<197.206 269.919>
VStem: 27.6152 324.295
LayerCount: 2
Fore
SplineSet
130.4921875 -14 m 4
 81.4921875 -14 33.7119140625 41 27.615234375 99 c 4
 14.4775390625 224 100.5078125 414 234.5078125 414 c 4
 301.5078125 414 344.97265625 362 351.91015625 296 c 0
 364.522460938 176 284.4921875 -14 130.4921875 -14 c 4
143.338867188 16 m 4
 223.338867188 16 296.84375 211 284.966796875 324 c 0
 281.288085938 359 269.661132812 384 235.661132812 384 c 4
 158.661132812 384 79.94921875 210 93.822265625 78 c 4
 98.447265625 34 116.338867188 16 143.338867188 16 c 4
EndSplineSet
EndChar

StartChar: w
Encoding: 119 119 53
Width: 439
Flags: W
HStem: -286 29<-80.9086 -18.3008> -279 26<73.8259 143.193> -14 34<158.408 233.355> 378 37<220.192 305.823> 486 20G<192.379 212.879>
LayerCount: 2
Fore
SplineSet
-65.37890625 -286 m 0xb8
 -72.37890625 -286 -81.5888671875 -284 -82.32421875 -277 c 0
 -83.3759765625 -267 -66.216796875 -259 -54.4267578125 -257 c 0xb8
 -26.9521484375 -252 -12.5830078125 -246 -6.3154296875 -220 c 2
 130.033203125 319 l 2
 137.08984375 347 135.459960938 353 115.775390625 350 c 0
 84.30078125 345 64.826171875 340 38.1923828125 327 c 0
 27.7177734375 322 17.2978515625 326 16.45703125 334 c 0
 15.30078125 345 21.669921875 351 29.2490234375 355 c 0
 49.09375 366 88.8857421875 387 140.415039062 401 c 0
 149.204101562 403 154.784179688 407 156.733398438 417 c 0
 169.111328125 480 177.37890625 506 207.37890625 506 c 0
 218.37890625 506 229.114257812 499 227.375976562 487 c 2
 216.471679688 429 l 2
 213.837890625 416 218.46875 410 223.36328125 411 c 0
 240.047851562 414 252.943359375 415 266.943359375 415 c 0
 366.943359375 415 402.723632812 360 410.081054688 290 c 0
 423.4296875 163 312.033203125 -14 180.033203125 -14 c 0
 168.033203125 -14 150.981445312 -4 137.140625 4 c 0
 124.299804688 12 118.405273438 11 112.033203125 -14 c 2
 66.5283203125 -209 l 2
 59.470703125 -237 77.837890625 -250 112.153320312 -253 c 0
 125.2578125 -254 142.678710938 -258 143.729492188 -268 c 0
 144.5703125 -276 130.885742188 -279 115.885742188 -279 c 0
 84.8857421875 -279 50.67578125 -277 32.8857421875 -279 c 0x78
 0.3056640625 -283 -29.37890625 -286 -65.37890625 -286 c 0xb8
195.458984375 20 m 0
 257.458984375 20 348.16796875 175 337.02734375 281 c 0
 329.14453125 356 298.9375 377 250.83203125 378 c 0
 238.83203125 378 226.83203125 378 213.041992188 376 c 1
 149.420898438 106 l 2
 143.943359375 82 146.150390625 61 152.7265625 46 c 0
 160.513671875 29 174.458984375 20 195.458984375 20 c 0
EndSplineSet
EndChar

StartChar: x
Encoding: 120 120 54
Width: 473
Flags: W
HStem: -286 29<127.998 190.524> -272 26<293.492 349.346> -14 36<77.0665 149.404> 387 33<240.179 306.963> 408 20G<408.465 417.465>
LayerCount: 2
Fore
SplineSet
147.509765625 -286 m 0xa0
 140.615234375 -287 127.404296875 -285 126.563476562 -277 c 0
 125.512695312 -267 142.671875 -259 154.461914062 -257 c 0
 182.041015625 -253 206.254882812 -236 212.626953125 -211 c 0
 241.380859375 -104 271.134765625 3 299.888671875 110 c 0
 304.311523438 125 296.9453125 138 282.837890625 120 c 0
 217.561523438 37 151.920898438 -14 79.9208984375 -14 c 0
 36.9208984375 -14 7.1884765625 12 3.509765625 47 c 0
 -5.318359375 131 49.5947265625 246 120.66015625 331 c 0
 166.879882812 386 232.305664062 420 281.305664062 420 c 0xb0
 312.305664062 420 329.672851562 407 341.0390625 394 c 0
 352.1953125 383 357.3515625 372 364.3515625 372 c 0
 372.3515625 372 377.720703125 378 381.669921875 388 c 2
 388.672851562 407 l 2
 393.991210938 423 403.46484375 428 413.46484375 428 c 0
 421.46484375 428 426.83203125 415 420.458984375 390 c 2
 287.365234375 -199 l 2
 281.30859375 -227 291.990234375 -243 318.305664062 -246 c 0
 331.411132812 -247 348.831054688 -251 349.881835938 -261 c 0
 350.72265625 -269 337.038085938 -272 322.038085938 -272 c 0x68
 256.038085938 -272 174.984375 -281 147.509765625 -286 c 0xa0
101.137695312 22 m 0
 154.137695312 22 246.36328125 115 280.690429688 188 c 0
 304.435546875 238 324.338867188 296 320.030273438 337 c 0
 317.296875 363 301.774414062 387 275.774414062 387 c 0
 213.774414062 387 58.951171875 176 72.0380859375 61 c 0
 74.8759765625 34 82.1376953125 22 101.137695312 22 c 0
EndSplineSet
EndChar

StartChar: y
Encoding: 121 121 55
Width: 379
Flags: W
HStem: 359 55<85.9575 170.915 295.929 359.321>
VStem: 55.3906 79.8525<25.3027 106.5>
LayerCount: 2
Fore
SplineSet
82.9130859375 -17 m 0
 72.9130859375 -17 56.6513671875 -5 55.390625 7 c 0
 53.708984375 23 60.291015625 46 70.296875 84 c 2
 137.072265625 324 l 2
 141.28515625 341 140.393554688 359 127.393554688 359 c 0
 108.393554688 359 89.0244140625 353 80.5498046875 348 c 0
 73.0751953125 343 63.759765625 346 62.708984375 356 c 0
 61.658203125 366 71.0810546875 381 86.8203125 393 c 0
 101.55859375 405 123.61328125 414 147.61328125 414 c 0
 202.61328125 414 196.342773438 369 178.6484375 309 c 2
 145.525390625 196 l 2
 141.576171875 186 154.891601562 183 158.15625 190 c 0
 223.756835938 327 301.086914062 419 348.086914062 419 c 0
 382.086914062 419 397.504882812 396 400.342773438 369 c 0
 404.231445312 332 386.85546875 288 358.85546875 288 c 0
 347.85546875 288 341.384765625 302 339.177734375 323 c 0
 337.075195312 343 330.813476562 355 316.813476562 355 c 0
 303.813476562 355 283.390625 340 254.91015625 297 c 0
 229.008789062 258 168.5703125 148 135.243164062 75 c 0
 105.969726562 11 98.9130859375 -17 82.9130859375 -17 c 0
EndSplineSet
EndChar

StartChar: z
Encoding: 122 122 56
Width: 276
Flags: W
HStem: -14 48<32.9749 137.471> 368 46<150.566 216.32>
VStem: -10.1318 272.949
LayerCount: 2
Fore
SplineSet
48.4921875 -14 m 0
 18.4921875 -14 -7.3994140625 4 -10.1318359375 30 c 0
 -13.390625 61 4.033203125 76 13.033203125 76 c 0
 22.033203125 76 32.978515625 67 46.0302734375 57 c 0
 61.1865234375 46 78.447265625 34 108.447265625 34 c 0
 144.447265625 34 164.189453125 65 162.036132812 95 c 0
 158.98828125 124 144.204101562 160 122.735351562 193 c 0
 101.372070312 225 86.2197265625 255 84.1171875 275 c 0
 75.9189453125 353 168.5078125 414 202.5078125 414 c 0
 228.5078125 414 261.345703125 387 262.817382812 373 c 0
 264.078125 361 244.706054688 336 232.706054688 336 c 0
 225.706054688 336 218.865234375 344 210.024414062 352 c 0
 201.18359375 360 189.342773438 368 171.342773438 368 c 0
 149.342773438 368 133.444335938 348 136.4921875 319 c 0
 138.279296875 302 162.32421875 254 179.162109375 227 c 0
 196 200 216.939453125 153 220.092773438 123 c 0
 228.396484375 44 128.4921875 -14 48.4921875 -14 c 0
EndSplineSet
EndChar

StartChar: four
Encoding: 52 52 57
Width: 658
Flags: W
HStem: -5 34<-59.7961 20.3042 503.216 566.431> 0 32<146.714 194.31 293.119 377.057> 258 33<315.997 450.422> 656 20G<596.5 603>
LayerCount: 2
Fore
SplineSet
-36 -5 m 0xb0
 -52 -5 -58 -1 -60 8 c 0
 -62 18 -48 23 -26 29 c 0
 30 44 72 71 105 108 c 0
 253 271 356 415 476 569 c 0
 500 599 514 622 522 622 c 0
 550 622 554 632 570 649 c 0
 589 670 593 676 600 676 c 0
 606 676 610 670 605 644 c 2
 501 122 l 2
 488 58 498 36 536 25 c 0
 557 19 568 16 568 7 c 0
 568 -1 559 -5 537 -5 c 0xb0
 511 -5 458 1 416 1 c 0
 380 1 339 0 317 0 c 0
 301 0 295 4 293 12 c 0
 291 21 304 29 321 32 c 0x70
 387 43 404 56 419 112 c 2
 450 231 l 2
 455 251 440 258 421 258 c 2
 309 256 l 2
 288 256 276 252 266 238 c 2
 163 102 l 2
 126 53 147 42 170 34 c 0
 185 29 195 22 195 12 c 0
 195 3 183 -1 167 -1 c 0
 150 -1 123 1 89 1 c 0
 48 1 -5 -5 -36 -5 c 0xb0
334 290 m 2
 441 291 l 2
 455 291 463 298 468 319 c 2
 516 538 l 2
 520 554 520 561 513 561 c 0
 508 561 501 559 494 549 c 2
 316 312 l 2
 306 299 298 290 334 290 c 2
EndSplineSet
EndChar

StartChar: five
Encoding: 53 53 58
Width: 572
Flags: W
HStem: -4 25<-19.625 50.1531 213.369 309.978> 346 25<274.938 353.325> 625 30<182.34 241.239 335.586 439.98>
VStem: 439 81<124.728 280.543> 496 81<456.588 584.062>
LayerCount: 2
Fore
SplineSet
4 -5 m 0xf0
 -12 -5 -20 -3 -20 6 c 0
 -20 16 -7 20 16 24 c 0
 65 33 97 51 112 99 c 2
 249 549 l 2
 264 598 254 613 209 621 c 0
 189 625 182 628 182 638 c 0
 182 647 199 650 215 650 c 0
 248 650 262 645 290 645 c 0
 320 645 367 655 392 655 c 0
 527 655 577 595 577 525 c 0xe8
 577 430 474 376 398 366 c 0
 387 365 390 358 395 356 c 0
 472 326 520 285 520 192 c 0
 520 76 405 -4 252 -4 c 0
 196 -4 163 3 126 3 c 0
 78 3 58 -5 4 -5 c 0xf0
285 371 m 0
 316 371 345 376 377 383 c 1
 443 411 496 457 496 525 c 0
 496 580 451 625 373 625 c 0
 348 625 338 621 335 609 c 2
 273 386 l 2
 270 374 275 371 285 371 c 0
249 21 m 0
 339 21 439 99 439 205 c 0xf0
 439 297 383 346 274 346 c 0
 264 346 256 339 253 327 c 2
 189 108 l 2
 182 84 183 59 199 45 c 0
 213 32 226 21 249 21 c 0
EndSplineSet
EndChar

StartChar: six
Encoding: 54 54 59
Width: 631
Flags: W
HStem: 11 6<445 459> 467 21G<613 622.5> 625 20G<693.5 703> 634 31<405.747 547.464>
VStem: 78 88<140.567 365.222> 604 33<467.178 536.318>
LayerCount: 2
Fore
SplineSet
330 -14 m 0xdc
 221 -14 78 84 78 240 c 0
 78 479 268 665 485 665 c 0xdc
 522 665 559 659 596 646 c 0
 621 638 639 630 653 630 c 0
 659 630 666 634 674 638 c 0
 682 641 690 645 697 645 c 0xec
 709 645 708 634 704 629 c 0
 682 599 646 532 637 487 c 0
 635 477 626 467 619 467 c 0
 607 467 602 481 604 493 c 0
 610 523 612 556 589 585 c 0
 566 614 528 634 482 634 c 0
 338 634 166 458 166 232 c 0
 166 70 272 17 357 17 c 0
 459 17 496 71 536 139 c 0
 542 149 548 158 559 158 c 0
 565 158 566 151 566 138 c 0
 566 118 507 -9 494 -9 c 0
 489 -9 482 -3 475 2 c 0
 469 7 462 11 454 11 c 0
 445 11 431 6 413 0 c 0
 393 -7 365 -14 330 -14 c 0xdc
EndSplineSet
EndChar

StartChar: seven
Encoding: 55 55 60
Width: 752
Flags: W
HStem: -7 30<183.254 409.275> -5 29<-3.2371 87.2179> 622 27<163.18 244.504 367.125 527.814>
VStem: 659 86<265.985 493.048>
LayerCount: 2
Fore
SplineSet
317 -7 m 0xb0
 298 -7 197 0 124 0 c 0
 87 0 69 -5 20 -5 c 0
 4 -5 -4 -2 -4 6 c 0
 -4 15 9 23 32 24 c 0x70
 95 26 107 51 123 99 c 2
 273 560 l 2
 288 608 230 613 186 622 c 0
 166 626 162 633 162 642 c 0
 162 650 176 653 192 653 c 0
 245 653 287 649 329 649 c 0
 369 649 385 655 432 655 c 0
 619 655 745 560 745 377 c 0
 745 174 570 -7 317 -7 c 0xb0
322 23 m 0xb0
 521 23 659 207 659 395 c 0
 659 548 577 622 442 622 c 0
 358 622 358 605 347 571 c 2
 211 141 l 2
 183 52 230 23 322 23 c 0xb0
EndSplineSet
EndChar

StartChar: eight
Encoding: 56 56 61
Width: 576
Flags: W
HStem: -5 31<-30.6487 61.9023 183.675 439.05> 322 27<265.297 429.349> 420 220G<504 515 609.5 614.5> 516 21G<572.5 579> 622 28<163.258 242.124 342.525 551.119> 640 20G<609.5 614.5>
VStem: 441 26<237.015 309.096> 565 28<516.463 594.81>
LayerCount: 2
Fore
SplineSet
-8 -5 m 0xe3
 -24 -5 -32 -2 -32 6 c 0
 -32 15 -19 20 4 24 c 0
 70 35 93 54 107 99 c 2
 244 549 l 2
 262 606 247 617 188 625 c 0
 168 628 162 633 162 642 c 0
 162 650 177 653 193 653 c 0
 208 653 272 650 314 650 c 2
 475 650 l 2xcb
 584 650 607 660 612 660 c 0xc7
 617 660 623 652 623 647 c 0
 623 635 601 593 593 535 c 0
 591 521 582 516 576 516 c 0
 569 516 564 526 565 541 c 0
 569 602 559 622 506 622 c 2
 384 622 l 2xdb
 352 622 342 614 335 592 c 2
 268 380 l 2
 260 356 263 348 284 349 c 2
 408 352 l 2
 442 353 461 369 477 389 c 0
 486 400 498 420 510 420 c 0
 520 420 521 406 514 392 c 0
 502 369 494 350 487 331 c 0
 479 309 473 287 467 258 c 0
 465 249 461 237 454 237 c 0
 443 237 441 257 441 264 c 0
 441 305 426 320 403 320 c 2
 288 322 l 2
 265 322 248 320 240 291 c 2
 189 109 l 2
 170 41 181 26 223 26 c 2
 378 26 l 2
 411 26 437 38 458 53 c 0
 478 67 495 88 512 116 c 0
 517 124 522 134 530 134 c 0
 536 134 537 122 537 114 c 0
 537 96 512 39 498 16 c 0
 490 3 481 -5 465 -5 c 0
 328 -5 205 1 112 1 c 0
 63 1 42 -5 -8 -5 c 0xe3
EndSplineSet
EndChar

StartChar: nine
Encoding: 57 57 62
Width: 509
Flags: W
HStem: -5 29<-9.2371 68.706 200.97 269.641> 322 27<268.265 432.173> 523 21G<575 586.5> 618 32<179.007 245.459 345.112 559.285> 642 20G<614.5 620.5> 642 20G<614.5 620.5>
VStem: 443 28<246.052 311.503> 569 56<546 652>
LayerCount: 2
Fore
SplineSet
14 -5 m 0xf3
 -2 -5 -10 -3 -10 6 c 0
 -10 16 3 20 26 24 c 0
 75 33 95 50 110 99 c 2
 247 549 l 2
 263 597 246 613 202 622 c 0
 182 626 177 633 177 642 c 0xe7
 177 650 192 653 208 653 c 0
 223 653 275 650 317 650 c 2
 476 650 l 2xf3
 567 650 612 662 617 662 c 0xeb
 624 662 625 659 625 652 c 0
 625 647 623 640 620 630 c 0
 613 607 601 567 597 540 c 0
 596 533 593 523 580 523 c 0
 570 523 569 535 569 546 c 0
 569 570 571 593 558 606 c 0
 551 613 540 618 521 618 c 2
 377 618 l 2
 352 618 345 604 338 588 c 0
 334 579 284 423 269 374 c 0
 266 363 267 349 276 349 c 2
 411 352 l 2
 438 353 464 367 482 389 c 0
 491 400 503 410 508 410 c 0
 515 410 521 403 517 394 c 0
 494 343 484 314 471 263 c 0
 468 254 465 246 458 246 c 0
 447 246 443 262 443 269 c 0
 443 308 427 319 406 320 c 0
 383 322 309 322 291 322 c 0
 268 322 251 320 243 291 c 2
 192 113 l 2
 172 44 192 35 245 24 c 0
 265 20 270 16 270 6 c 0
 270 -3 256 -5 240 -5 c 0
 190 -5 172 2 133 2 c 0
 87 2 64 -5 14 -5 c 0xf3
EndSplineSet
EndChar

StartChar: colon
Encoding: 58 58 63
Width: 687
Flags: W
HStem: -14 28<317.817 444.6> 260 30<432.012 519.25 623.233 686.871> 464 21G<621.5 631.5> 625 20G<702.5 712> 634 29<412.974 555.552>
VStem: 81 88<142.781 368.126> 526 36<92 209> 613 33<464.2 536.318>
LayerCount: 2
Fore
SplineSet
389 -14 m 0xef
 217 -14 81 73 81 254 c 4
 81 486 268 663 514 663 c 0xef
 557 663 587 653 611 644 c 0
 631 636 647 629 663 629 c 0
 670 629 678 634 686 638 c 0
 693 642 699 645 706 645 c 0xf7
 718 645 717 634 713 629 c 0
 691 599 655 532 646 487 c 0
 643 474 635 464 628 464 c 0
 615 464 610 475 613 493 c 0
 618 523 617 557 596 585 c 0
 579 608 547 634 495 634 c 0
 310 634 169 431 169 228 c 0
 169 95 288 14 389 14 c 0
 450 14 486 53 498 100 c 2
 526 209 l 2
 532 234 526 245 508 250 c 0
 491 255 473 258 463 260 c 0
 449 263 432 266 432 275 c 0
 432 284 446 290 464 290 c 0
 510 290 535 284 581 284 c 0
 614 284 633 290 666 290 c 0
 678 290 687 284 687 276 c 0
 687 269 676 260 655 256 c 0
 625 251 610 240 598 213 c 0
 580 174 562 107 562 92 c 0
 562 80 565 72 573 60 c 1
 558 22 448 -14 389 -14 c 0xef
EndSplineSet
EndChar

StartChar: semicolon
Encoding: 59 59 64
Width: 751
Flags: W
HStem: -5 29<-19.1905 53.465 181.926 244.641 401.844 477.446 594.888 650.641> 307 38<245.912 585> 622 31<181.501 237.532 348.255 427.556 598.501 655.031 767.674 842.556>
LayerCount: 2
Fore
SplineSet
3 -5 m 0
 -13 -5 -20 -2 -20 6 c 0
 -20 15 -9 18 14 25 c 0
 56 37 75 43 84 72 c 2
 233 551 l 2
 247 597 249 613 205 622 c 0
 185 626 181 633 181 642 c 0
 181 650 195 653 211 653 c 0
 261 653 269 650 306 650 c 0
 344 650 355 653 405 653 c 0
 421 653 429 650 429 642 c 0
 429 633 415 626 392 622 c 0
 343 613 319 590 307 551 c 2
 246 354 l 2
 244 346 250 345 256 345 c 2
 591 345 l 2
 596 345 598 348 601 357 c 2
 662 552 l 2
 673 588 666 613 622 622 c 0
 602 626 598 633 598 642 c 0
 598 650 612 653 628 653 c 0
 678 653 693 650 735 650 c 0
 768 650 770 653 820 653 c 0
 836 653 844 650 844 642 c 0
 844 633 830 626 807 622 c 0
 758 613 749 590 737 552 c 2
 592 81 l 2
 582 49 589 31 626 24 c 0
 646 20 651 15 651 6 c 0
 651 -2 637 -5 621 -5 c 0
 571 -5 564 0 526 0 c 0
 487 0 475 -5 425 -5 c 0
 409 -5 401 -2 401 6 c 0
 401 15 414 20 437 24 c 0
 479 31 509 54 523 97 c 2
 585 292 l 2
 587 299 591 307 585 307 c 2
 240 307 l 2
 236 307 234 304 232 296 c 2
 173 104 l 2
 155 47 178 32 220 24 c 0
 240 20 245 15 245 6 c 0
 245 -2 231 -5 215 -5 c 0
 165 -5 149 0 107 0 c 0
 67 0 53 -5 3 -5 c 0
EndSplineSet
EndChar

StartChar: less
Encoding: 60 60 65
Width: 362
Flags: W
HStem: -5 29<-19.1562 62.4897 199.031 261.641> 622 31<185.501 245.933 364.79 447.556>
LayerCount: 2
Fore
SplineSet
4 -5 m 0
 -12 -5 -20 -2 -20 6 c 0
 -20 15 -7 20 16 24 c 0
 65 33 98 51 112 98 c 2
 250 550 l 2
 264 597 253 613 209 622 c 0
 189 626 185 633 185 642 c 0
 185 650 199 653 215 653 c 0
 265 653 280 650 323 650 c 0
 363 650 375 653 425 653 c 0
 441 653 449 650 449 642 c 0
 449 633 435 626 412 622 c 0
 363 613 338 597 324 550 c 2
 186 98 l 2
 172 51 193 33 237 24 c 0
 257 20 262 15 262 6 c 0
 262 -2 248 -5 232 -5 c 0
 182 -5 167 0 124 0 c 0
 78 0 54 -5 4 -5 c 0
EndSplineSet
EndChar

StartChar: equal
Encoding: 61 61 66
Width: 293
Flags: W
HStem: -200 38<-100.74 -21.2121> 622 31<159.593 220.256 330.47 407.649>
LayerCount: 2
Fore
SplineSet
-95 -200 m 0
 -155 -200 -184 -169 -184 -147 c 0
 -184 -119 -177 -102 -160 -102 c 0
 -149 -102 -133 -120 -112 -135 c 0
 -96 -147 -76 -162 -54 -162 c 0
 -15 -162 15 -134 54 -5 c 2
 223 551 l 2
 237 597 228 613 184 622 c 0
 164 626 159 633 159 642 c 0
 159 650 174 653 190 653 c 0
 240 653 254 650 297 650 c 0
 331 650 336 653 386 653 c 0
 402 653 409 650 409 642 c 0
 409 633 396 626 373 622 c 0
 324 613 313 597 298 551 c 2
 173 142 l 2
 109 -68 77 -94 39 -134 c 0
 2 -173 -40 -200 -95 -200 c 0
EndSplineSet
EndChar

StartChar: greater
Encoding: 62 62 67
Width: 699
Flags: W
HStem: -5 29<-16.1562 62.2952 193.533 252.641 373.032 433.421 584.519 652.641> 323 24<263.625 279.514> 622 31<177.593 238.933 344.534 424.556 538.355 580.84 690.464 790.13>
LayerCount: 2
Fore
SplineSet
7 -5 m 0
 -9 -5 -17 -2 -17 6 c 0
 -17 15 -4 20 19 24 c 0
 68 33 90 51 105 101 c 2
 243 551 l 2
 257 597 246 613 202 622 c 0
 182 626 177 633 177 642 c 0
 177 650 192 653 208 653 c 0
 258 653 271 651 311 651 c 0
 346 651 352 653 402 653 c 0
 418 653 426 650 426 642 c 0
 426 633 412 626 389 622 c 0
 340 613 333 604 317 551 c 2
 261 360 l 2
 258 350 262 347 272 347 c 0
 292 347 312 362 339 385 c 2
 550 567 l 2
 567 582 581 594 581 605 c 0
 581 609 578 615 562 620 c 0
 547 625 538 631 538 640 c 0
 538 648 558 651 574 651 c 2
 624 651 l 2
 677 651 740 655 776 655 c 0
 788 655 793 651 793 644 c 0
 793 635 779 628 756 624 c 0
 707 615 650 597 595 558 c 0
 509 496 447 439 356 357 c 0
 351 352 351 346 355 339 c 0
 433 198 490 116 537 70 c 0
 568 40 595 33 628 24 c 0
 649 18 653 15 653 6 c 0
 653 -2 639 -5 623 -5 c 0
 568 -5 555 0 463 0 c 0
 440 0 438 -1 396 -1 c 0
 380 -1 373 2 373 10 c 0
 373 19 384 23 403 27 c 0
 442 36 443 40 424 72 c 2
 284 306 l 2
 277 318 256 323 251 323 c 0
 246 323 243 310 241 302 c 2
 187 110 l 2
 171 53 184 33 228 24 c 0
 248 20 253 15 253 6 c 0
 253 -2 239 -5 223 -5 c 0
 173 -5 164 2 126 2 c 0
 80 2 57 -5 7 -5 c 0
EndSplineSet
EndChar

StartChar: question
Encoding: 63 63 68
Width: 583
Flags: W
HStem: -5 35<-16.9818 82.625 205.308 432.209> 622 31<202.633 266.483 373.325 479.821>
LayerCount: 2
Fore
SplineSet
4 -5 m 0
 -12 -5 -20 -2 -20 6 c 0
 -20 15 -7 20 16 24 c 0
 65 33 109 52 123 99 c 2
 264 560 l 2
 279 608 271 613 227 622 c 0
 207 626 202 633 202 642 c 0
 202 650 216 653 232 653 c 0
 282 653 295 648 336 648 c 0
 382 648 408 653 458 653 c 0
 474 653 481 650 481 642 c 0
 481 631 465 627 442 625 c 0
 390 620 353 606 341 567 c 2
 206 113 l 2
 191 62 198 30 248 30 c 2
 328 30 l 2
 401 30 443 46 469 72 c 0
 494 97 509 121 530 152 c 0
 536 160 538 162 546 162 c 0
 552 162 554 158 554 150 c 0
 554 132 521 39 503 11 c 0
 498 3 489 -5 480 -5 c 0
 329 -5 222 1 129 1 c 0
 80 1 54 -5 4 -5 c 0
EndSplineSet
EndChar

StartChar: at
Encoding: 64 64 69
Width: 991
Flags: W
HStem: -14 21G<384.5 389> -3 29<-46.3379 35.9566 150.124 201.641 612.52 679.016 836.771 893.749> 625 33<213.03 308.648 956.801 1048.89>
VStem: 374 72<215.75 521.972> 378 76<151.022 504.172>
LayerCount: 2
Fore
SplineSet
387 -14 m 0xa8
 382 -14 378 -4 378 11 c 0xa8
 383 178 381 345 374 512 c 0
 373 541 360 539 345 509 c 0
 283 388 227 267 175 146 c 0
 135 52 143 31 172 26 c 0
 192 23 202 18 202 9 c 0
 202 1 184 -3 168 -3 c 0
 118 -3 106 0 60 0 c 0
 26 0 24 -6 -26 -6 c 0
 -42 -6 -50 -4 -50 4 c 0
 -50 13 -38 19 -15 23 c 0
 42 33 72 56 118 144 c 2
 317 532 l 2
 343 582 334 614 252 625 c 0
 223 629 213 632 213 642 c 0
 213 653 229 658 255 658 c 0
 289 658 374 653 417 653 c 0
 442 653 448 636 446 585 c 2x70
 454 163 l 2
 455 133 468 142 484 160 c 0
 607 299 720 434 839 575 c 1
 854 603 859 618 870 636 c 0
 876 646 882 650 891 650 c 2
 929 650 l 2
 944 650 998 658 1016 658 c 0
 1032 658 1049 652 1049 643 c 0
 1049 632 1040 625 1008 621 c 0
 947 613 937 607 916 536 c 0
 880 413 851 281 827 154 c 0
 810 65 824 33 868 26 c 0
 888 23 894 18 894 9 c 0
 894 3 880 -3 864 -3 c 0
 814 -3 789 8 743 8 c 0
 697 8 685 -3 635 -3 c 0x68
 619 -3 612 1 612 9 c 0
 612 17 625 23 647 28 c 0
 690 38 708 59 723 104 c 0
 772 256 802 365 836 502 c 0
 838 509 830 511 824 504 c 2
 529 162 l 1
 412 10 l 2
 399 -6 391 -14 387 -14 c 0xa8
EndSplineSet
EndChar

StartChar: braceleft
Encoding: 123 123 70
Width: 292
Flags: W
HStem: -14 73<83.0371 145.14> 360 38<53.1715 121.79 200.777 315.117> 490 20G<203.463 213.963>
VStem: 46.6484 268.793
LayerCount: 2
Fore
SplineSet
91.537109375 -14 m 0
 74.537109375 -14 48.1201171875 9 46.6484375 23 c 0
 44.3359375 45 49.8642578125 59 54.7626953125 79 c 2
 121.700195312 346 l 2
 123.75390625 355 116.438476562 358 110.438476562 358 c 2
 70.228515625 360 l 2
 53.123046875 361 51.2822265625 369 50.7568359375 374 c 0
 50.44140625 377 64.234375 398 82.234375 398 c 2
 118.234375 398 l 2
 132.234375 398 134.918945312 401 140.342773438 416 c 2
 159.192382812 465 l 2
 165.510742188 481 198.462890625 510 208.462890625 510 c 0
 219.462890625 510 223.459960938 491 219.826171875 478 c 2
 200.868164062 411 l 2
 198.813476562 402 204.024414062 400 215.024414062 400 c 0
 242.024414062 400 272.549804688 395 290.865234375 392 c 0
 312.28515625 388 314.706054688 384 315.44140625 377 c 0
 315.756835938 374 312.59765625 366 297.703125 365 c 0
 268.913085938 363 243.123046875 361 214.228515625 360 c 0
 193.333007812 359 186.963867188 353 184.8046875 345 c 2
 121.66015625 99 l 2
 115.288085938 74 120.864257812 59 143.864257812 59 c 0
 170.864257812 59 205.081054688 95 223.978515625 115 c 0
 236.5078125 129 249.822265625 126 250.663085938 118 c 0
 251.609375 109 245.87109375 97 236.131835938 85 c 0
 190.123046875 28 117.537109375 -14 91.537109375 -14 c 0
EndSplineSet
EndChar

StartChar: bar
Encoding: 124 124 71
Width: 509
Flags: W
HStem: -14 69<91.1531 131.548> -14 61<284.637 369.679> 333 85<112.731 198.253> 394 20G<406.718 416.718>
LayerCount: 2
Fore
SplineSet
89.7021484375 -14 m 0x50
 66.7021484375 -14 35.9189453125 22 41.1318359375 39 c 2
 119.541015625 292 l 2
 126.228515625 314 128.231445312 333 118.231445312 333 c 0
 107.231445312 333 78.0693359375 306 51.8017578125 280 c 0
 49.1171875 277 38.9072265625 279 38.486328125 283 c 0
 37.9609375 288 37.91015625 298 47.3330078125 313 c 0
 90.291015625 380 162.297851562 418 191.297851562 418 c 0
 201.297851562 418 222.294921875 399 216.765625 385 c 0
 182.330078125 294 153.315429688 199 122.774414062 109 c 0
 113.612304688 82 111.450195312 55 125.450195312 55 c 0xa0
 145.450195312 55 192.458984375 112 241.943359375 174 c 0
 308.008789062 259 373.658203125 367 387.399414062 398 c 0
 393.033203125 411 402.717773438 414 410.717773438 414 c 0
 422.717773438 414 440.135742188 391 436.291015625 380 c 2
 339.192382812 86 l 2
 330.924804688 60 334.291015625 47 346.291015625 47 c 0
 372.291015625 47 425.036132812 97 451.8828125 127 c 0
 452.77734375 128 453.77734375 128 454.77734375 128 c 0
 458.77734375 128 464.198242188 124 464.723632812 119 c 0
 465.249023438 114 460.405273438 103 446.40234375 84 c 0
 413.341796875 37 361.702148438 -14 298.702148438 -14 c 0
 281.702148438 -14 259.654296875 15 265.762695312 33 c 0
 287.456054688 93 316.837890625 175 323.89453125 203 c 0
 328.212890625 219 317.212890625 219 311.053710938 211 c 0
 188.030273438 59 123.702148438 -14 89.7021484375 -14 c 0x50
EndSplineSet
EndChar

StartChar: braceright
Encoding: 125 125 72
Width: 410
Flags: W
HStem: -14 57<135.152 215.374> 333 85<106.731 177.386>
LayerCount: 2
Fore
SplineSet
141.702148438 -14 m 0
 94.7021484375 -14 55.240234375 57 71.14453125 115 c 2
 117.9609375 288 l 2
 125.123046875 315 127.231445312 333 111.231445312 333 c 0
 102.231445312 333 76.75390625 309 58.1708984375 286 c 0
 52.01171875 278 48.01171875 278 46.01171875 278 c 0
 41.01171875 278 38.6962890625 281 38.486328125 283 c 0
 37.6455078125 291 38.8046875 299 47.3330078125 313 c 0
 89.291015625 380 136.297851562 418 165.297851562 418 c 0
 181.297851562 418 199.399414062 398 195.396484375 379 c 2
 132.723632812 119 l 2
 122.55859375 73 136.711914062 43 170.711914062 43 c 0
 267.711914062 43 348.888671875 165 336.801757812 280 c 0
 334.489257812 302 322.862304688 327 306.075195312 344 c 0
 296.024414062 354 291.868164062 365 290.606445312 377 c 0
 288.71484375 395 317.297851562 418 345.297851562 418 c 0
 359.297851562 418 376.71484375 395 381.549804688 349 c 0
 390.798828125 261 373.732421875 176 313.140625 96 c 0
 257.918945312 22 195.702148438 -14 141.702148438 -14 c 0
EndSplineSet
EndChar

StartChar: asciitilde
Encoding: 126 126 73
Width: 623
Flags: W
HStem: -14 55<145.032 199.156 345.704 437.462> 332 86<115.941 190.499>
VStem: 322.126 81.3662<241.22 375.665>
LayerCount: 2
Fore
SplineSet
562.192382812 420 m 0
 576.192382812 420 593.8203125 395 598.654296875 349 c 0
 607.904296875 261 580.36328125 171 512.927734375 80 c 0
 465.549804688 17 416.807617188 -14 369.807617188 -14 c 0
 321.807617188 -14 297.765625 53 301.14453125 116 c 1
 259.396484375 47 184.807617188 -14 149.807617188 -14 c 0
 98.8076171875 -14 60.1318359375 40 86.5166015625 141 c 2
 129.384765625 304 l 2
 134.4921875 322 130.44140625 332 119.44140625 332 c 0
 112.44140625 332 83.8076171875 319 65.330078125 295 c 0
 60.06640625 288 52.2763671875 286 50.2763671875 286 c 0
 46.2763671875 286 40.9609375 289 40.541015625 293 c 0
 40.0146484375 298 39.384765625 304 49.8076171875 319 c 0
 94.396484375 380 153.40234375 418 182.40234375 418 c 0
 193.40234375 418 210.874023438 404 205.291015625 381 c 2
 141.723632812 120 l 2
 130.55859375 74 145.81640625 43 178.81640625 43 c 0
 229.81640625 43 302.834960938 157 305.787109375 186 c 0
 308.94921875 213 318.75390625 310 322.125976562 335 c 0
 324.234375 353 330.552734375 369 340.817382812 376 c 0
 355.765625 386 368.609375 397 395.609375 397 c 0
 409.609375 397 410.759765625 348 403.4921875 322 c 0
 390.432617188 275 382.215820312 239 373.84375 214 c 0
 366.26171875 191 360.834960938 157 360.306640625 143 c 0
 356.717773438 82 368.02734375 41 401.02734375 41 c 0
 475.02734375 41 557.522460938 179 546.06640625 288 c 0
 544.384765625 304 537.018554688 317 528.756835938 329 c 0
 518.180664062 344 505.918945312 356 504.97265625 365 c 0
 502.765625 386 541.192382812 420 562.192382812 420 c 0
EndSplineSet
EndChar

StartChar: uni007F
Encoding: 127 127 74
Width: 438
Flags: W
HStem: -14 60<58.3072 99.4098 305.596 358.064> 351 63<103.482 159.008 337.708 391.97>
VStem: 385.777 22.8408<96.9919 139.997>
LayerCount: 2
Fore
SplineSet
46.4921875 -14 m 0
 26.4921875 -14 4.2314453125 -2 1.498046875 24 c 0
 -0.9189453125 47 22.876953125 87 39.876953125 87 c 0
 49.876953125 87 54.822265625 78 57.7685546875 69 c 0
 63.4501953125 53 71.1865234375 46 79.1865234375 46 c 0
 88.291015625 45 97.765625 50 104.924804688 58 c 0
 140.615234375 99 159.567382812 128 196.522460938 176 c 0
 200.997070312 181 200.26171875 188 197.630859375 194 c 2
 144.916015625 334 l 2
 139.33984375 349 136.12890625 351 128.12890625 351 c 0
 118.12890625 351 98.810546875 335 77.5947265625 299 c 0
 75.0146484375 295 71.2763671875 283 62.2763671875 283 c 0
 57.2763671875 283 54.541015625 290 53.4892578125 300 c 0
 49.390625 339 104.5078125 414 148.5078125 414 c 0
 169.5078125 414 183.189453125 398 195.868164062 363 c 2
 232.008789062 257 l 2
 235.060546875 247 240.165039062 246 246.219726562 255 c 2
 305.708984375 355 l 2
 322.765625 383 353.5078125 414 389.5078125 414 c 0
 415.5078125 414 442.345703125 387 445.02734375 371 c 0
 447.603515625 356 426.807617188 316 409.807617188 316 c 0
 401.807617188 316 395.072265625 323 390.021484375 333 c 0
 381.12890625 351 374.603515625 356 365.603515625 356 c 0
 349.603515625 356 333.075195312 342 313.018554688 314 c 0
 296.330078125 292 277.063476562 266 256.056640625 228 c 0
 251.897460938 220 250.94921875 210 257.735351562 193 c 2
 304.663085938 70 l 2
 311.555664062 52 321.186523438 46 328.186523438 46 c 0
 347.186523438 46 370.927734375 77 385.77734375 126 c 0
 388.7265625 136 392.306640625 140 397.306640625 140 c 0
 402.306640625 140 406.516601562 138 408.618164062 118 c 0
 412.5078125 81 376.4921875 -14 318.4921875 -14 c 0
 281.4921875 -14 265.075195312 9 248.450195312 53 c 2
 216.885742188 144 l 2
 211.204101562 160 207.204101562 160 200.254882812 150 c 0
 172.458984375 110 145.083984375 66 116.182617188 27 c 0
 91.6513671875 -6 70.4921875 -14 46.4921875 -14 c 0
EndSplineSet
EndChar

StartChar: uni0080
Encoding: 128 128 75
Width: 405
Flags: W
HStem: -290 60<-26.5303 41.2023> 355 59<66.7142 122.756> 403 20G<322.53 329.53>
VStem: 18.6143 27.8945<261.55 323.187> 308.527 54.5225<215.975 414.531>
LayerCount: 2
Fore
SplineSet
-16.5302734375 -290 m 0xb8
 -36.5302734375 -290 -63.001953125 -276 -65.9443359375 -248 c 0
 -68.7822265625 -221 -51.2001953125 -198 -32.2001953125 -198 c 0
 -19.2001953125 -198 -9.25390625 -207 0.5869140625 -215 c 0
 10.427734375 -223 20.1630859375 -230 32.1630859375 -230 c 0
 79.1630859375 -230 126.12109375 -163 160.767578125 -74 c 0
 184.250976562 -12 184.368164062 63 174.803710938 154 c 0
 159.353515625 301 115.677734375 355 95.677734375 355 c 0
 75.677734375 355 50.986328125 314 46.5087890625 290 c 0
 45.2451171875 283 38.5576171875 261 30.5576171875 261 c 0
 25.5576171875 261 20.1904296875 274 18.6142578125 289 c 0
 12.203125 350 63.4765625 414 108.4765625 414 c 0xd8
 140.4765625 414 164.893554688 391 182.413085938 348 c 0
 206.508789062 290 233.8125 211 241.791015625 78 c 0
 243.313476562 54 249.893554688 58 257.106445312 75 c 0
 292.278320312 159 322.505859375 271 308.52734375 404 c 0
 307.896484375 410 319.530273438 423 325.530273438 423 c 0
 333.530273438 423 360.52734375 404 363.049804688 380 c 0
 376.083007812 256 297.418945312 53 168.653320312 -130 c 0
 107.796875 -217 38.4697265625 -290 -16.5302734375 -290 c 0xb8
EndSplineSet
EndChar

StartChar: uni0081
Encoding: 129 129 76
Width: 407
Flags: W
HStem: -34 52<232.507 302.142> 52 46<122.88 144.697> 366 48<112.418 209.465> 398 20G<369.246 376.246>
VStem: 20.5498 30.2607<-19.416 37.129> 320.198 50.3125<32.6991 135.762>
LayerCount: 2
Fore
SplineSet
384.5078125 406 m 0xdc
 385.55859375 396 374.765625 375 357.762695312 356 c 2
 122.879882812 98 l 1
 125.879882812 98 l 2
 155.879882812 98 183.086914062 77 210.293945312 56 c 0
 235.291015625 37 258.288085938 18 281.288085938 18 c 0
 326.288085938 18 324.927734375 69 320.198242188 114 c 0
 317.67578125 138 320.150390625 143 332.150390625 143 c 0
 346.150390625 143 367.147460938 124 370.510742188 92 c 0
 376.396484375 36 288.75390625 -34 252.75390625 -34 c 0
 219.75390625 -34 189.020507812 -8 161.498046875 16 c 0
 139.500976562 35 120.71484375 52 107.71484375 52 c 0
 67.71484375 52 47.552734375 25 50.810546875 -6 c 0
 52.1767578125 -19 42.2822265625 -20 37.2822265625 -20 c 0
 33.2822265625 -20 22.916015625 -7 20.5498046875 6 c 0
 18.078125 20 21.87109375 41 38.978515625 59 c 2
 279.651367188 319 l 1
 261.546875 320 240.49609375 330 218.444335938 340 c 0
 191.078125 353 162.711914062 366 130.711914062 366 c 0
 106.711914062 366 85.234375 342 87.3369140625 322 c 0
 88.3876953125 312 91.859375 298 101.120117188 286 c 0
 106.9609375 278 107.381835938 274 103.01171875 268 c 0
 95.0634765625 258 70.32421875 246 64.32421875 246 c 0
 57.32421875 246 42.0634765625 258 39.7509765625 280 c 0
 35.966796875 316 51.654296875 338 80.501953125 368 c 0
 101.189453125 390 148.666992188 414 170.666992188 414 c 0xec
 192.666992188 414 215.5078125 406 238.348632812 398 c 0
 263.294921875 389 286.345703125 379 303.345703125 379 c 0
 323.345703125 379 332.71484375 385 346.138671875 400 c 0
 352.40234375 407 364.24609375 418 374.24609375 418 c 0
 378.24609375 418 383.876953125 412 384.5078125 406 c 0xdc
EndSplineSet
EndChar

StartChar: uni0082
Encoding: 130 130 77
Width: 491
Flags: W
HStem: -14 58<99.9047 169.242> -14 31<362.254 432.925> 376 40<202.442 419.79>
VStem: 573.195 25.6309<197.91 259>
LayerCount: 2
Fore
SplineSet
428.873046875 326 m 0xb0
 429.791992188 309.612304688 422 283 395 238 c 1
 356 132 333.09375 17 387.500976562 17 c 0
 453.500976562 17 552.829885999 105.77382141 573.1953125 249 c 4
 574.813772416 260.382321356 584.669921875 259 587.669921875 259 c 4
 592.669921875 259 601.215473114 258.781949194 598.826171875 243 c 4
 577.29837067 100.803336266 482.502929688 -14 364.123046875 -14 c 0
 281.809570312 -14 298.74609375 66.0771484375 319 153 c 0
 322.416015625 167.659179688 318.708007812 171.256835938 311.994140625 162 c 0
 209 20 158.123046875 -14 98.123046875 -14 c 3x70
 -41.6396987725 -14 -20.78515625 223.024414062 120.260742188 350 c 0
 183.978515625 407.362304688 259.837890625 416 320.6640625 416 c 3
 390.6640625 416 487.865234375 373.905273438 502 351 c 0
 510.516303822 337.199398497 495.559895045 314.697612228 483 328 c 0
 451.001953125 361.889648438 383.33984375 376 313.549804688 376 c 3
 260.357421875 376 197.403320312 369.627929688 147.905273438 318 c 0
 53.6708984375 219.709960938 52.3320734086 44 144.500976562 44 c 3
 203.034179688 44 328.90234375 210.754882812 335.081054688 245 c 1
 344.23046875 284.62890625 349.002929688 353 389 353 c 0
 412.73828125 353 427.958984375 342.305664062 428.873046875 326 c 0xb0
EndSplineSet
EndChar

StartChar: uni0083
Encoding: 131 131 78
Width: 527
Flags: W
HStem: -8 32<161.688 230.442> 379 35<328.119 369.076> 675 30<272.233 319.305>
LayerCount: 2
Fore
SplineSet
361.220703125 414 m 0
 404.220703125 414 438.479492188 383 442.998046875 340 c 0
 459.079101562 187 308.575195312 -8 173.575195312 -8 c 0
 121.575195312 -8 85.2119140625 24 79.9560546875 74 c 0
 73.3818403423 136.543877014 83.703743955 188.850141497 93.7195658564 250 c 0
 106.429443202 327.597945426 127.080075785 417.350097767 170.194335938 555 c 0
 191.580087589 623.27779518 226.819335938 705 289.004882812 705 c 3
 334.231445312 705 367.158203125 675 370.993164062 629 c 0
 379.872070312 535 304.650390625 461 179.061523438 400 c 1
 181.48828125 434 l 1
 282.290039062 512 332.875976562 554 326.362304688 635 c 0
 324.734375 660 314.893554688 675 292.893554688 675 c 3
 263.166015625 675 243.443704681 596.996952275 219.461914062 508 c 0
 200.901845094 439.123175981 170.747070312 333.483398438 154.620117188 240 c 0
 134.629882812 124.129882812 132.612805849 24 196.211914062 24 c 0
 222.211914062 24 271.376953125 70 311.860351562 132 c 0
 353.133789062 196 382.463867188 288 377.418945312 336 c 0
 375.001953125 359 361.21484375 379 345.21484375 379 c 0
 313.762695312 379 316.252929688 288.849609375 378.741210938 266.10546875 c 0
 408.811523438 255.161132812 506.81640625 302.49609375 518.645507812 308.83203125 c 0
 526.862380076 313.235623404 528.804632114 304.355677741 527.036132812 297.264648438 c 0
 525.8203125 292.38671875 524.481445312 288.216796875 519.872070312 284.973632812 c 0
 456.37331286 240.295799444 381.130859375 219.733398438 323.96875 246.217773438 c 0
 253.864216311 278.699134846 250.23046875 348.3359375 287.630859375 387 c 0
 303.924804688 403.84375 338.538788284 414 361.220703125 414 c 0
EndSplineSet
EndChar

StartChar: uni008D
Encoding: 141 141 79
Width: 316
Flags: W
HStem: -14 43<145.438 239.651> 675 30<291.769 352.167>
VStem: 55 67<53.2678 257.01> 357 44<552.954 673.262> 366 22<221.57 260.093>
LayerCount: 2
Fore
SplineSet
401 629 m 0xf0
 400 535 297 371 135 260 c 1
 127 210 122 163 122 125 c 0
 122 59 157 29 187 29 c 0
 272 29 349 179 366 256 c 0
 369.708984375 272.799804688 392.8828125 258.666992188 388 237 c 0xe8
 370.75390625 160.471679688 293 -14 168 -14 c 0
 95 -14 55 54 55 157 c 0
 55 347 175 705 327 705 c 0
 379 705 402 675 401 629 c 0xf0
327 675 m 0
 251 675 175 472 141 294 c 1
 250 372 355 554 357 635 c 0xf0
 358 660 349 675 327 675 c 0
EndSplineSet
EndChar

StartChar: uni008E
Encoding: 142 142 80
Width: 789
Flags: W
HStem: -14 36<74.0797 96.4004 640.707 683.142> 386 28<112.819 174.85 311.756 384.644 576.21 648.009>
VStem: 54.4971 19.5029<22.3684 69.9568> 804.095 22.9053<204.96 259.988>
LayerCount: 2
Fore
SplineSet
121 141 m 1
 105 117 74 57.1201171875 74 39 c 3
 74 20.5595703125 80.18359375 22 86 22 c 3
 97.9521484375 22 114.520402073 110.538734093 121 141 c 1
89.650390625 -14 m 0
 69.650390625 -14 54.4970703125 6.93359375 54.4970703125 40 c 3
 54.4970703125 84.033203125 110 164 131.034179688 196 c 1
 133.471441961 216.405806085 165.286132812 326.284179688 154.918945312 369 c 0
 152.358398438 379.546875 147.227119038 386 138.446289062 386 c 0
 118.446289062 386 68.8662109375 352 41.28125 310 c 0
 36.9111328125 304 29.9111328125 316.40234375 35.8603515625 325 c 0
 67 370 108.671875 412.826171875 161.349609375 414 c 0
 188.349609375 414 216.87647782 388.761442129 213.025390625 360 c 0
 207 315 199.581054688 285 199.581054688 285 c 2
 196.631835938 275 199.830259035 274.499623254 204.001953125 281 c 0
 247 348 291.349609375 414 366.349609375 414 c 3
 424.349609375 414 455.93359375 365.965820312 446.544921875 317 c 0
 439.685546875 281.225585938 432.581054688 246 432.581054688 246 c 2
 429.631835938 236 434.737304688 235 438.001953125 242 c 0
 507.602539062 379 575.349609375 414 640.349609375 414 c 3
 677.349609375 414 718 374 700.491210938 308 c 0
 695.403779645 288.82249303 590.471679688 20 662.608398438 20 c 0
 714.608398438 20 795 156 804.094726562 261 c 0
 805.162835191 273.331476401 827.901747559 258.520388193 827 248 c 0
 821 178 753.334960938 -14 620.334960938 -14 c 0
 489.7734375 -14 629.349466402 284.332404553 645.073242188 331 c 0
 657.200205471 366.992386578 645.90234375 391 630.764648438 391 c 3
 547.051757812 391 471.961914062 297.255859375 390.665039062 44 c 0
 369.279944317 -22.6188035827 347.650390625 -17 331.650390625 -17 c 0
 312.448180226 -17 301.819335938 20.2822265625 312.034179688 50 c 0
 344 143 375 234 390.758789062 334 c 24
 394 356 388.609375 389 353.44921875 389 c 3
 297.969726562 389 236 296 191 224 c 1
 155 11 135.650390625 -14 89.650390625 -14 c 0
EndSplineSet
EndChar

StartChar: uni009B
Encoding: 155 155 81
Width: 628
Flags: W
HStem: -290 41<27.6019 144.963> 60 45<80.2117 184.536> 324 83<327.229 396.915> 376 33<100.314 203.727>
VStem: -52 56<-226.28 -137.654> 25 29<272.701 315.389> 231 80<-121.001 11.785>
LayerCount: 2
Fore
SplineSet
327.229492188 324 m 1xee
 125 119 l 2
 109 101 117 98 122 100 c 0
 132 104 148 105 165 105 c 0
 234 105 311 49 311 -25 c 0
 311 -151 195 -290 59 -290 c 0
 -11 -290 -52 -229 -52 -190 c 0
 -52 -95.3634999168 121.070221195 -24.8551953646 228 38.669921875 c 0
 316.09375 91.0048828125 462.502929688 176.399414062 495 252.49609375 c 0
 510.012695312 287.649414062 533.059570312 264.021484375 523 237.603515625 c 0
 490.896855866 153.29393921 329.172851562 55.625 248 9.7587890625 c 0
 136.608398438 -53.1826171875 3.7001953125 -117.65234375 4 -184 c 0
 4.2255859375 -234.0390625 62 -249 89 -249 c 0
 206 -249 231 -151 231 -57 c 0
 231 11 184 60 116 60 c 0
 106 60 85 56 76 53 c 0
 64 49 53 44 44 44 c 0
 40 44 27 47 26 60 c 0
 25 74 31 78 49 98 c 2
 279.651367188 328 l 1
 261.546875 329 250.821627962 340.959980064 228.444335938 350 c 0
 206.91873916 358.695950511 166.784179688 376.532226562 138 376 c 0
 102.260742188 375.33984375 71.4384141016 338.914862434 54 276 c 0
 50.5124866918 263.417639084 23.05078125 272.037109375 25 282 c 0
 34 328 45.9912109375 347.6796875 74.501953125 378 c 0
 95.189453125 400 136.666992188 409 158.666992188 409 c 0xde
 180.666992188 409 215.5078125 405 238.348632812 397 c 0
 263.294921875 388 296.345703125 373 313.345703125 373 c 1
 333.345703125 394 362.709960938 411.29296875 382.375976562 407 c 0
 396.732421875 403.866210938 418.77734375 386.557617188 406 357 c 0
 395.791992188 333.38671875 350.280273438 325.9375 327.229492188 324 c 1xee
EndSplineSet
EndChar

StartChar: i
Encoding: 105 105 82
Width: 449
Flags: W
HStem: -8 32<161.736 230.442> 376 38<307.24 370.085> 687 20G<241.425 252.925>
LayerCount: 2
Fore
SplineSet
173.575195312 -8 m 0
 121.575195312 -8 85.2119140625 24 79.9560546875 74 c 0
 76.4873046875 107 79.86328125 151 90.23828125 195 c 2
 176.194335938 576 l 2
 181.197265625 595 182.3046875 613 180.518554688 630 c 0
 179.782226562 637 172.256835938 642 153.731445312 647 c 0
 134.206054688 652 121.575195312 658 121.155273438 662 c 0
 120.524414062 668 124.103515625 672 135.68359375 676 c 0
 164.52734375 687 235.424804688 707 247.424804688 707 c 0
 258.424804688 707 263.740234375 704 264.4765625 697 c 0
 265.737304688 685 264.473632812 678 260.944335938 664 c 0
 242.091796875 596 182.47265625 345 163.721679688 257 c 0
 160.193359375 243 168.508789062 240 176.248046875 252 c 0
 244.31640625 356 311.220703125 414 361.220703125 414 c 0
 404.220703125 414 438.479492188 383 442.998046875 340 c 0
 459.079101562 187 308.575195312 -8 173.575195312 -8 c 0
196.211914062 24 m 0
 222.211914062 24 271.376953125 70 311.860351562 132 c 0
 353.133789062 196 382.463867188 288 377.418945312 336 c 0
 375.001953125 359 360.21484375 376 344.21484375 376 c 0
 302.21484375 376 255.049804688 330 195.139648438 234 c 0
 157.65625 172 134.541992188 116 137.169921875 91 c 0
 140.953125 55 168.211914062 24 196.211914062 24 c 0
EndSplineSet
EndChar

StartChar: uni0085
Encoding: 133 133 83
Width: 516
Flags: W
HStem: -14 48<101.243 189.804 343.095 447.736> 686 20G<449.709 461.814>
VStem: 481 24.3379<588.994 667.756>
LayerCount: 2
Fore
SplineSet
436 466 m 1
 463 561 481 629.552734375 481 647 c 3
 481 652.24609375 477.12346054 672.12346054 473 668 c 0
 468 663 452 569 436 466 c 1
408.53515625 301 m 1
 392 192 347.307617188 34 413.637695312 34 c 0
 489.637695312 34 566.274414062 236 586.385742188 283 c 4
 588.25807646 287.375629011 594.860351562 291 597.860351562 291 c 4
 607.860351562 291 608.659320103 273.74091458 607 269 c 4
 593 229 515.78515625 -14 382.78515625 -14 c 0
 303.404296875 -14 320.147622508 79.5970138093 324.704101562 139 c 0
 324.7578125 148 321.032318415 153.108053045 317.86328125 147 c 0
 268.055664062 51 189.78515625 -14 117.78515625 -14 c 0
 -69.126953125 -14 32.087890625 471.939453125 292 342 c 0
 300.024035112 337.988494969 296.11328125 339.375976562 298 329 c 0
 300 318 288.411997773 315.810715455 281.533203125 318 c 0
 75.7333984375 383.499023438 34.4222058909 33 139.844726562 33 c 0
 237.130162468 33 286.317382812 129.96875 334.251953125 257 c 1
 351.057617188 393.595703125 385.825640841 608.866735751 412.325195312 676 c 0
 423.72265625 704.874023438 443.41231331 706 456.004882812 706 c 3
 467.624023438 706 505.337890625 700.052734375 505.337890625 648 c 3
 505.337890625 588.384765625 441.231445312 414.57421875 408.53515625 301 c 1
EndSplineSet
EndChar

StartChar: uni008F
Encoding: 143 143 84
Width: 789
Flags: W
HStem: -15 36<71.0797 93.4483 408.831 464.097> 388 25<112.437 171.85 327.477 388.702>
VStem: 51.4971 19.5029<21.3684 66.3915> 520.514 20.4863<208.679 281.777>
LayerCount: 2
Fore
SplineSet
118 133 m 1
 102 109 71 56.1201171875 71 38 c 3
 71 19.5595703125 77.18359375 21 83 21 c 3
 94.9521484375 21 111.520507812 102.5390625 118 133 c 1
365.44921875 388 m 7
 308 388 248 295 203 223 c 1
 167 10 132.650390625 -15 86.650390625 -15 c 0
 66.650390625 -15 51.4970703125 5.93359375 51.4970703125 39 c 3
 51.4970703125 83.033203125 107 156 128.034179688 188 c 1
 133.471679688 208.40625 162.286132812 325.284179688 151.918945312 368 c 0
 149.358398438 378.546875 144.227539062 385 135.446289062 385 c 0
 115.446289062 385 65.8662109375 351 38.28125 309 c 0
 33.9111328125 303 26.9111328125 315.40234375 32.8603515625 324 c 0
 64 369 105.671875 411.826171875 158.349609375 413 c 0
 185.349609375 413 228.876953125 387.76171875 225.025390625 359 c 0
 219 314 211.581054688 284 211.581054688 284 c 2
 208.631835938 274 211.830078125 273.5 216.001953125 280 c 0
 259 347 303.349609375 413 378.349609375 413 c 3
 429.40234375 413 466.83312917 372.492415288 446.963867188 304 c 0
 419.45703125 209.1796875 369.837890625 20 433.66015625 20 c 0
 495.66015625 20 497 121 520.513671875 278 c 0
 522.073601433 288.415597439 541.8470633 281.124919244 541 275 c 0
 528 181 534.38671875 -14 411.38671875 -14 c 0
 267.826171875 -14 366.021484375 248.857421875 377.700195312 297 c 0
 394.136755232 364.755625963 401 388 365.44921875 388 c 7
EndSplineSet
EndChar

StartChar: uni008C
Encoding: 140 140 85
Width: 455
Flags: W
HStem: -21 28<337.66 402.914> -15 21G<58.5752 71.5752> 372 48<304.004 386.88> 420 21G<151.489 212.856> 695 30<240.492 297.741>
VStem: 41.2627 61.0537<-11.2031 48.0655> 515.803 21.8955<184.457 239.823>
LayerCount: 2
Fore
SplineSet
248.548828125 166.379882812 m 1xae
 232 165 217.21484375 175.129882812 216 190 c 0
 214.943359375 202.935546875 222.2890625 214.471679688 237 220 c 0
 250.970703125 225.25 262.337890625 217 274 198 c 1
 327 198 374.887695312 296 370.262695312 340 c 0
 368.160430345 359.999926174 354.899414062 372 330.899414062 372 c 0
 248.8207364 372 155.167732712 193.083160694 136.704101562 136 c 0
 130.5718922 117.041329868 107.319335938 35 102.31640625 16 c 0
 96.62890625 -6 79.5751953125 -15 63.5751953125 -15 c 0x6e
 53.5751953125 -15 42.5234375 -5 41.2626953125 7 c 0
 40.6318359375 13 40.9501953125 29 44.84765625 49 c 1
 44.84765625 49 85.478515625 296.510742188 116.701171875 492 c 4
 137.631835938 623.041015625 187.165126962 726.305531552 270.004882812 725 c 0
 315.225829924 724.287330429 348.158203125 695 351.993164062 649 c 0
 360.872070312 555 275.650390625 481 150.061523438 420 c 1x9e
 152.48828125 454 l 1
 253.290039062 532 313.875976562 574 307.362304688 655 c 0
 305.734375 680 287 695 263.893554688 695 c 3
 235.917227207 695 213.18359375 638.947265625 196.071289062 567 c 0
 168.041015625 449.146484375 154.412554754 288.644326251 148.4609375 262 c 0
 145.106829093 246.984256401 163.6171875 251 167.880859375 258 c 0
 225.896484375 353 306.379882812 420 373.379882812 420 c 0
 400.379882812 420 434.956054688 400 438.109375 370 c 0
 445.466796875 300 359.241210938 199 293.23828125 180 c 0
 286.44921875 178 284.659179688 176 288.39453125 169 c 1
 294.454101562 155.8828125 300.549804688 141.727539062 316.86328125 79 c 0
 327.290039062 38.908203125 333.37109375 7 361.899414062 7 c 0
 466.899414062 7 510.8515625 198 515.802734375 227 c 0
 518.041366909 240.11211671 525.436523438 240 530.436523438 240 c 0
 532.436523438 240 538.09261925 233.012035718 537.698242188 228 c 0
 534 181 478.205078125 -21 347.205078125 -21 c 0
 308.254882812 -21 274.125 18.37109375 262.5078125 62 c 0
 250.88671875 105.645507812 260.147460938 143.60546875 248.548828125 166.379882812 c 1xae
EndSplineSet
EndChar

StartChar: uni0089
Encoding: 137 137 86
Width: 488
Flags: W
HStem: -14 21G<273.075 300.575> 381 40<320.181 391.439> 675 30<263.634 315.669>
VStem: 74.2627 48.1904<-17.0356 60.2863>
LayerCount: 2
Fore
SplineSet
541.754882812 239.029296875 m 4
 481.688476562 178.491210938 326.983398438 88.955078125 293.47265625 55.5400390625 c 0
 272.627929688 34.7548828125 296.735351562 19.45703125 317.299804688 29 c 0
 368.473725747 52.747343364 418.958984375 201.178710938 411.94140625 306 c 0
 409.859249566 337.101092679 391.793945312 381 356.793945312 381 c 0
 294.793945312 381 188.4453125 168 150.905273438 78 c 0
 134.665170613 38.4404037064 132.87109375 10.107421875 122.453125 -5 c 0
 116.016601562 -14.3330078125 100.105218114 -18 93.9951171875 -18 c 0
 83.9951171875 -18 75.5234375 -4 74.2626953125 8 c 0
 72.16015625 28 75.3740234375 45 80.220703125 75 c 2
 170.455078125 558 l 1
 189.970703125 655.946289062 226.819335938 705 289.004882812 705 c 3
 334.231445312 705 367.158203125 675 370.993164062 629 c 0
 379.872070312 535 304.650390625 461 179.061523438 400 c 1
 181.48828125 434 l 1
 282.290039062 512 332.875976562 554 326.362304688 635 c 0
 324.734375 660 304.893554688 675 282.893554688 675 c 3
 253.166015625 675 237.779296875 596.36328125 219.461914062 508 c 0
 195.772460938 393.717773438 169.563476562 251.456054688 160.08203125 200 c 0
 158.133789062 190 166.441023881 190.786258093 169.397460938 197 c 0
 221.734375 307 307.854492188 421 367.854492188 421 c 0
 431.854492188 421 473.102182314 366.125697705 475.62890625 328 c 0
 482.455078125 225 459.206864196 113.983262803 396.688476562 42 c 0
 372.370117188 14 320.575195312 -14 280.575195312 -14 c 0
 265.575195312 -14 230.62890625 -5 227.685546875 23 c 0
 220.204101562 94.185546875 440.946289062 192.232421875 527.352539062 258.532226562 c 4
 530.245117188 260.751953125 537.102539062 264.8125 541.272460938 261.59765625 c 4
 548.6640625 255.896484375 544.635742188 241.93359375 541.754882812 239.029296875 c 4
EndSplineSet
EndChar

StartChar: uni008B
Encoding: 139 139 87
Width: 259
Flags: W
HStem: -290 49<-94.3986 -16.023> 240 32<-30.0274 13.1082> 508 75<169.252 242.124>
VStem: -157.064 59.8975<-238.877 -155.884>
LayerCount: 2
Fore
SplineSet
311.43359375 604 m 4
 294.778320312 566.883789062 230.061523438 508 192 508 c 4
 182 508 161 510 161 531 c 4
 161 547 173.565429688 580.51953125 192 583 c 4
 234.176757812 588.674804688 258.06640625 594.602539062 291 611.965820312 c 4
 299.920898438 616.668945312 323.19921875 630.21875 311.43359375 604 c 4
-74.5458984375 -290 m 0
 -121.545898438 -290 -157.064453125 -256.103984076 -157.064453125 -217 c 3
 -157.064453125 -62.2705780733 201.046875 25.17578125 309 215.434570312 c 0
 333.730452983 259.020024996 351.3203125 234.606445312 333 196.522460938 c 0
 237.703125 -1.5771484375 -97.1669921875 -92.3994960294 -97.1669921875 -202 c 3
 -97.1669921875 -234.637624658 -82.8544921875 -241 -59.8544921875 -241 c 0
 55.751953125 -241 123.39622448 144.486499116 146.236328125 343 c 1
 135.236328125 343 57.6357421875 246.483398438 -24.03125 240 c 0
 -35.28125 239.106445312 -30.6534887154 271.272064592 -27.23828125 272 c 0
 51.91015625 288.870117188 126.719726562 394 181.4609375 414 c 0
 196.735721797 419.580725759 216.768133698 399.429235722 215.404296875 386 c 0
 197.014577435 204.922709098 140.580708372 -290 -74.5458984375 -290 c 0
EndSplineSet
EndChar

StartChar: uni008A
Encoding: 138 138 88
Width: 294
Flags: W
HStem: -14 42<167.264 233.819> 255 27<47.0096 72.341> 508 75<198.252 271.124>
LayerCount: 2
Fore
SplineSet
340.43359375 604 m 4
 323.778320312 566.883789062 259.061523438 508 221 508 c 4
 211 508 190 510 190 531 c 4
 190 547 202.565429688 580.51953125 221 583 c 4
 263.176757812 588.674804688 287.06640625 594.602539062 320 611.965820312 c 4
 328.920898438 616.668945312 352.19921875 630.21875 340.43359375 604 c 4
168.950195312 -14 m 0
 137.713867188 -14 83.95703125 19.3623046875 87.6953125 86 c 0
 93.916856624 196.903737301 136.413085938 258 157.740234375 331 c 0
 159.109375 337 158.479492188 343 151.479492188 343 c 0
 140.479492188 343 94.5810546875 253 52.47265625 255 c 0
 44.30078125 255.387695312 44.2802734375 279.743164062 50.947265625 282 c 0
 101.161132812 299 132.064453125 395 189.0703125 413 c 0
 207.124131468 418.700619989 232 401 228.329101562 382 c 24
 203 255 163.553710938 203.474609375 156.704101562 119 c 0
 151.846679688 59.0888671875 170.716796875 28 200.013671875 28 c 0
 241.013671875 28 337.073242188 159 371.079101562 247 c 0
 371.562786033 248.251673511 387.869140625 252 389.869140625 252 c 0
 392.869140625 252 403.388270023 246.848432377 402.39453125 244 c 0
 366.809570312 142 269.950195312 -14 168.950195312 -14 c 0
EndSplineSet
EndChar

StartChar: uni0084
Encoding: 132 132 89
Width: 552
Flags: W
HStem: -15 28<151.019 242.95> 386 29<192.006 287.6>
VStem: 15.2031 67.2051<84.8372 262.482> 304.024 37.793<303.984 373.39>
LayerCount: 2
Fore
SplineSet
234.921875 386 m 0
 168.577616077 386 82.408203125 276.220703125 82.408203125 174.1328125 c 0
 82.408203125 96.2099609375 133.193359375 13 190.659179688 13 c 0
 263.659179688 13 304.662109375 54 342.139648438 144 c 4
 347.911132812 157.859375 374.725585938 164.899414062 366.139648438 144 c 4
 328.346679688 52 282.544921875 -15 161.544921875 -15 c 0
 79.3955078125 -15 15.203125 60.9462890625 15.203125 162.478515625 c 0
 15.203125 289.258789062 116.903931433 415 251.5078125 415 c 0
 297.5078125 415 341.817382812 381.036132812 341.817382812 351 c 3
 341.817382812 307.413085938 288 261 245.706054688 240 c 0
 237.932806244 236.140388036 230.301789391 257.967471993 241.211914062 264 c 0
 281 286 304.024414062 322.651367188 304.024414062 340 c 3
 304.024414062 370.897460938 272.921875 386 234.921875 386 c 0
EndSplineSet
EndChar

StartChar: uni0086
Encoding: 134 134 90
Width: 341
Flags: W
HStem: -15 32<143.77 229.264> 219 23<117.839 218.084> 393 21<212.12 280.035>
VStem: 22.0801 76.0879<65.4763 233.192> 306.446 57.79<287.844 379.529>
LayerCount: 2
Fore
SplineSet
155.544921875 -15 m 0
 68.1103515625 -15 22.080078125 82.19921875 22.080078125 154.82421875 c 0
 22.080078125 281.094726562 131.973654868 414 252.455078125 414 c 0
 329.455078125 414 364.236328125 373.1875 364.236328125 339 c 3
 364.236328125 254.537109375 226.743164062 221 117.950195312 219 c 0
 113.666300149 218.921273105 108.21484375 216.642578125 105.435546875 213 c 1
 98.49609375 194.969726562 98.16796875 169.48828125 98.16796875 159.833984375 c 0
 98.16796875 105.157226562 123.1484375 17 181.869140625 17 c 0
 269.869140625 17 332.715820312 108 353.193359375 183 c 0
 355.852539062 192.740234375 363.037109375 194 368.037109375 194 c 0
 374.037109375 194 378.458007812 190 379.088867188 184 c 0
 379.298828125 182 378.966076188 179.280804113 377.9296875 176 c 0
 344.760742188 71 260.544921875 -15 155.544921875 -15 c 0
123.533203125 242 m 0
 184.533203125 239 306.446289062 256.87890625 306.446289062 337 c 3
 306.446289062 354.09375 291.083007812 393 244.083007812 393 c 0
 179.083007812 393 112.749023438 278 115.90234375 248 c 0
 116.533203125 242 118.53923894 242.245604796 123.533203125 242 c 0
EndSplineSet
EndChar

StartChar: uni0087
Encoding: 135 135 91
Width: 307
Flags: W
HStem: -290 35<-69.2893 1.21098> 255 46<-57.0119 109.97> 665 41<253.441 325.389>
VStem: -126.913 37.5283<-236.111 -171.565> 344.276 30.7393<513.692 639.014>
LayerCount: 2
Fore
SplineSet
380.504882812 403 m 0
 383.897460938 405.120117188 390.8203125 406 394.661132812 399 c 0
 399.014648438 391.06640625 397.264648438 371.602539062 382.708984375 362 c 0
 301.903320312 308.690429688 85.3953026121 255 -36.5556640625 255 c 3
 -50.0638459455 255 -57.81640625 265.961481554 -57.81640625 273 c 3
 -57.81640625 284.060601885 -48.6785216386 301 -36.5498046875 301 c 3
 70.561342757 301 284.83203125 343.215820312 380.504882812 403 c 0
-38.658203125 -290 m 0
 -88.658203125 -290 -126.913085938 -253.181640625 -126.913085938 -220 c 3
 -126.913085938 -90.01171875 223 64 372.4609375 183 c 28
 384 192 402 184 391 174 c 28
 253 46 -89.384765625 -129.249023438 -89.384765625 -206 c 3
 -89.384765625 -224.645507812 -56.8623046875 -255 -32.8623046875 -255 c 0
 69.4072265625 -255 85.3671875 60.6884765625 115.16796875 290 c 0
 147.392578125 537.958984375 191.109375 706 293.658203125 706 c 0
 352.658203125 706 374.233398438 657.21875 375.015625 596 c 0
 376.983398438 442.028320312 221.893554688 324.806640625 143 308.751953125 c 0
 125.703125 305.232421875 143.283203125 340 140 340 c 0
 130 340 336.41796875 413.905273438 344.276367188 576 c 0
 345.768554688 606.772460938 333.967773438 665 284.967773438 665 c 0
 226.01953125 665 220.354492188 521.883789062 191.221679688 286 c 0
 161.388671875 44.4501953125 110.579101562 -290 -38.658203125 -290 c 0
EndSplineSet
EndChar

StartChar: uni0088
Encoding: 136 136 92
Width: 415
Flags: W
HStem: -284 30<39.0207 129.261> 77 34<116.874 201.286> 386 28<200.618 322.631>
VStem: -34 38<-223.99 -125.289> 261 76.4277<32.2389 159.495 161.67 249.839 287.978 322.207>
LayerCount: 2
Fore
SplineSet
338.923828125 325 m 0
 364.29296875 306.096679688 353.745117188 266.27734375 337.427734375 231.709960938 c 1
 338.639648438 133.146484375 327.876843321 -67.344413521 261.114257812 -180 c 0
 209.176757812 -267.639648438 152.290039062 -284 96 -284 c 3
 17.8828125 -284 -34 -241 -34 -183 c 3
 -34 20.7685546875 378 -71 506 207 c 0
 512.03125 220.099609375 531.904296875 205.928710938 526 193 c 0
 389 -107 4 -21.3720703125 4 -171 c 3
 4 -211.607421875 33.8876953125 -254 84 -254 c 3
 210.90625 -254 264.561523438 30.9794921875 264.00390625 159.495117188 c 1
 230.732421875 99.3623046875 182.083077903 77 154.423828125 77 c 3
 -73.3695634094 77 -11.9501953125 414 250.002929688 414 c 0
 299.90625 414 367 393 391 361 c 0
 404.270507812 343.306640625 395.980269342 319.067417092 381.150390625 336 c 0
 354 367 293.4765625 386 255.946289062 386 c 3
 83.349609375 386 55.87890625 111 148.901367188 111 c 3
 208.901367188 111 260 177 261 208 c 1
 259.303710938 236.723632812 253.267578125 267.340820312 257.196289062 289 c 0
 262.854492188 320.190429688 310.40625 346.248046875 338.923828125 325 c 0
EndSplineSet
EndChar

StartChar: uni0090
Encoding: 144 144 93
Width: 380
Flags: W
HStem: -14 26<97.5819 208.912> 398 20G<217.255 273.478>
LayerCount: 2
Fore
SplineSet
151.661132812 364 m 0
 80 298 -16.1875 12 143.338867188 12 c 0
 300.780273438 12 344 187 309.319335938 310.897460938 c 1
 265.27046498 322.002663658 222.548717857 342.617711194 208 365 c 0
 192.424567831 388.961824301 191.509765625 418 243 418 c 0
 303.956054688 418 341.936523438 367.01171875 354 338 c 1
 408.125976562 315.793945312 466.255859375 315.860351562 513 344 c 0
 520.757562261 348.669998675 526.087402897 320.959060949 518 316 c 0
 471.895507812 287.729492188 416.591796875 291.31640625 362.958007812 299.8359375 c 1
 386 165 319.702148438 -14 130.4921875 -14 c 0
 38.0898032604 -14 -18.0048828125 65.1609837038 -18.0048828125 138 c 3
 -18.0048828125 254.545536985 64.890625 362.728515625 141.5078125 383 c 0
 152.537109375 385.91796875 160.117009826 371.787874138 151.661132812 364 c 0
EndSplineSet
EndChar

StartChar: uni0091
Encoding: 145 145 94
Width: 439
Flags: W
HStem: 26 26<231.89 301.129> 388 27<319.976 400.742> 397 28<-10.322 103.505>
VStem: -6.31543 82.8438<-261.344 -148.516> 160.415 104.633<447.985 492.715> 427.027 73.0537<223.5 360.35>
LayerCount: 2
Fore
SplineSet
222.3984375 416 m 1xbc
 136.471679688 109 l 2
 134.123046875 98.9306640625 140.41225767 100.263235381 142 105 c 0
 202 284 252.943359375 415 356.943359375 415 c 0
 436.943359375 415 500.081054688 370.080470044 500.081054688 290 c 3
 500.081054688 162.300407213 371.985351562 22.4365234375 240.033203125 26 c 0
 203 27 195.83984375 55.435546875 197 74 c 0
 201.999023438 154 475 205 566 253 c 4
 581.817382812 261.342773438 600.946289062 243.262695312 570 228.71875 c 4
 494 193 245 130 232 83 c 0
 228.421875 70.0634765625 228 51 255.458984375 52 c 0
 317.41796875 54.2568359375 427.02734375 134.416166679 427.02734375 281 c 3
 427.02734375 356.023629497 408.948242188 388 360.83203125 388 c 0xdc
 289.967773438 388 235.704101562 287.885742188 190.778320312 169 c 0
 143.692382812 44.396484375 106.962379379 -111.811456432 76.5283203125 -229 c 0
 68.6016560241 -259.522193615 33.2821705423 -279.792254186 12.8857421875 -279 c 0
 -1.73461459009 -278.43210455 -11 -267 -6.3154296875 -240 c 24
 30 -14 143.033203125 379 143.033203125 379 c 2
 150.08984375 407 148.459960938 413 128.775390625 410 c 0
 97.30078125 405 77.826171875 400 11.1923828125 397 c 0
 -0.402655862058 396.477965811 -9.7021484375 396 -10.54296875 404 c 0
 -11.69921875 415 -6.31965670856 424.856818125 2.2490234375 425 c 0
 62.09375 426 108.885742188 440 160.415039062 453 c 1
 166 473 176.926757812 506 207.37890625 506 c 0
 230.578730857 506 265.565429688 483.485351562 265.047851562 461 c 0
 264.58984375 441.100585938 243.338867188 420.225585938 222.3984375 416 c 1xbc
EndSplineSet
EndChar

StartChar: uni0092
Encoding: 146 146 95
Width: 473
Flags: W
HStem: -278 36<327.862 443.438> -110 25<462.32 549.076> 11 27<458.246 527.686> 36 36<111.42 205.645> 367 33<157.732 321.925>
VStem: 341.863 125.137<295.579 353.665> 416 30<-70.8123 0.328921>
LayerCount: 2
Fore
SplineSet
338 -278 m 3xea
 264.993164062 -278 243.778443997 -233.534750624 246.626953125 -195 c 0
 254.845703125 -83.81640625 276.134765625 23 304.888671875 130 c 0
 309.311523438 145 306.9453125 158 292.837890625 140 c 0
 227.561523438 57 211.920898438 36 139.920898438 36 c 0
 16.9208984375 36 -9.810546875 168.495117188 18.509765625 249 c 0
 66 384 154.87890625 436.052734375 311.305664062 400 c 0
 333 395 329.033203125 362.157226562 305.774414062 367 c 0
 164.55078125 396.40234375 139 354 106.038085938 250 c 0
 84.8916015625 183.280273438 62.1376953125 72 161.137695312 72 c 0
 232.611328125 72 304.15234375 213.770507812 341.86328125 284 c 1
 362.760742188 350.3671875 375.98828125 412 409 412 c 3
 441.0625 412 467 383 467 356 c 3xdc
 467 310 431 277 395.372070312 233 c 1
 370.615234375 69.404296875 329.583007812 -8.9755859375 317.365234375 -179 c 0
 315.358219973 -206.929921069 327.98333796 -242 358 -242 c 3
 477.21875 -242 553 -166.96484375 553 -69 c 3
 553 -21.9189453125 526.524414062 11 496 11 c 3
 471.958007812 11 446 0.03515625 446 -33 c 3
 446 -65.1650390625 467.704101562 -85 497 -85 c 3
 569.015625 -85 620.58203125 -31.025390625 673 51 c 0
 686.146484375 71.5712890625 701.749023438 54.9619140625 693 39 c 0
 636 -65 563.572265625 -110 497 -110 c 3
 444.936523438 -110 416 -76 416 -35 c 3
 416 14.3974609375 470.500976562 38 500 38 c 3
 535.07421875 38 584 15.2724609375 584 -65 c 3
 584 -192.071289062 484.18359375 -278 338 -278 c 3xea
EndSplineSet
EndChar

StartChar: uni0093
Encoding: 147 147 96
Width: 379
Flags: W
HStem: 344 42<327.907 384.919> 386 31<268.625 320.62>
VStem: 61.3906 79.2373<-0.728267 125.241> 107.586 48.9395<274.222 310.528> 111 88.2002<346.274 403.572>
LayerCount: 2
Fore
SplineSet
351 386 m 3x90
 368.204101562 386 384 403 396 415 c 0
 402.408203125 421.408203125 420.810546875 409.557617188 410 395 c 0
 392.079101562 370.868164062 370.8671875 344 349 344 c 7x90
 326.909179688 344 314.813476562 386 300.813476562 386 c 3
 232.173828125 386 172.905273438 182.119140625 140.627929688 41 c 0
 132.255421224 4.39472019875 105.736328125 -17 88.9130859375 -17 c 0
 78.9130859375 -17 59.7041015625 -4.947265625 61.390625 7 c 0x60
 70 68 103.265625 208.478515625 107.5859375 312 c 1x50
 75 291 44.21484375 276.819335938 8 265 c 0
 -10.8525390625 258.84765625 -9.8232421875 284.178710938 10 291 c 0
 40.38671875 301.45703125 95.2265625 329.422851562 111 342.799804688 c 1
 112.05859375 369.059570312 120.958984375 412.5390625 156 412.5390625 c 3
 179.673828125 412.5390625 199.200195312 402.483398438 199.200195312 385 c 3x48
 199.200195312 372.37109375 179.577148438 348.263671875 168.470703125 336 c 1
 163.016601562 293.731445312 157.132698697 230.379461026 156.525390625 226 c 0
 155 215 156.765625 213.655273438 159.15625 221 c 0
 203.756835938 358 249.086914062 417 301.086914062 417 c 3x50
 335.086914062 417 334.138671875 386 351 386 c 3x90
EndSplineSet
EndChar

StartChar: uni0094
Encoding: 148 148 97
Width: 552
Flags: W
HStem: -14 41<46.6409 134.982> 372 42<131.172 205.906>
LayerCount: 2
Fore
SplineSet
196.366210938 187 m 1
 252.422851562 208.377929688 327.21484375 251.502929688 362.645507812 289 c 0
 375.173828125 303 391.90625 299.26953125 389.330078125 292 c 0
 386.979492188 285.365234375 383.802734375 276.875976562 379.583984375 270.557617188 c 0
 336.750976562 206.408203125 209.044921875 152 209.044921875 152 c 1
 213.095703125 142 215.147460938 132 216.092773438 123 c 0
 224.396484375 44 124.4921875 -14 61.4921875 -14 c 0
 16.4921875 -14 -11.0302734375 10 -14.078125 39 c 0
 -19.5439453125 91 48.6728515625 127 135.888671875 163 c 1
 130.837890625 173 124.787109375 183 118.735351562 193 c 0
 97.3720703125 225 82.2197265625 255 80.1171875 275 c 0
 71.9189453125 353 124.5078125 414 198.5078125 414 c 4
 224.5078125 414 257.345703125 387 258.817382812 373 c 4
 259.777224656 363.866388819 261.166015625 341.6015625 239 321.8828125 c 4
 217.482421875 302.741210938 172.557617188 276 162.706054688 276 c 4
 154.02734375 276 149.034179688 287.5625 158.211914062 296 c 4
 173.021484375 309.614257812 211.482648862 334.713077635 206.024414062 352 c 4
 202.43447176 363.369802903 179.921875 372 161.921875 372 c 4
 139.921875 372 124.024414062 352 127.072265625 323 c 0
 128.859375 306 158.32421875 254 175.162109375 227 c 0
 182.318359375 216 189.790039062 202 196.366210938 187 c 1
158.036132812 95 m 0
 156.879882812 106 154.723632812 117 150.461914062 129 c 1
 84.08984375 104 37.40234375 82 39.3994140625 63 c 0
 41.396484375 44 61.1826171875 27 100.182617188 27 c 0
 136.182617188 27 161.189453125 65 158.036132812 95 c 0
EndSplineSet
EndChar

StartChar: uni0095
Encoding: 149 149 98
Width: 290
Flags: W
HStem: -14 31<156.187 230.476> 321 37<37.7012 252.164> 490 20G<176.6 205.971>
VStem: 318 30<115.609 173.015>
LayerCount: 2
Fore
SplineSet
52 358 m 0
 151.545898438 341.338867188 220.486328125 355.076171875 316 400 c 4
 351.421875 416.66015625 353.1875 374.995117188 325 362 c 4
 220.98046875 314.041992188 149.669440501 308.999641627 50 321 c 0
 26.3040291754 323.853032389 29.7255859375 361.728515625 52 358 c 0
163.537109375 -14 m 0
 2.78125 -14 96.5153397573 229.462908471 112.540039062 292 c 1
 96.1328933437 266.536433888 76.2255859375 241.146484375 52 218 c 0
 42.7978515625 209.20703125 31.0546875 229.694335938 40 238 c 0
 68 264 98 307 124.140625 344 c 1
 136.404296875 408.592773438 154.737304688 510 198.462890625 510 c 0
 213.479837061 510 221.858398438 505.037109375 225.612304688 497 c 0
 236.697265625 473.267578125 218.458007812 423.727539062 200.7421875 395 c 1
 187.961914062 331.452148438 63.875 17 185.864257812 17 c 0
 234.340820312 17 300.53515625 75.9951171875 318 160 c 0
 322.948957788 183.804199164 351.102539062 184.783203125 348 166 c 0
 336.102539062 93.962890625 277.517578125 -14 163.537109375 -14 c 0
EndSplineSet
EndChar

StartChar: uni0096
Encoding: 150 150 99
Width: 789
Flags: W
HStem: -15 25<176.125 244.116 397.416 489.013> 264 26<36.0091 78.376> 378 35<479.856 500.513> 399 20G<196.003 222.174>
VStem: 162.208 70.58<251.449 333.537 345.12 407.575> 500.593 19.5029<331.609 377.62> 593.312 17.4209<215.192 271.725>
LayerCount: 2
Fore
SplineSet
211.206054688 419 m 4xde
 233.141601562 419 236.257746971 395.387640071 232.788150543 369.000001635 c 4
 223.648554464 299.489797279 193.602448017 163.913062672 176.892578125 101 c 4
 158.995037764 33.6153294035 170.592773438 10 206.143554688 10 c 4
 263.592773438 10 323.592773438 103 368.592773438 175 c 1
 404.592773438 388 438.942382812 413 484.942382812 413 c 0xee
 504.942382812 413 520.095703125 392.06640625 520.095703125 359 c 0
 520.095703125 314.966796875 464.592773438 242 443.55859375 210 c 0
 441.709546746 203.060760383 395.872070312 13 466.146484375 13 c 0
 516.146484375 13 575.7265625 107 593.311523438 269 c 0
 594.112556314 276.379449205 611.763179319 272.404007907 610.732421875 262 c 0
 593.592773438 89 525.933975134 -15 443.243164062 -15 c 0
 351.587890625 -15 354.303962705 71.273004138 360.01171875 114 c 0
 362.9609375 124 359.762695312 124.5 355.590820312 118 c 0
 312.592773438 51 268.243164062 -15 193.243164062 -15 c 4
 142.190429688 -15 87.759765625 25.5078125 107.62890625 94 c 4
 130.090921106 171.430034949 151.264205827 268.426106079 162.208102538 333.537287924 c 5
 140.573314496 307.102922275 86.5078125 274.396484375 47 264 c 4
 28 259 32.626953125 287.674804688 43 290 c 4
 85.5361328125 299.534179688 138.83203125 334.486328125 160.334960938 369.283203125 c 4
 175.659817341 394.082480266 180.800650088 419 211.206054688 419 c 4xde
453.592773438 265 m 1
 469.592773438 289 500.592773438 341.879882812 500.592773438 360 c 0
 500.592773438 372.440429688 494.409179688 378 488.592773438 378 c 0
 479.640625 378 460.072265625 295.4609375 453.592773438 265 c 1
EndSplineSet
EndChar

StartChar: uni0097
Encoding: 151 151 100
Width: 410
Flags: W
HStem: -14 26<120.783 255.029> 254 22<11.2371 54.4315> 397.256 20G<155.459 187.187>
VStem: 126 88.5312<344 407.243> 399.075 55.4746<214.478 381.807>
LayerCount: 2
Fore
SplineSet
191.702148438 -14 m 4
 50.2578125 -14 109.991210938 204.880859375 121 311 c 1
 96 287 60.607421875 259.977539062 30 254 c 0
 4.50390625 249.020507812 2.0419921875 272.703125 24 276 c 0
 63.9580078125 282 97 319 126 344 c 1
 130 379 141.743164062 417.255859375 169.174804688 417.255859375 c 0
 205.198242188 417.255859375 214.53125 400.915039062 214.53125 381.336914062 c 0
 214.53125 367.625 205 351 181 334 c 1
 175.6640625 228.67578125 134.065429688 12 220.711914062 12 c 4
 325.9140625 12 399.075195312 196.403320312 399.075195312 345 c 7
 399.075195312 393.088867188 367.345703125 410.436523438 305 307 c 4
 299.416465676 297.736468593 286.395979313 312.77275133 292 323 c 4
 348.825195312 426.705078125 454.549804688 464.220124044 454.549804688 342 c 7
 454.549804688 167.912341612 332.786132812 -14 191.702148438 -14 c 4
EndSplineSet
EndChar

StartChar: uni0098
Encoding: 152 152 101
Width: 405
Flags: W
HStem: -13 26<205.409 271.142 436.351 531.529> 254 22<50.2371 93.4315>
VStem: 165 88.5312<344 405.381> 661.075 55.4746<208.062 382.807>
LayerCount: 2
Fore
SplineSet
495.711914062 13 m 3
 443.987304688 13 447 149 442 193 c 5
 484.556640625 278.778320312 494.909179688 387 450 387 c 0
 415 387 393.186523438 365.3046875 382 322 c 0
 373.662109375 289.723632812 370 232 377.120117188 172 c 1
 356.603515625 118.506835938 289.56640625 11 235.711914062 11 c 0
 149.065429688 11 204.6640625 228.67578125 220 334 c 1
 244 351 253.53125 367.625 253.53125 381.336914062 c 0
 253.53125 400.915039062 244.198242188 417.255859375 208.174804688 417.255859375 c 0
 182.743164062 417.255859375 172 379 165 344 c 1
 136 319 102.958007812 282 63 276 c 0
 41.0419921875 272.703125 43.50390625 249.020507812 69 254 c 0
 99.607421875 259.977539062 135 287 160 311 c 1
 138.991210938 204.880859375 87.2578125 -14 217.702148438 -14 c 0
 297 -14 356 73 383 125 c 0
 384.680664062 128.237304688 387 131 388 125 c 0
 395.487304688 80.078125 404 -13 468.702148438 -13 c 3
 609.786132812 -13 716.549804688 168.912109375 716.549804688 343 c 3
 716.549804688 465.219726562 610.825195312 427.705078125 554 324 c 0
 548.395507812 313.772460938 561.416015625 298.736328125 567 308 c 0
 629.345703125 411.436523438 661.075195312 394.088867188 661.075195312 346 c 3
 661.075195312 197.403320312 593.9140625 13 495.711914062 13 c 3
EndSplineSet
EndChar

StartChar: uni0099
Encoding: 153 153 102
Width: 438
Flags: W
HStem: -14 25<316.804 371.938> 390 24<95.5563 133.353>
VStem: 429.777 22.8408<103.881 169.997>
LayerCount: 2
Fore
SplineSet
183.630859375 196 m 0
 168.434570312 254.422851562 152.1640625 390 117.12890625 390 c 0
 90.12890625 390 65.810546875 337 49.5947265625 299 c 0
 47.7265625 294.622070312 43.2763671875 283 34.2763671875 283 c 0
 29.2763671875 283 19.5439453125 289.750976562 23.4892578125 299 c 0
 44.390625 348 76.5078125 414 130.5078125 414 c 0
 185.569335938 414 234.701677291 289.018790322 253.008789062 227 c 0
 272.947169037 159.454981298 295.728758787 11 336.186523438 11 c 0
 401.186523438 11 422.927734375 107 429.77734375 156 c 0
 431.220703125 166.325195312 436.306640625 170 441.306640625 170 c 0
 446.306640625 170 455.369140625 167.920898438 452.618164062 148 c 0
 447.5078125 111 428.4921875 -14 324.4921875 -14 c 0
 240.985463489 -14 201.194335938 128.4765625 183.630859375 196 c 0
413.321289062 393 m 0
 426.751116717 403.624578789 432.765625 406.940429688 440.34765625 397 c 0
 448.1796875 386.731445312 439.826171875 371.563476562 432.813476562 366 c 0
 275.826171875 241.444335938 168.59765625 129.359375 33.3056640625 -11 c 0
 22.8125 -21.8857421875 1.0556640625 4.2783203125 14 18 c 0
 152.020507812 164.30859375 245.1875 259.986328125 413.321289062 393 c 0
EndSplineSet
EndChar

StartChar: uni009A
Encoding: 154 154 103
Width: 405
Flags: W
HStem: -290 39<12.4936 80.7864> -5 30<129.891 193.285> 379 35<47.6458 87.5725> 400 20G<341.53 359.53>
VStem: -35.9443 46.5312<-249.309 -192.53> -11.3857 29.8945<261.369 339.494> 338 32<245.377 394.47>
LayerCount: 2
Fore
SplineSet
176.106445312 -144 m 0xda
 283.229492188 -1.0498046875 306.475585938 270.58203125 318.52734375 404 c 0
 319.249020183 411.989258106 337.530273438 420 345.530273438 420 c 0
 373.530273438 420 386.321289062 403.909179688 383.049804688 380 c 0
 366.083007812 256 350.418945312 34 221.653320312 -149 c 0
 160.796875 -236 68.4697265625 -290 13.4697265625 -290 c 0
 -6.5302734375 -290 -35.4521484375 -276.149414062 -35.9443359375 -248 c 0
 -38.458984375 -104.079101562 355.372070312 -57.1181640625 453 74.5966796875 c 0
 462.508608834 87.4252312189 475.6328125 67 477.799804688 67 c 0
 479.408203125 67 475.825979532 55.5024817234 466 44.12109375 c 0
 361.86328125 -76.5 10.5869140625 -136.564453125 10.5869140625 -224 c 3
 10.5869140625 -236.681640625 27.1630859375 -251 39.1630859375 -251 c 0
 82.8056640625 -251 141.277579854 -190.477329248 176.106445312 -144 c 0xda
76.677734375 379 m 0xe6
 56.677734375 379 21.137893892 344.102544129 18.5087890625 280 c 0
 18.0126953125 267.904296875 8.5576171875 261 0.5576171875 261 c 0
 -4.4423828125 261 -11.3857421875 263.917416741 -11.3857421875 279 c 3
 -11.3857421875 345.051535211 33.4765625 414 78.4765625 414 c 0
 110.4765625 414 135.460253238 392.601153858 142.413085938 358 c 0
 152.493164062 307.8359375 138.381835938 215.516601562 122.24609375 135 c 0
 113.147460938 89.59765625 115.01171875 25 158 25 c 3
 231.911132812 25 351.03125 226.197265625 338 393 c 1
 348 412 370.853047483 396.360388122 370 375 c 0
 364.10546875 227.400390625 274.041992188 -5 136 -5 c 3
 70.8076171875 -5 38.3935546875 85.9013671875 54 149 c 0
 75.6708984375 236.615234375 106.330078125 379 76.677734375 379 c 0xe6
EndSplineSet
EndChar

StartChar: logicalnot
Encoding: 172 172 104
Width: 766
Flags: W
HStem: -16.6162 67.0166<103.185 236.448> 0.864258 24.3662<320.83 344.284> 97.9911 39.1085<253.972 374.812> 616.55 53.2002<388.26 570.714>
VStem: 109.25 87.6504<197.517 402.391> 420 78<212.85 325.5> 660.7 102.649<326.536 520.12> 720 69<-50.7747 45>
LayerCount: 2
Fore
SplineSet
789 25 m 0x7d
 789 -113.284179688 628.438851277 -142.893469282 485.990234375 -114.352539062 c 0
 364.394070788 -89.9895954589 327.72265625 -55.0869140625 236.448242188 -16.6162109375 c 1
 175.483398438 -20.8330078125 101.30078125 -24.7421875 101.30078125 15.015625 c 4
 101.30078125 36.712890625 105.434570312 50.400390625 133.061523438 50.400390625 c 0xbd
 161.461914062 50.400390625 192.69140625 42.546875 250.626953125 25.23046875 c 1
 371 28 468.349609375 68.4501953125 541.5 134 c 0
 649.799804688 233.75 660.700195312 343 660.700195312 412.349609375 c 0
 660.700195312 539.650390625 595.650390625 616.549804688 472.150390625 616.549804688 c 0
 296.400390625 616.549804688 196.900390625 411.299804688 196.900390625 296.349609375 c 0
 196.900390625 205.150390625 224.700195312 138.19921875 322.799804688 137.099609375 c 0
 381.799804688 137.099609375 420 178 420 242 c 0
 420 280.260253084 380 291.65411832 380 330 c 0
 380 363 399 392 432 392 c 0
 475 392 498 351 498 300 c 0
 498 207 423 98 281 98 c 0
 280.388824157 97.9940473662 279.779232271 97.9910794334 279.171225104 97.9910794334 c 0
 167.464180106 97.9910794334 109.25 198.174946658 109.25 294.549804688 c 0
 109.25 494.049804688 310.099609375 669.75 506.75 669.75 c 0
 648.299804688 669.75 763.349609375 573.349609375 763.349609375 424.150390625 c 0x7e
 763.349609375 220.849609375 482.299804688 2.849609375 320.830078125 0.8642578125 c 1
 376.12890625 -16.9296875 417.248713173 -21.3769358112 465 -32 c 0
 565.366210938 -54.328125 720 -99.208984375 720 -30 c 0
 720 -10 704 11 691 20 c 0
 680 28 668 37 668 58 c 0
 668 85 692 100 719 100 c 0
 769 100 789 65 789 25 c 0x7d
EndSplineSet
EndChar

StartChar: uni00AD
Encoding: 173 173 105
Width: 764
Flags: HW
HStem: -14 31<243.188 379.837> 636 28<397.737 522.924>
VStem: 78 85<120.993 344.408> 608 85<296.566 527.326>
LayerCount: 2
Fore
SplineSet
262.3984375 -69.9609375 m 1
 224.244140625 -87.275390625 167.040039062 -102 125 -102 c 3x7fc0
 83 -102 50 -72.1103515625 50 -54 c 3
 50 -17 99.986328125 -3 136 -3 c 3
 181.221679688 -3 231.826171875 -19.9462890625 273.6171875 -32.6396484375 c 1
 485.124023438 8.439453125 638 187.866210938 638 416 c 0
 638 552 551 636 445 636 c 0
 309 636 174 492 174 343 c 0
 174 209 235 128 293 128 c 0
 352 128 405 180 405 244 c 0
 405 266 391 279 381 293 c 0
 373 304 365 316 365 332 c 0
 365 365 384 394 417 394 c 0
 460 394 483 353 483 302 c 0
 483 209 408 100 266 100 c 0
 185 100 92 191 92 313 c 0
 92 513 276 666 450 666 c 0
 620 666 725 558 725 397 c 0
 725 188.534179688 518.690429688 4.0654296875 309.29296875 -52.9296875 c 1
 356.782672022 -79.4447868061 416.654142757 -106.366515636 476 -136.041015625 c 4
 549.763671875 -172.924804688 607.680664062 -213 652 -213 c 4
 705 -213 750 -170 750 -144 c 0
 750 -124 734 -113 721 -104 c 0xffc0
 710 -96 698 -87 698 -66 c 0
 698 -39 722 -24 749 -24 c 0
 799 -24 819 -59 819 -99 c 0
 819 -158 717 -246 615 -246 c 0xffc0
 532.944335938 -246 472.058257102 -231.852208434 411 -195 c 4
 351.748274954 -159.238138704 318 -129 262.3984375 -69.9609375 c 1
EndSplineSet
EndChar

StartChar: uni009C
Encoding: 156 156 106
Width: 455
Flags: W
HStem: -21 28<337.66 402.914> -15 21G<58.5752 71.5752> 372 48<304.004 386.88> 420 21G<151.489 212.856> 695 30<240.492 297.741>
VStem: 41.2627 61.0537<-11.2031 48.0655> 515.803 21.8955<184.457 239.823>
LayerCount: 2
Fore
SplineSet
-157 558 m 4
 -157 682 -53 782 75 782 c 4
 203 782 307 682 307 558 c 4
 307 434 203 334 75 334 c 4
 -53 334 -157 434 -157 558 c 4
EndSplineSet
EndChar
